<?xml version="1.0" standalone="no"?>
<!DOCTYPE svg PUBLIC "-//W3C//DTD SVG 1.1//EN" "http://www.w3.org/Graphics/SVG/1.1/DTD/svg11.dtd" >
<svg xmlns="http://www.w3.org/2000/svg" xmlns:xlink="http://www.w3.org/1999/xlink" version="1.1">
<metadata>
Created by FontForge 20200427 at Sun Mar 11 23:03:31 2012
 By www
</metadata>
<defs>
<font id="BerimbauW00-Regular" horiz-adv-x="1024" >
  <font-face 
    font-family="BerimbauW00-Regular"
    font-weight="400"
    font-stretch="normal"
    units-per-em="1024"
    panose-1="2 0 6 3 0 0 0 0 0 0"
    ascent="858"
    descent="-166"
    x-height="695"
    cap-height="709"
    bbox="-492 -260 1246 937"
    underline-thickness="51"
    underline-position="-203"
    unicode-range="U+000D-E0DE"
  />
<missing-glyph 
 />
    <glyph glyph-name=".notdef" 
 />
    <glyph glyph-name="glyph1" horiz-adv-x="0" 
 />
    <glyph glyph-name="uni000D" unicode="&#xd;" horiz-adv-x="341" 
 />
    <glyph glyph-name="space" unicode=" " horiz-adv-x="270" 
 />
    <glyph glyph-name="exclam" unicode="!" horiz-adv-x="116" 
d="M54 139q0 62 -1 102v99v32q0 117 -1 145q1 38 1 120l-1 42q3 10 13 10q11 0 11 -16v-27q2 -336 2 -396v-40q0 -46 1 -65q0 -30 1 -39v-6q0 -20 -11 -23h-2q-8 0 -13 23v9v22v8zM82 47q12 -1 12 -16q0 -12 -7 -20q-7 -9 -21 -9q-8 0 -11 6q-7 10 -7 19q0 6 6 15q7 7 13 7
q7 0 15 -2z" />
    <glyph glyph-name="quotedbl" unicode="&#x22;" horiz-adv-x="137" 
d="M80 608q2 14 0 26q1 7 1 19q0 13 -1 18q2 25 4 28q3 4 6 4q8 0 8 -14q0 -12 1 -25t1 -30v-11v-33l-1 -27q0 -9 -9 -9q-4 0 -7 7l-2 23q-1 14 -1 24zM33 610q2 14 0 26q1 7 1 19q0 13 -1 18q1 24 4 27q3 5 6 5q8 0 8 -14q0 -12 1 -25t1 -30v-11v-33l-1 -27q0 -9 -9 -10
q-4 0 -7 7l-2 24q-1 13 -1 24z" />
    <glyph glyph-name="numbersign" unicode="#" horiz-adv-x="454" 
d="M365 551l10 45l12 53l11 46q2 5 3 6q0 2 2 4h4l3 1l10 -6q0 -1 -5 -23.5t-17.5 -78t-26.5 -114.5q53 0 58 1q9 0 9 -11q0 -6 -4 -11q-6 -4 -11 -4h-58v-1q-23 -90 -48 -209q13 1 55 1h41q9 0 9 -11q0 -15 -15 -15h-73h-22l-5 -23q0 -1 -3 -13t-9.5 -42t-13.5 -61
q-5 -18 -7 -29q-5 -20 -6 -25q-8 -33 -20 -33l-1 1q-9 1 -7 13l49 212h-1h-21h-19h-30h-27h-73l-38 -164q0 -3 -1 -7q0 -1 -0.5 -3t-1.5 -3q-11 -51 -25 -51q-4 0 -4 7v8q0 19 17 95l27 118h-53q-13 1 -13 12q0 6 5 10q3 4 11 4h55l48 209h-36h-30h-14q-14 2 -14 11
q0 4 4 10q5 4 13 4h14q32 0 70 -1l34 152q0 3 1 5t1 4q11 46 25 56h2q7 0 7 -11q-2 -17 -9 -41q-2 -7 -3.5 -14.5t-2.5 -11t-1 -4.5l-27 -117l-4 -18q13 -1 39 -1h11h27h15h6h8q10 0 22 1q27 0 46 1zM170 459l-23 -104l-24 -105q22 0 43.5 -0.5t32.5 -1t15 -0.5h11
q42 0 59 1h11l42 182l6 28h-9h-15h-17h-14h-21h-19h-30h-27h-21z" />
    <glyph glyph-name="dollar" unicode="$" horiz-adv-x="231" 
d="M106 -2q-4 0 -6 1l-7 2q-3 1 -14 7q-5 3 -10 8l-11 11l-9 9q-7 6 -7 15t8 12q2 2 4 2q3 0 7 -4l8 -8l6 -6q25 -25 54 -25h6q35 3 46 33q5 20 5 38v9q-1 4 -1 10q-1 23 -25 102q-49 160 -94 290q-21 67 -26 104q-2 18 -2 28q0 9 6 30q7 25 31 42q10 6 37 16q0 5 -1 9v10
q0 5 2 15q3 8 11 10h1l2 1q7 0 8 -10q1 -2 1 -9q0 -8 -1 -13q-1 -6 -1 -14q25 -2 28 -3q18 -1 31 -18q13 -13 13 -36v-7q0 -9 -11 -9q-8 0 -10 8v1l-1 2q0 2 -0.5 5.5t-0.5 5.5q-2 13 -5 16q-12 13 -44 13q-34 0 -47 -13q-25 -25 -25 -63q0 -23 10 -51q52 -156 53 -160
q11 -26 29 -90q24 -78 32 -98q25 -73 25 -157q-1 0 -1 -3v-1q-11 -64 -64 -67q0 -4 -3 -12q-2 -12 -2 -16q-1 -33 -14 -33h-3q-11 3 -11 17v4q1 2 1 4q2 5 3 16q2 16 2 18q-4 2 -13 2z" />
    <glyph glyph-name="percent" unicode="%" horiz-adv-x="310" 
d="M173 12q-32 14 -42 57q-2 10 -2 17q0 26 15 43q18 21 43 21q24 0 41 -30q20 -29 20 -63q0 -32 -23 -46q-8 -5 -22 -5q-17 0 -30 6zM205 27q22 0 22 38q0 23 -15 44q-14 20 -31 20q-9 0 -16 -5q-15 -14 -15 -42v-2q0 -34 29 -48q17 -5 26 -5zM164 580q-15 -26 -36 -36
q-8 -2 -11 -2q-34 0 -48 26q-10 18 -10 39q0 32 18 55q9 11 25 18q9 4 22 4q11 0 23 -5q30 -13 30 -45t-13 -54zM132 664q-3 1 -7 1q-24 0 -38 -29q-7 -15 -7 -30v-2q0 -22 16 -37q7 -5 15 -5q20 0 36 32q10 22 10 33q0 31 -25 37zM57 86l102 291q10 25 30 92q17 57 28 85
l49 140q9 12 15 12q2 0 2 -3q0 2 2 2h1l1 -2q-1 -1 -1 -2h2v-3q0 -14 -9 -36l-127 -375l-49 -140q-46 -129 -52 -141q-6 -9 -10 -10h-1q-6 0 -6 8t3 19q1 7 5 21q3 12 7 19q3 12 6 17z" />
    <glyph glyph-name="ampersand" unicode="&#x26;" horiz-adv-x="411" 
d="M163 728q27 0 40 -19q14 -17 14 -62v-9q0 -40 -11 -40l-2 1q-2 1 -3 1q-11 5 -11 34v7v7q0 53 -33 53h-5q-26 -5 -46 -36q-21 -32 -25 -63q-3 -10 -3 -34q0 -26 1 -33q2 -56 17 -80q11 -20 44 -20q9 0 12 1q2 0 13 4q12 3 18 3q14 0 14 -13q0 -6 -5 -10t-13.5 -7.5
t-10.5 -5.5t-12.5 -11t-12.5 -11q-37 -40 -62 -114q-21 -66 -21 -111q0 -31 8 -73q9 -50 44 -60q27 -9 50 -9q28 0 52 8q44 12 60 54q10 27 10 57q0 21 -1 27q-3 18 -10 40q-8 27 -18 39q-2 -3 -8 -15l-7 -14q-18 -29 -57 -29q-20 0 -38 16q-16 15 -16 39q0 18 8 34
q10 15 24 18h3q10 0 10 -12q-2 -7 -8 -11q-11 -5 -11 -26q0 -33 33 -33q10 0 23 11q9 10 16 23q13 27 15 31q2 6 4.5 11t4 8.5t1.5 4.5q16 31 34 48q20 18 48 21h7q19 0 31 -12q20 -16 20 -59q0 -30 -17 -38q-2 -1 -9 -1q-12 0 -23 6q-11 5 -11 11v1q4 9 8 9q2 0 8 -2t9 -2
q14 0 14 19q0 21 -15 36q-8 6 -21 6t-23 -6q-25 -15 -42 -58q6 -10 10 -23l7 -21q22 -52 22 -104q0 -64 -35 -99q-35 -34 -107 -34h-11q-47 0 -73 19q-46 34 -46 141v9q1 74 36 151q16 40 51 89q4 4 4 5q-1 0 -6.5 1.5l-11 3t-8.5 2.5q-39 16 -47 77q-4 25 -4 61
q0 68 37 126q15 21 34 33q19 13 41 13z" />
    <glyph glyph-name="quotesingle" unicode="'" horiz-adv-x="70" 
d="M34 602q0 21 -1 26v13v12v12q0 25 3 28q1 4 5 4q9 0 9 -13q3 -58 3 -99v-27q0 -8 -8 -10q-5 0 -8 7q-3 15 -3 47z" />
    <glyph glyph-name="parenleft" unicode="(" horiz-adv-x="185" 
d="M41 238v2q-1 15 -1 85q0 53 4 93q7 80 30 166q16 60 45 112q6 9 23 26h3q12 0 12 -6q-1 -1 -1 -2q-13 -28 -20 -38q-68 -106 -73 -324q0 -44 -1 -56q0 -74 7 -135q11 -92 83 -158q4 -3 9 -12q5 -10 5 -14q0 -3 -3 -6q-1 -3 -7 -3t-9 3q-45 34 -69 81q-37 71 -37 186z" />
    <glyph glyph-name="parenright" unicode=")" horiz-adv-x="185" 
d="M165 238q0 -115 -37 -186q-24 -46 -70 -81q-3 -3 -8 -3q-6 0 -7 3q-3 3 -3 6q0 9 14 20q70 48 83 164q6 53 6 135q-1 12 -1 56q-5 220 -72 324q-7 10 -20 38l-1 2q0 6 11 6h3q20 -20 24 -26q29 -52 45 -112q23 -86 30 -166q4 -40 4 -93q0 -70 -1 -85v-2z" />
    <glyph glyph-name="asterisk" unicode="*" horiz-adv-x="193" 
d="M82 640l-9 -10l-15 -15q-1 -1 -5 -3q-4 0 -5 1q-5 5 -1 10l6 6l10 13l9 9h-12l-20 2q-7 0 -8 7q0 4 6 7h31l-20 22q-3 3 -4 7q0 3 2 5q1 2 5 1q2 0 19 -14q8 -10 10 -12v14q0 21 2 23q1 3 4 3q7 0 7 -10q2 -26 2 -28q8 8 9 10q17 14 19 14q4 1 5 -1q5 -5 -3 -12l-20 -23
h20q20 -2 22 -4q4 -2 4 -5q0 -7 -12 -7h-35q4 -5 8 -9.5t7 -7t5 -5t3 -4.5l1 -1q2 -7 -1 -10q-6 -2 -10 2l-16 15l-4 5v-9v-21q0 -8 -6 -8q-4 0 -7 5q0 14 -3 38z" />
    <glyph glyph-name="plus" unicode="+" horiz-adv-x="275" 
d="M100 329h-27q-23 0 -27 1q-9 0 -9 8q0 5 7 8l10 2h12h23q12 1 30 1h12v25q0 11 -1 19v18q-2 23 3 28q1 4 4 4q10 0 10 -13q4 -54 4 -66l1 -16h25h37q25 0 29 -4q4 -1 4 -5q-1 -9 -15 -9q-17 -1 -66 -1h-14q0 -8 1 -15v-16l1 -28q1 -16 0 -26q0 -10 -8 -10q-6 -1 -9 7
q-1 2 -1 10q-1 5 -1 11q-1 13 -3 53v14h-32z" />
    <glyph glyph-name="comma" unicode="," horiz-adv-x="100" 
d="M80 30q3 -10 3 -20t-5 -30q-4 -16 -13 -21q-6 -3 -11 -3q-4 0 -7 3q-2 4 -2 7q0 1 6 10q5 9 7 17q0 5 1 6h-5q-10 0 -13 4q-6 13 -6 21q0 7 5 15q4 7 15 7q3 0 11 -2q11 -5 14 -14z" />
    <glyph glyph-name="hyphen" unicode="-" horiz-adv-x="286" 
d="M105 329h-27q-23 0 -27 1q-9 0 -9 8q0 9 7 12l10 2h12h70h41h37q25 0 29 -4q4 -1 4 -9q-2 -9 -14 -9q-17 -1 -67 -1h-66z" />
    <glyph glyph-name="period" unicode="." horiz-adv-x="83" 
d="M60 23q0 -11 -8 -19q-6 -6 -17 -6t-17 8q-4 7 -4 18q0 7 5 15q6 7 16 7q12 0 16 -4q11 -5 9 -19z" />
    <glyph glyph-name="slash" unicode="/" horiz-adv-x="310" 
d="M42 -3h-1q-4 0 -4 9q0 14 8 43q9 31 13 36h-1v1l102 291q10 25 30 92q17 57 28 85l49 140q9 12 15 12q2 0 2 -3q0 2 2 2h1l1 -2q-1 -1 -1 -2h2v-3q0 -14 -9 -36l-126 -375l-49 -140l-14 -44q-13 -41 -25 -69q-12 -29 -23 -37z" />
    <glyph glyph-name="zero" unicode="0" horiz-adv-x="260" 
d="M48 143q-7 46 -7 159v34v41q2 156 2 172q0 72 15 114q13 41 57 46q2 1 10 1q41 0 68 -33q21 -26 30 -67q14 -53 14 -142q0 -6 -0.5 -28.5t-0.5 -38.5v-47v-83q0 -24 -2 -72q-2 -49 -5.5 -80t-14 -64t-32 -49t-54.5 -16q-19 0 -38 17q-16 18 -22 37q-17 53 -20 99z
M120 683q-42 -5 -48 -69q-4 -44 -5 -103q-1 -25 -1 -105q-1 -47 -1 -75q0 -8 1 -12v-12v-25q-1 -11 -1 -27q0 -25 1 -32q3 -58 9 -115q6 -44 21.5 -68.5t35.5 -25.5q22 0 37 13.5t20.5 27.5t11.5 37q7 26 11 105q2 40 2 46q0 53 -0.5 128t-0.5 117q0 57 -8 102
q-18 93 -79 93h-6z" />
    <glyph glyph-name="one" unicode="1" horiz-adv-x="175" 
d="M138 20q1 -22 -8 -22q-10 0 -12 4t-2 17v18v18v20v107v38l1 56v15l1 50v243v15v27v27v20q-46 -51 -73 -73q-4 -4 -11 3q-2 2 -2 7q0 4 1 5q2 4 24 26t34 36l15 15t19 17q2 1 5 1q6 0 8 -11q2 -14 2 -44v-115q0 -99 -1 -159q-1 -61 -1 -160v-115v-54v-32z" />
    <glyph glyph-name="two" unicode="2" horiz-adv-x="257" 
d="M41 575q0 44 13 73q24 54 84 58h6q29 0 56 -15q24 -13 31 -47q2 -22 2 -27q0 -3 -0.5 -9.5t-0.5 -8.5q-5 -66 -55 -215l-63 -196q0 -2 -2 -6t-4.5 -10.5t-4.5 -11.5q-8 -23 -11 -34q-16 -58 -23 -88q0 -4 -1 -7t-1 -6q25 -3 50 -3h65h40q12 0 12 -11q0 -10 -4 -10
q0 -4 -18 -4q-13 -1 -69 -1h-4q-6 1 -22.5 1.5t-24.5 0.5q-20 1 -35 1q-8 0 -13 5q-5 7 -5 13q0 23 9 57q4 16 28 87q17 47 27 81l38 114q3 10 16 46l17 53q27 91 27 92q9 47 9 69q0 19 -4 30q-7 16 -19 26q-13 9 -48 11h-2q-43 0 -63 -44q-12 -26 -13 -59v-3q0 -16 14 -24
q2 0 5 -1q4 -1 5 -1q14 0 36 10q4 1 7.5 -3t3.5 -8q0 -8 -19 -15q-28 -7 -35 -7t-8 1q-29 9 -29 46z" />
    <glyph glyph-name="three" unicode="3" horiz-adv-x="263" 
d="M45 678q35 30 74 30h2q23 0 47 -12q24 -13 39 -33q10 -15 19 -46q4 -18 4 -57q0 -33 -5 -53q-7 -33 -19 -52q-17 -29 -48 -46l-3 -1q5 -2 12 -7l7 -5q34 -22 51 -63q13 -37 16 -61q6 -40 6 -74q0 -19 -1 -25q-3 -68 -29 -121q-11 -22 -30 -41q-23 -18 -49 -20h-5
q-18 0 -36 8q-18 9 -32 25q-22 24 -31 57q-2 11 8 14q12 0 14 -8q9 -28 27 -49q13 -13 25 -19q14 -6 25 -6h3q20 2 36 16t25 33q21 45 26 111v25q0 38 -5 70q-6 35 -15 57q-14 35 -42 53q-22 15 -56 18q-11 3 -10 12q0 11 11 11q21 0 41 10q23 11 38 36q12 19 18 46
q5 23 5 49q0 33 -5 52q-6 23 -17 38q-12 18 -29 26q-16 9 -37 9h-1q-33 0 -58 -23q-8 -8 -16 0t0 16z" />
    <glyph glyph-name="four" unicode="4" horiz-adv-x="259" 
d="M209 707q1 0 3 1h2q6 0 8 -11q2 -14 2 -44v-101q0 -85 -1 -137h15q11 0 11 -9q0 -14 -11 -14h-15v-11q-1 -61 -1 -160v-115v-54v-32q1 -22 -8 -22q-10 0 -12 4t-2 17v18v18v20v107v38l1 56v15l1 50v51h-145h-1q-4 0 -7.5 3.5t-2.5 8.5q2 16 5.5 41t5 44.5t1.5 40.5v10
q-1 63 -14 149q0 11 10 12q6 1 10 -2.5t4 -6.5q12 -85 13 -152v-11q0 -14 -10 -114h131v169v15v25v27l1 40q0 15 6 16z" />
    <glyph glyph-name="five" unicode="5" horiz-adv-x="273" 
d="M44 463q1 13 9 194q2 14 2 26q0 11 15 15h15q18 0 32 -1h20h29h67q11 -2 11 -13q0 -10 -13 -10q-42 0 -75 -1q-15 0 -30.5 0.5t-19.5 0.5h-9h-19q-2 -23 -3 -56t-1 -34q-2 -22 -4 -69.5t-3 -70.5q47 5 52 5q7 0 17 -2q46 -4 79 -35q23 -21 33 -74q7 -40 8 -75q1 -8 1 -25
q0 -36 -6 -72q-9 -65 -26 -106q-27 -60 -87 -60q-4 0 -6 1h-7q-60 8 -74 52q-13 45 -13 119v23q0 21 14 23h1q8 0 8 -18v-29q0 -46 8 -90q10 -44 60 -58q3 -1 11 -1q47 0 67 58q11 28 21 98q6 36 6 69q0 14 -2 38q-6 103 -61 128q-17 9 -36 10h-10q-14 0 -58 -4
q-18 -3 -23 1v43z" />
    <glyph glyph-name="six" unicode="6" horiz-adv-x="282" 
d="M67 366q8 51 51 161q26 72 69 136q19 31 39 40q8 5 11 5q7 0 7 -8q0 -2 -2 -8q-72 -87 -109 -192q-33 -91 -42 -130q-16 -68 -16 -80q42 24 69 24q22 0 41 -8q24 -10 41 -37q19 -32 25 -59q5 -27 5 -59v-12h-1q0 -56 -33 -107q-28 -41 -77 -41q-19 0 -36 7
q-70 26 -72 132v21q0 93 30 215zM176 285q-11 6 -31 6q-8 0 -17 -3q-30 -10 -54 -27q-7 -7 -8 -32q-1 -17 -2.5 -37.5t-2.5 -31.5t-1 -17q0 -26 6 -52q10 -40 33 -60q4 -4 20 -11q8 -4 23 -4q22 0 38 11q36 23 50 90q3 17 3 37q0 39 -9 63q-17 51 -48 68z" />
    <glyph glyph-name="seven" unicode="7" horiz-adv-x="241" 
d="M74 127l108 503q8 42 8 45h-17h-21h-15h-35q-25 0 -47 1q-10 1 -10 11q0 4 4 8l4 2q3 0 4 1q9 1 41 1h102h6h13q6 -2 4 -5q0 -2 -1 -3l-42 -189q-13 -52 -13 -56q-77 -366 -92 -418q0 -13 -3 -19v-1q-5 -11 -14 -11q-12 0 -12 18q0 2 1 4v5q9 19 27 103z" />
    <glyph glyph-name="eight" unicode="8" horiz-adv-x="290" 
d="M137 452q-30 -48 -51 -106q-32 -81 -32 -145v-6q3 -53 23 -111q12 -35 29 -53q11 -11 19 -14q11 -6 19 -6q9 -1 24 4q10 5 20 15q19 21 30 53q18 53 23 111v16q0 76 -35 140q-9 16 -20 32.5t-27 38.5t-22 31zM103 555q7 -15 34 -61q6 9 39 54q32 43 38 62q5 12 5 25
q0 7 -1 10q-2 17 -14 29q-9 9 -29 14q-14 2 -23 2h-11q-18 -2 -26 -5q-13 -4 -22 -13q-10 -10 -13 -29v-7q0 -13 3 -28q6 -25 20 -53zM123 472q-27 42 -41 73q-16 36 -22 57q-4 15 -4 34v10q3 24 21 42q16 15 29 19q10 3 33 6h12q17 0 30 -3q23 -4 39 -20q18 -17 22 -42
q0 -2 0.5 -5.5t0.5 -5.5q0 -15 -6 -33q-10 -28 -42 -69q-6 -8 -21.5 -29.5t-22.5 -32.5q56 -79 75 -113q38 -70 38 -146q0 -4 -0.5 -10t-0.5 -10q-3 -65 -22 -117q-15 -42 -36 -62q-9 -11 -28 -20q-16 -6 -30 -6h-5q-16 2 -29 8q-16 9 -23 17q-24 25 -36 62q-21 59 -22 117
v11q0 70 31 150q23 61 60 118z" />
    <glyph glyph-name="nine" unicode="9" horiz-adv-x="286" 
d="M223 426l-3 -2q-29 -20 -63 -20q-36 2 -63 22q-29 20 -41 50q-14 30 -14 65v6q0 34 13 70t38 58q29 27 66 27h4q33 0 61 -22q36 -29 46 -84q3 -20 3 -40q0 -24 -5 -54q-3 -22 -11 -51q-7 -28 -17.5 -61t-19 -54t-24.5 -61.5t-22 -55.5l-88 -213q-4 -8 -11 -8q-2 0 -4 1
q-6 2 -7.5 7t-0.5 7l88 213q63 160 75 200zM239 486l4 19q4 21 4 49q0 19 -3 37q-8 47 -39 72q-22 17 -46 17h-3q-27 0 -50 -21q-20 -19 -31 -49q-13 -36 -13 -63v-6q0 -26 13 -56q11 -24 34 -42q19 -14 49 -16q27 0 49 15q23 16 31 42z" />
    <glyph glyph-name="colon" unicode=":" horiz-adv-x="118" 
d="M83 479q0 -11 -6 -18q-5 -5 -16 -7q-15 -2 -20 8q-4 7 -4 16q0 8 5 16q6 7 15 7t15 -3q11 -5 11 -19zM83 202q0 -12 -5 -19q-8 -9 -21 -9q-11 0 -15 7q-5 7 -5 19q0 7 5 15q6 7 15 7q10 0 16 -3q10 -4 10 -17z" />
    <glyph glyph-name="semicolon" unicode=";" horiz-adv-x="126" 
d="M79 298q15 -1 13 -20q0 -22 -18 -25q-2 0 -4 -1h-3q-21 0 -21 26q0 7 5 15q6 7 16 7q2 0 12 -2zM79 44q9 -2 12 -14q3 -10 3 -20t-5 -30q-4 -16 -13 -21q-6 -3 -10 -3q-5 0 -8 3q-2 4 -2 7q0 1 6 10q7 12 8 17q0 5 1 6h-5q-11 0 -14 4q-6 13 -6 21q0 7 5 15q6 7 16 7
q2 0 12 -2z" />
    <glyph glyph-name="less" unicode="&#x3c;" horiz-adv-x="192" 
d="M69 348q-5 -4 3 -18l16 -29l25 -37l23 -37q3 -4 11 -14q2 -3 7 -9t7 -9q5 -10 5 -19q0 -2 -2 -6q-3 -4 -6 -4h-1q-11 4 -24 24l-16 25l-8 12l-9 15q-1 2 -3.5 6t-3.5 6l-27 47q-18 28 -19 31q-5 12 -5 13q0 5 6 12l41 61q13 20 22 32l9 13l9 11q5 5 8 12l8 12q2 5 7 7
q4 4 9 4h2q2 -2 2 -5q0 -10 -19 -38l-64 -97l-7.5 -12.5t-5.5 -8.5z" />
    <glyph glyph-name="equal" unicode="=" horiz-adv-x="288" 
d="M110 248h-28q-23 0 -27 1q-9 0 -9 8t7 11l10 2h160q22 0 29 -7q4 -1 4 -5q-2 -9 -14 -9q-17 -1 -67 -1h-65zM110 329h-28q-23 0 -27 1q-9 0 -9 8t7 11q4 2 10 2q5 1 20 1q7 0 23 -0.5t22 -0.5h95q25 0 29 -4q4 -1 4 -8q-2 -9 -14 -9q-17 -1 -67 -1h-65z" />
    <glyph glyph-name="greater" unicode="&#x3e;" horiz-adv-x="192" 
d="M140 348q-3 3 -5 6l-4 8q-1 1 -3 4l-2 3l-65 97l-5 8q-2 2 -5 8l-4 8q-3 8 -3 14q0 3 2 5h2q4 0 8 -4q3 -2 6 -7l8 -12q2 -2 4.5 -6t4.5 -6l9 -11l9 -13q18 -25 23 -32l41 -61q5 -8 5 -11q0 -2 -5 -14q-1 -3 -19 -31l-26 -47l-25 -39l-16 -25l-5 -6l-3 -6l-4 -4l-1 -2
q-1 -1 -1 -2q-2 0 -4 -2q-1 0 -3 -1t-3 -1h-1q-4 0 -5 4q-3 3 -3 6q0 9 5 19q3 6 14 18q2 2 4.5 5t4.5 5.5t3 3.5q28 47 31 52q25 37 32 51q7 13 4 18z" />
    <glyph glyph-name="question" unicode="?" horiz-adv-x="240" 
d="M131 44q12 -2 12 -14v-13q0 -15 -17 -18q-2 0 -3 -1h-4q-12 0 -15 5q-6 13 -6 21q0 7 5 15q6 7 16 7q2 0 12 -2zM131 392q-3 -54 -3 -95q2 -90 2 -176q0 -24 -9 -24h-1q-10 3 -10 9q-4 134 -4 172v31q-1 14 -1 32q0 4 1 21t2 30q2 10 9 38q8 24 35 66q24 37 29 57
q16 32 16 70q0 58 -31 72q-8 3 -14 3q-29 0 -46 -16q-15 -13 -30 -50q-14 -34 -22 -44q-16 0 -16 12l1 6l1 2q1 2 2 6t2 7l5 14q1 4 4 10l6 12q0 1 3 5t4 7q1 2 4.5 6.5t5.5 6.5q3 6 11 14q23 26 60 26q30 0 46 -19q27 -30 27 -74q0 -23 -11 -67q-9 -33 -43 -91
q-35 -62 -35 -79z" />
    <glyph glyph-name="at" unicode="@" horiz-adv-x="389" 
d="M43 335q-2 6 -2 17q0 16 -1 20q0 16 0.5 43t0.5 38q4 50 10 78q6 43 21 75q14 29 39 53q28 23 60 27q4 1 17 1q59 0 110 -63q25 -35 40 -97q11 -59 14 -129q2 -44 2 -80v-24v-24q0 -46 -24 -65q-20 -17 -39 -17h-3q-18 1 -37 20l-5 5q-1 2 -3 4q-16 -10 -46 -10
q-16 0 -24 4q-37 16 -52 91q-5 38 -5 62q0 22 4 39q8 40 39 63q33 24 69 24h10q1 0 4 3v2q1 1 1 4q0 9 9 9t9 -9q0 -37 -1 -50q-1 -26 -1 -111v-27v-25q0 -35 1 -49q0 -7 8 -17q9 -9 22 -9h3q7 0 18 8t14 14q8 21 8 70q0 9 -2 89q-3 58 -14 116q-8 43 -17 63q-17 39 -36 58
q-24 24 -54 33q-12 4 -27 4q-27 0 -45 -15q-43 -36 -61 -111q-16 -61 -16 -142q0 -37 2 -67q4 -73 20 -156q13 -84 42 -120q18 -22 57 -25q4 0 8 -1h7q59 0 100 22q23 14 31 27q8 16 15 51q2 15 6 21q5 4 12 -3q6 -8 6 -21q0 -12 -3 -21q-9 -36 -25 -54q-33 -34 -109 -43
q-24 -2 -27 -2q-50 0 -81 21q-61 37 -79 308zM240 344v24v70v11v9v10q-14 2 -17 2q-21 0 -44 -13q-21 -15 -29 -32q-15 -28 -15 -69q0 -16 1 -20q5 -38 11 -53q11 -29 23 -43q11 -13 35 -13h3q12 0 21 6q10 8 10 20v2l1 24v3v15v21v26z" />
    <glyph glyph-name="A" unicode="A" horiz-adv-x="307" 
d="M178 679l48 -265q1 -8 25 -136q7 -42 14.5 -80t11 -56t3.5 -20q2 -3 9 -45q3 -16 7.5 -37.5t5.5 -26.5q3 -10 -2 -15q-2 -2 -4 -3t-5 -1q-8 0 -11 11l-8 38q-3 15 -9 48q-84 2 -104 2h-12h-18q-55 0 -69 1l-17 -91q-3 -9 -11 -9h-4l-2 1q-2 1 -2 2q-4 4 -4 14
q2 17 21 109q0 3 2.5 15.5t7.5 40.5t10 57q25 141 31 160q15 68 28 148l24 136q4 14 7 19q5 5 9 6q4 0 7 -1q3 -2 5 -5q5 -11 6 -17zM66 116h39h39h114q-19 92 -32 164q-3 13 -6 35q-3 25 -6 37q-36 200 -37 202t-7 44q-3 26 -8 53l-11 -55q-7 -35 -9 -44l-48 -274l-16 -89z
" />
    <glyph glyph-name="B" unicode="B" horiz-adv-x="286" 
d="M63 18q8 -2 17 -2q18 0 33 3q22 3 53 17q28 18 39 31q21 26 29 56q8 28 8 51v9q-2 69 -10 106q-10 44 -35 71t-67 27q-51 0 -65 -1v-55v-116q0 -29 1 -55v-58q0 -27 -3 -84zM66 409h2h9q16 2 32 14q18 11 47 38q22 22 35 45q17 31 17 80v11q0 12 -2 28q-6 26 -28 41
q-22 14 -56 17h-14q-7 0 -39 -2l-6 -4v-3q0 -29 0.5 -54t1.5 -38l1 -14v-81v-38v-16v-24zM67 -10q-29 0 -29 10q1 0 1 7v7q0 34 1 60q1 27 1 60v20q-1 10 -1 21v30v84q0 51 -1 63v46q1 19 1 43q0 15 -0.5 63.5t-0.5 82.5q-2 61 -2 110q17 8 45 9q9 1 36 1q34 0 58 -11
q42 -16 51 -59q5 -22 5 -52q0 -19 -3 -34q-4 -32 -24 -67q-19 -29 -73 -71l6 -3q46 -8 70 -27q28 -24 42 -69q4 -14 9 -40q4 -22 6 -58v-11q0 -62 -8 -90q-8 -31 -27 -56q-38 -48 -99 -63q-25 -6 -64 -6z" />
    <glyph glyph-name="C" unicode="C" horiz-adv-x="263" 
d="M34 443q0 116 6 158q1 7 2.5 17t2.5 14q3 10 9 21q6 12 18 24q27 27 74 28h5q37 0 57 -26q13 -16 21 -48q7 -27 8 -38q0 -2 1 -4v-4q0 -15 -12 -15q-4 0 -5 1q-2 0 -3 1t-1 3q-1 1 -1 2q-1 2 -1 3v4q-1 2 -1 5q-3 12 -5 23q-3 21 -6 27q-13 44 -60 44q-24 0 -39 -9
q-16 -9 -24 -28q-9 -17 -12 -34q-5 -18 -8 -38q-3 -24 -3 -123q0 -56 -1 -71v-21v-90v-76q0 -55 3 -79q6 -51 20 -71q19 -32 68 -32q45 0 59 36q8 17 12 52q5 19 12 19q12 -2 12 -15q0 -2 -1 -7.5t-3.5 -17t-4.5 -21.5q-8 -32 -21 -48q-18 -22 -56 -22h-5q-51 2 -79 24
q-26 31 -32 76q-5 40 -5 120v27q-1 12 -1 27v15v112v55z" />
    <glyph glyph-name="D" unicode="D" horiz-adv-x="273" 
d="M219 589q12 -26 20 -57q6 -29 9 -61q3 -33 3 -64v-27q0 -126 -30 -221q-20 -64 -48 -102q-45 -59 -119 -64h-3q-1 -1 -3 -1q-4 0 -4 5v2v8v21v8v107q0 91 -0.5 254t-0.5 254v46q0 3 1 3q7 7 21 7q7 0 29 -5q83 -23 125 -113zM113 672q-25 9 -45 9v-13q0 -50 -0.5 -145
t-0.5 -144q0 -93 1 -170v-71v-102v-20q33 4 62 29q70 67 90 204q9 69 9 112q0 15 -0.5 33.5t-0.5 31.5q-3 70 -15 118q-5 16 -9 27q-5 14 -11 24q-41 65 -80 77z" />
    <glyph glyph-name="E" unicode="E" horiz-adv-x="221" 
d="M68 121q2 -70 3 -96h27h88q17 0 17 -11q0 -10 -13 -13q-10 -2 -23 -2h-8h-7h-47q-12 0 -24 -1q-10 -1 -25 -1h-4q-3 0 -5 2q-1 1 -1 10v5v31q-1 15 -1 35v26q0 54 -1 69l-1 78q-1 46 -1 209v75v26v27v24v78q0 6 12 6h17h8h89h7h2h5q9 0 14 -1q7 -2 7 -9q0 -4 -4 -7
q-2 -2 -9 -4q-8 -2 -10 -2q-9 -1 -54 -1h-35h-26v-17v-22q0 -121 1 -121h6h11q3 1 17.5 1.5t20.5 0.5q25 0 31 1q8 0 12 -7q3 -8 -2 -13q-2 -2 -17 -4q-5 -1 -29 -1q-25 0 -49 -3v-24v-227v-15q0 -42 1 -102z" />
    <glyph glyph-name="F" unicode="F" horiz-adv-x="245" 
d="M203 698q23 0 23 -13v-1q0 -6 -14 -8h-14h-35h-6h-73h-15q-1 -14 -1 -56q-1 -34 -1 -195h38h6h64q5 0 11 -2q12 -5 12 -12q0 -11 -15 -11h-71h-30h-15q-1 -1 -1 -7v-204v-129v-22q1 -11 1 -24q0 -4 -2 -12q-5 -8 -7 -8q-9 0 -12 10q-2 8 -2 23v10v10q-1 14 -1 65v61
l-1 67v59q0 73 1 131v124v28q1 13 1 32v19v43v21q1 1 27 1h23h9h100z" />
    <glyph glyph-name="G" unicode="G" horiz-adv-x="300" 
d="M52 130q-4 18 -8 89q-2 58 -2 82v68q0 27 3 69q7 134 32 200q29 63 88 71q26 0 44.5 -10t23 -16.5t14.5 -22.5q4 -6 10 -16q7 -14 7 -21q0 -9 -7 -13q-3 -3 -7.5 3t-9.5 17l-10 15q-1 1 -5 7t-5.5 8t-6 7t-8 7.5t-9.5 5.5t-13.5 4t-15.5 1q-30 0 -51 -29q-22 -33 -31 -67
q-18 -84 -18 -163q-1 -25 -2 -53.5t-1.5 -43.5t-0.5 -22q0 -13 1.5 -42t1.5 -34l7 -90q7 -52 32 -92q19 -32 54 -32q10 0 13 1q37 8 53 42q12 18 16 55q4 22 6 101q1 20 1 80v27v3h-5q-14 -1 -33 -1q-9 0 -16.5 0.5t-8.5 0.5q-8 0 -13 8q-1 1 -1 4q0 11 13 11q30 1 80 1
q9 0 9 -11v-2q-2 -28 -2 -66v-12q0 -138 -13 -184q-13 -51 -52 -70q-28 -15 -52 -15h-7q-39 5 -60 39q-22 31 -35 101z" />
    <glyph glyph-name="H" unicode="H" horiz-adv-x="321" 
d="M269 688q0 10 10 12h2h2q8 0 9 -7q-1 -19 -1 -62q0 -45 1 -84q1 -37 1 -89q-1 -19 -1 -68q0 -121 1 -178v-181q-1 -33 -11 -33l-2 1q-10 2 -12 13q0 107 1 194v187v50q0 11 -1 16h-9h-167h-23q-1 -23 -1 -104v-295v-13v-10v-9q0 -32 -11 -32q-8 0 -9 4q-5 22 -5 106v548
v12q0 34 14 34q11 0 11 -11v-36q-1 -15 -1 -35q0 -30 -1 -57v-60v-17q2 -3 17 -3h25h21h34h105q1 30 1 107v49v51z" />
    <glyph glyph-name="I" unicode="I" horiz-adv-x="99" 
d="M44 52v89v38q0 38 1 65v62q0 46 -1 65v45v107v34v83v53q0 16 9 16h1q1 -1 2 -1q4 -1 7 -9q3 -9 3 -19v-27v-53v-15v-32v-38v-35v-14v-32q1 -18 1 -61v-62q-1 -28 -1 -65v-23v-113v-86v-10q0 -18 -6 -18h-4q-12 0 -12 32v19v5z" />
    <glyph glyph-name="J" unicode="J" horiz-adv-x="257" 
d="M122 -10q-32 0 -48 12q-16 13 -27 43t-15 78q0 7 8 9q1 1 6 1q10 0 10 -18q1 -25 10 -54q14 -48 47 -48h4q45 2 61 42q9 20 17 81q9 77 9 197v56q0 176 -2 284v5v5q0 22 9 22q2 0 7 -5q3 -6 3 -9q3 -5 3 -28v-22q0 -6 0.5 -38.5t0.5 -59.5q2 -45 2 -99v-21q-1 -9 -1 -21
v-47q-2 -105 -5 -150q-5 -81 -14 -132q-15 -80 -85 -83z" />
    <glyph glyph-name="K" unicode="K" horiz-adv-x="281" 
d="M153 344q-13 39 -36 90q-4 8 -14 10q-4 -1 -35 -6v-26v-145v-255q0 -12 -3 -14q-2 -2 -6 -2h-4q-8 3 -11 10q-2 6 -2 16v16q0 57 1 113v123v138q-1 59 -1 129v77q0 58 1 70q2 14 7 14q4 0 6 -2q10 -8 10 -24v-4v-22v-11q1 -18 1 -82v-89q69 0 104 32q28 28 36 46
q28 63 35 128q1 19 10 19q10 0 10 -24q-2 -31 -10 -63q-13 -58 -31 -85q-11 -17 -36 -42q-5 -5 -27 -17q-20 -10 -23 -10q37 -72 49 -140q3 -13 13 -100q6 -77 18 -116q20 -66 50 -71q8 0 8 -14q0 -15 -13 -11q-7 1 -19 10q-10 7 -16 15q-35 44 -46 125q-2 12 -5 49
q-1 4 -4 41q-3 35 -6 56q-7 36 -11 48z" />
    <glyph glyph-name="L" unicode="L" horiz-adv-x="207" 
d="M41 672q0 31 14 31q8 0 8 -31q0 -46 2 -84v-562q26 -2 68 -2q43 0 54 1q12 0 12 -13q0 -12 -39 -12q-9 -1 -34 -1q-22 0 -37 1h-39q-9 0 -9 4v668z" />
    <glyph glyph-name="M" unicode="M" horiz-adv-x="375" 
d="M42 474v87v99v10q0 30 10 30h4q10 0 14 -3q10 -8 17 -30l108 -330q1 -2 3 -8t3 -8q4 9 11 34l43 153l45 156q11 37 30 37q6 0 13 -7q3 -6 3 -18v-3q0 -65 -1 -114v-128v-109v-115v-41v-45v-45v-44q0 -36 -15 -36q-9 2 -9 16v7l2 138v152v78v19q0 14 0.5 33.5t0.5 25.5
q0 133 1 202l-47 -167q-65 -231 -78 -233h-1q-6 0 -14 24q-4 14 -11.5 42t-8.5 32l-29 86q-39 112 -45 134q-13 43 -21 65l-1 4q-1 3 -3 6q-1 2 -2 5t-2 4v-30v-48v-24v-39v-62v-67v-107q0 -67 1 -82v-57v-133q0 -14 -8 -19q-1 -1 -3 -1t-8 12q-2 8 -2 23v92v59v60v54v61
v113z" />
    <glyph glyph-name="N" unicode="N" horiz-adv-x="336" 
d="M285 515v57v114q0 14 9 15q2 0 3 1h2q7 0 9 -11q1 -10 1 -41v-62v-29q-1 -19 -1 -56v-37v-47q0 -88 -1 -161v-113v-56v-65q0 -10 -6 -16q-5 -6 -9 -6h-1q-9 1 -15 18l-209 628v-58v-24v-34v-13l2 -214l-1 -186q0 -54 2 -110q0 -9 -4 -13q-4 -6 -8 -6q-1 -1 -3 -1t-10 11
v5q-1 2 -1 5v43q0 58 -1 103v102v75v19v58v19v50v68q0 17 0.5 69t0.5 73v2q0 12 9 12h7q14 0 60 -132l95 -288q50 -162 52 -167l5 -20q1 -3 2.5 -7t3 -6.5t1.5 -4.5q3 -7 5 -7v40v86v35q0 80 1 142v141z" />
    <glyph glyph-name="O" unicode="O" horiz-adv-x="283" 
d="M112 673q-21 -17 -29.5 -35.5t-14.5 -53.5q-8 -53 -10 -139q-1 -28 -1 -87v-86q0 -58 1 -72q1 -20 13 -91q8 -41 29 -69t42 -28h12q24 0 43.5 27t27.5 70q12 71 13 91q1 14 1 72q0 92 -3 150q-5 126 -11 162q-6 37 -13 54.5t-28 34.5q-16 13 -37 13q-19 0 -35 -13z
M98 695q21 15 45 15q31 0 55 -15q13 -9 22 -21.5t14 -22t9 -31t5 -33t4 -45t4 -50.5q0 -1 3 -82q3 -48 3 -117q0 -83 -6 -145q-11 -83 -43 -124q-25 -33 -65 -33t-65 33q-32 41 -43 124q-6 62 -6 145q0 102 2 151q4 114 13 166q10 57 49 85z" />
    <glyph glyph-name="P" unicode="P" horiz-adv-x="246" 
d="M63 333v-12v-8h5q37 0 80 45q34 33 45 61q13 42 13 81q0 33 -7 71q-14 74 -58 93q-31 14 -70 14h-5v-37q0 -1 -0.5 -5.5t-0.5 -6.5q1 -37 1 -104q0 -51 -1 -93q-2 -84 -2 -99zM63 286v-20v-57q2 -50 2 -58v-27q0 -21 1 -38v-37v-37q0 -10 -5 -13q-3 -3 -8 -2
q-11 2 -11 16v75v142v181q0 70 1 127v128v12q0 21 1 24q3 1 22 1q34 0 52 -5q62 -14 88 -66q21 -46 21 -140v-13q0 -82 -55 -137q-28 -31 -77 -49q-8 -3 -32 -7z" />
    <glyph glyph-name="Q" unicode="Q" horiz-adv-x="277" 
d="M132 702q32 0 56 -19q28 -21 40 -66q12 -43 19 -159q4 -92 4 -137q0 -55 -2 -83q-2 -39 -8 -96q-4 -34 -15 -72q-11 -37 -36 -60q4 -12 6 -21q1 -3 2.5 -8t1.5 -7q2 -6 5 -9q2 -2 5 -2q1 0 2 1h2q9 6 17 -2q4 -12 -4 -16q-6 -6 -19 -6q-11 0 -19 7q-9 7 -13 19
q-2 5 -4 19q-2 5 -3 12q-17 -9 -36 -9q-24 1 -44 14q-18 13 -30 33q-17 32 -21 83q-3 33 -3 64q0 10 0.5 31t0.5 31q0 18 -1 52t-1 49v46q0 59 3 89q9 110 17 142q8 34 29 57q20 22 49 23zM100 663q-14 -15 -22 -48q-10 -39 -18 -135q-4 -39 -4 -87q0 -7 0.5 -22.5
t0.5 -23.5q2 -68 2 -104v-62q0 -41 2 -63q4 -45 20 -74q10 -17 22 -26q16 -10 31 -10q11 0 24 5l-6 6q-17 12 -32 16q-4 0 -7.5 3.5t-1.5 10.5q3 12 14 8q25 -4 43 -19q6 -4 9 -9q18 18 27 45q8 28 13 68q6 57 8 95q2 28 2 82q0 46 -4 138q-7 113 -17 154q-12 38 -33 54
q-17 14 -41 14q-19 -1 -32 -16z" />
    <glyph glyph-name="R" unicode="R" horiz-adv-x="283" 
d="M43 16q-1 3 -1.5 11.5t-0.5 12.5v30v40v64v91q0 76 1 101v50v15v32v9q0 39 -2 86q0 27 -0.5 46t-0.5 27q0 63 4 67q11 1 19 3q28 4 40 4q52 0 88 -13q32 -12 50 -43q20 -38 20 -94q0 -23 -6.5 -43t-12.5 -32t-26 -28.5t-27 -22t-37 -24t-37 -22.5l3 -3q8 -3 15 -27
q10 -39 10 -101q1 -5 2 -34t1 -34q4 -63 13 -97q8 -31 27 -50q13 -9 25 -11h5q27 0 34 24q1 2 1 10t-3 20q-3 14 -3 18q0 6 2 8q4 4 6 4q5 0 13 -11q7 -13 9 -31q0 -17 -4 -29q-3 -13 -12 -23q-10 -10 -27 -13q-5 -2 -17 -2q-20 0 -36 10q-25 15 -38 57q-11 30 -14 65
q-3 33 -4 47v41t-2 67.5t-7 47.5q-5 15 -12 24q-8 8 -12 8h-3q-1 0 -19 -9v-21v-60v-45v-92v-29v-62v-34q0 -12 -7 -17q-2 -1 -6 -1h-3q-5 2 -8 18zM62 604q1 -64 2.5 -115t2.5 -73t1 -29q2 0 9 4q2 1 26 13.5t29 15.5t25.5 15.5t26.5 18.5t20 19.5t18.5 24t9.5 26t5 31.5
q0 58 -23 87q-31 40 -119 40q-17 0 -32 -3q-1 -5 -1 -26v-31v-18z" />
    <glyph glyph-name="S" unicode="S" horiz-adv-x="257" 
d="M79 509q23 -65 71 -157q42 -77 67 -147q6 -17 7 -21q4 -15 7 -38q2 -20 2 -29q0 -23 -3 -43q-1 -13 -11 -37q-9 -23 -26 -35q-20 -14 -51 -14q-32 0 -61 20q-35 25 -38 82q-1 9 -1 19v19v22v20q2 18 14 18h2q8 -2 8 -18v-20q0 -30 2 -60q4 -54 41 -72q12 -6 30 -6h12
q18 3 27 10q12 7 18 19q5 13 11 35q4 20 4 43q0 12 -2 32q-3 18 -27 75q-27 67 -56 120q-29 52 -56 118q-30 71 -30 137q0 24 4 39q7 40 36 55q24 12 58 12q21 0 44 -9q19 -8 32 -25q18 -27 19 -76v-34q0 -6 -4 -10q-3 -4 -7 -4q-2 0 -6 4q-5 8 -6 43q-1 29 -10 52
q-9 18 -25 25q-17 9 -40 9q-24 0 -39 -8q-18 -8 -25 -27q-8 -22 -8 -45q0 -41 16 -93z" />
    <glyph glyph-name="T" unicode="T" horiz-adv-x="243" 
d="M190 673l-52 -1v-75q0 -172 -1 -292v-258v-24q0 -10 -2 -20q-3 -10 -8 -10q-13 0 -13 22q1 30 1 206v116q-1 51 -1 109v50v1v65v30v29q0 40 -1 52l-5 -1h-14h-19h-22l-15 1q-18 2 -18 11v1q0 9 15 9h48q12 1 58 1h81q5 0 11 -3q5 -5 5 -6q0 -7 -12 -10t-36 -3z" />
    <glyph glyph-name="U" unicode="U" horiz-adv-x="336" 
d="M191 -5q-38 0 -68 14q-37 18 -55 56q-18 33 -25 75q-6 31 -8 70q-2 90 -2 173q0 106 1 181v33v43q0 39 1 44q2 14 9 14h2q9 -3 10 -30q1 -7 1 -35v-20v-15v-51v-84q-1 -39 -1 -87q0 -104 3 -162q0 -22 4 -54q5 -28 19 -68q14 -35 47 -58q23 -13 43 -16q5 -1 19 -1
q29 0 47 15q14 11 23 34q9 21 12 38q5 25 7 48q5 75 7 181l1 45v41v48v46v42v89v14q0 8 2 24q4 16 7 16q5 0 9 -15q3 -13 3 -48q1 -25 1 -79q0 -8 -0.5 -29t-1 -61t-0.5 -78v-40v-40q0 -53 -2 -113q-4 -82 -15 -121q-23 -79 -100 -79z" />
    <glyph glyph-name="V" unicode="V" horiz-adv-x="310" 
d="M181 32q-10 -40 -17 -40q-8 0 -23 71q-2 11 -31 171l-14 79l-49 274q-1 7 -4.5 24.5l-5.5 27.5q-10 34 -10 49q0 8 7 12q2 1 6 1q6 0 9 -8q0 -2 2 -11t5.5 -25.5t6.5 -35.5q15 -79 19 -104q16 -84 17 -88q12 -54 32.5 -187t32.5 -187l29 164l13 69l12 66l3.5 17.5
t3.5 19.5q2 7 4 19.5t3 16.5l17 88q5 35 18 99q3 16 7 34l6 27t2 13q2 8 7 10q6 3 9 -1q6 -6 4 -17l-18 -95q-5 -22 -26 -143q-23 -127 -24 -131l-16 -77q-4 -21 -13 -69z" />
    <glyph glyph-name="W" unicode="W" horiz-adv-x="450" 
d="M160 -1q-3 2 -5 5q-6 15 -7 18q-6 48 -11 75l-18 103l-19 94q0 5 -3 21t-9.5 52.5t-11.5 68.5l-26 134q-2 3 -9 45q-3 16 -7.5 37.5t-5.5 26.5v3q0 16 11 16q8 0 11 -11q0 -2 1 -7.5t2.5 -14t3.5 -16.5q2 -9 5.5 -25.5t4.5 -22.5q22 -102 33 -173q2 -16 6 -37
q6 -29 7 -36q36 -198 37 -201q4 -15 6 -37q2 -11 4.5 -26.5t3.5 -19.5q4 6 6 11q0 2 1 4t1.5 3.5t1 4.5t1.5 5l5 15q2 8 23 72q14 39 19 57q2 8 9 29t9 31q7 32 15 34q4 1 9 -5q2 -3 4 -11q3 -26 19 -131q8 -45 23 -113q6 35 18 84l48 274l16 88l14 75l17 91q3 9 11 9h4
l2 -1q2 -1 2 -2q5 -5 3 -14q-7 -40 -21 -109q-6 -25 -46 -253l-18 -102l-19 -106l-15 -82q0 -8 -4 -17q-4 -8 -8 -10h-2q-1 -1 -2 -1q-5 0 -12 16q-4 9 -11 49q-19 88 -29 148v2q-1 1 -1.5 3.5t-0.5 5.5q-2 14 -4 19q0 3 -0.5 7.5t-0.5 5.5l-13 -46l-20 -61l-17 -52l-24 -78
q-3 -21 -17 -21z" />
    <glyph glyph-name="X" unicode="X" horiz-adv-x="290" 
d="M153 319l-30 -96l-30 -102q-3 -9 -33 -109q-4 -16 -12 -16h-4q-8 0 -8 11q14 55 16 63l10 35l11 36l66 223l-17 70q-6 18 -13 46q-3 11 -29 100q-2 8 -15 51q-16 52 -17 56q-1 3 -1 10q1 4 11 4t14 -13q2 -9 18 -62q7 -26 22 -74l41 -143l40 148q2 5 6.5 21.5l7.5 27.5
q14 47 22 81q1 5 8 10q5 3 10 3q10 0 5 -17q-4 -12 -8.5 -30.5t-7.5 -29.5l-12 -38q-18 -66 -28 -105q-5 -22 -13 -46l-18 -70l66 -223l11 -36l10 -35q1 -4 2 -8.5t2 -7.5l1 -2l11 -45q0 -11 -8 -11h-4q-8 0 -12 16q-30 100 -33 109l-30 102z" />
    <glyph glyph-name="Y" unicode="Y" horiz-adv-x="277" 
d="M123 432q-7 20 -42 111t-53 142q-1 3 -1 10q1 4 9 4q11 0 15 -13q28 -80 84 -223q99 195 111 224q1 6 7 10q5 3 11 3q5 0 5 -7q0 -4 -1 -6q-17 -45 -63 -134.5t-59 -117.5l-1 -287v-27v-26v-28q0 -30 1 -39v-6q0 -21 -9 -24h-2q-7 0 -12 24v310v100z" />
    <glyph glyph-name="Z" unicode="Z" horiz-adv-x="272" 
d="M141 401l7 21q1 4 4 11t4 10l24 74q2 6 8 22.5t9 24.5q8 20 19 53l7 23q7 17 9 30l-43 -1h-141q-7 2 -8 5q-3 4 -3 8q0 7 23 9q9 1 50 1h23h17h27h48h8h10q17 0 17 -3q0 -17 -4 -30q-4 -18 -10 -30q-7 -18 -9 -26q0 -1 -2 -5.5t-5 -12.5l-6 -16l-23 -65q-21 -61 -23 -67
l-61 -204q-8 -28 -16.5 -56t-13 -43t-5.5 -21q-8 -41 -16 -86q20 -1 63 -1h30h34h12h12h12q27 -2 27 -16q0 -9 -12 -9h-3h-41h-73h-83q-6 0 -6 12q0 4 11 59q4 15 5 22q4 18 4 19q36 137 83 288z" />
    <glyph glyph-name="bracketleft" unicode="[" horiz-adv-x="181" 
d="M59 707q72 -2 86 -2q13 -1 15 -8q0 -9 -17 -11q-12 -2 -33 -2h-18h-16q-3 0 -9 -3q-1 -3 -1 -37q0 -37 1 -50v-17v-10q0 -140 1 -232v-216v-43q1 -19 1 -44v-9q0 -16 1 -19q6 -2 7 -2h16h18q21 0 33 -2q17 -2 17 -11q-1 -5 -15 -7q-14 0 -86 -2h-4q-6 0 -8 2t-2 10v6
q-1 2 -1 10v15v283v210v55v112v11q0 9 2 11t8 2h4z" />
    <glyph glyph-name="backslash" unicode="\" horiz-adv-x="308" 
d="M284 -3q-9 9 -18 30q-10 21 -16 43l-16 46q-2 8 -10 31l-49 140l-125 375q-12 33 -12 36v3h2l-1 2q0 2 1 2h1q2 0 2 -2q0 3 2 3q5 0 14 -12l50 -140q6 -16 27 -85q17 -55 31 -92l101 -291v-1h-1q5 -7 14 -36q8 -29 8 -43q0 -9 -4 -9h-1z" />
    <glyph glyph-name="bracketright" unicode="]" horiz-adv-x="186" 
d="M139 707h4q7 0 9 -2t2 -11v-11v-112v-55v-210v-283v-15q0 -8 -1 -10v-6q0 -8 -2 -10t-9 -2h-4q-74 2 -86 2q-13 1 -14 7q0 10 16 11q12 2 34 2h17h17q1 0 7 2v12q1 6 1 16q0 25 1 44v43v216q1 92 1 232v10v17q1 13 1 50q0 34 -1 37q-6 3 -9 3h-17h-17q-22 0 -34 2
q-16 1 -16 11q2 7 14 8q12 0 86 2z" />
    <glyph glyph-name="asciicircum" unicode="^" horiz-adv-x="246" 
d="M131 771q5 2 8 0l3 -1q3 -2 7.5 -5.5t9.5 -6.5q1 0 5 -3.5t14 -11.5l20 -16q3 -3 6.5 -6t5.5 -5l2 -1q7 -10 -1 -15q-8 -4 -15 1q-2 2 -16 14l-16 14q-2 1 -3.5 2.5l-2.5 2.5l-2 2t-2 1q-15 13 -20 15q-21 -14 -64 -50q-11 -9 -18 -5q-5 2 -5 6q-2 6 3 9l24 19q1 1 22 18
q16 11 35 22z" />
    <glyph glyph-name="underscore" unicode="_" horiz-adv-x="293" 
d="M112 -23h-28q-23 0 -27 1q-9 0 -9 9q0 5 7 8q2 1 11 1q5 1 11 1q12 0 23 1h30h30q13 -1 28 -1h37q25 0 29 -4q4 -1 4 -5q-2 -10 -14 -10q-17 -1 -67 -1h-65z" />
    <glyph glyph-name="grave" unicode="`" horiz-adv-x="95" 
d="M83 707q5 -12 -6 -17q-6 0 -12 6t-10 15q-1 1 -5 8q-5 9 -6 11q-9 14 -11 22q-3 11 1 16q3 4 9 4q6 -2 7 -5l9 -15l13 -25q1 -4 6 -10z" />
    <glyph glyph-name="a" unicode="a" horiz-adv-x="330" 
d="M123 561q16 92 22 119q9 30 12 30h1q7 -1 18 -42q9 -38 35.5 -157.5t36.5 -164.5q5 -25 33 -141q7 -25 18 -74t15 -64q2 -7 7.5 -29t6.5 -30q0 -12 -11 -12q-4 0 -7 5.5t-6 16t-5.5 20.5t-5 23.5t-4.5 20.5q-16 63 -17 66q-82 -3 -158 -3h-26h-16q-9 -42 -11 -52
q-13 -69 -18 -87q0 -2 -2 -6q-4 -9 -10 -5q-3 3 -5 11v9q1 25 11 67q11 46 24.5 121t31 182t30.5 176zM184 545q-5 21 -10 50t-6 35q-5 22 -8 25l-26 -148q-10 -65 -29.5 -171.5t-25.5 -142.5l-1 -8l-2 -15q13 -2 72 -2q46 0 118 4l-34 145q-11 58 -48 228z" />
    <glyph glyph-name="b" unicode="b" horiz-adv-x="273" 
d="M129 427q-1 0 -1 -1l-2 -2q31 0 54 -13q35 -16 58 -81q10 -32 14 -68q4 -48 4 -76q0 -70 -22 -119q-26 -53 -70 -68q-22 -9 -86 -12q-9 0 -12 1q-1 0 -3 0.5l-4 1t-3 1.5q-4 1 -7 7q-3 3 -3 12q-1 29 -1 131v67q0 110 -2 198q0 89 -1 152t-1 145v3h1q1 0 1 1q8 2 18 2h9
h9h13q64 0 103 -18q40 -17 46 -52q1 -4 1 -14q0 -71 -113 -198zM77 686h-11v-26v-14v-7v-13v-26q0 -156 3 -199q26 20 47 49l3 3q0 1 2 3t24 29q24 26 54 76q18 29 18 59q0 12 -2 17q-5 20 -33 36q-23 14 -56 14q-34 0 -49 -1zM67 22v-5q0 -3 1 -4q9 -3 20 -3q32 0 66 14
q52 19 69 80q1 3 7 43q2 34 2 40q0 33 -3 61q-3 37 -12 67q-5 18 -13 35q-13 25 -30 36q-19 16 -42 16q-3 0 -13 -2q-18 -5 -49 -26v-46v-99v-10q0 -50 -2 -105v-45.5t-0.5 -33.5t-0.5 -13z" />
    <glyph glyph-name="c" unicode="c" horiz-adv-x="237" 
d="M129 14q33 0 52 19l9 8q7 9 14 11q4 3 9 3q4 0 5 -1q2 -8 2 -10v-3q-3 -20 -25 -32q-28 -19 -57 -19h-3q-42 0 -60 23t-26 76q-5 38 -6 81q-2 68 -2 82v59q1 27 1 61q0 52 -1 67v34q0 5 2 87q4 52 11 77q18 67 71 69q61 0 88 -19q6 -4 7 -9q-1 -10 -8 -12h-3
q-8 2 -25 6.5t-26 6.5q-16 2 -23 2q-21 0 -33 -9q-18 -12 -28 -55q-11 -44 -11 -127v-22q2 -52 2 -103q0 -131 3 -197q5 -74 10 -97q12 -57 49 -57h2z" />
    <glyph glyph-name="d" unicode="d" horiz-adv-x="274" 
d="M245 473v-134q0 -15 0.5 -38.5t0.5 -30.5v-87v-16v-7q0 -38 -17 -69q-19 -36 -79 -69q-51 -30 -93 -30q-2 0 -5 1h-5q-4 0 -4 246v156q1 60 1 92v25q0 45 -1 57v25v26v25v17v17v16q0 8 8 8h4h1q50 -2 75 -11q26 -9 46 -23q25 -18 42 -51q15 -25 20.5 -53t5.5 -92z
M223 391q0 58 -1 74l-1 48q-3 56 -20 91t-49 52q-49 25 -86 26v-10v-10v-12v-42q1 -19 1 -41v-356v-99q0 -9 0.5 -39.5t0.5 -40.5v-8l1 -9q25 7 44 14q33 12 64 42q31 31 35 40q11 23 11 77q0 14 0.5 58.5t0.5 71.5q0 49 -1 73z" />
    <glyph glyph-name="e" unicode="e" horiz-adv-x="271" 
d="M150 707q65 0 86 -76q5 -21 7 -92q0 -2 0.5 -9t0.5 -22v-37q0 -75 -6 -81q-7 -6 -52 -6q-13 0 -42.5 1.5t-37.5 1.5q-17 0 -21 -0.5t-16 -0.5v-32q0 -13 -0.5 -52.5t-0.5 -62.5v-50q0 -52 6 -90q8 -49 36 -72q16 -13 40 -13q16 0 30 6q37 17 41 86v13l-1 37q3 15 13 15h1
q10 0 10 -13v-36q0 -50 -9 -74.5t-39 -46.5q-14 -10 -48 -10q-31 2 -47 12q-39 23 -51 88q-7 38 -7 113v12q1 53 1 130v111v69q2 78 12 112q7 23 17.5 38t26 21t24 7.5t26.5 2.5zM67 469q0 -27 1 -59h36q9 0 33.5 -1.5t32.5 -1.5q40 0 48 6q3 4 3 47v59q-1 67 -3 83
q-4 34 -22 57t-50 23q-41 0 -62 -41q-15 -26 -17 -110v-62z" />
    <glyph glyph-name="f" unicode="f" horiz-adv-x="226" 
d="M211 689q0 -12 -16 -12q-83 0 -123 -3q-1 -10 -1 -47v-22v-24v-65v-26v-15q16 1 97 1q15 0 15 -8q0 -9 -4 -12q-6 -2 -22 -2h-48h-9q-5 0 -13 -1q-3 0 -7 -0.5t-6.5 -1t-3.5 -0.5q-1 -20 -1 -95v-98v-10q-1 -4 -1 -10v-26q0 -17 -0.5 -38.5t-1 -32.5t-0.5 -17v-21
q0 -17 -1 -33v-35v-20v-3q0 -16 -12 -16h-1q-9 0 -9 14q-1 9 -1 49q0 11 1 52t1 71q2 224 2 265q0 59 1 83v10v41v64v10v14q0 29 4 30h29q27 0 46 1h42h11h9q13 0 19 -3q4 -3 4 -8z" />
    <glyph glyph-name="g" unicode="g" horiz-adv-x="285" 
d="M165 703h4q41 0 63 -25q14 -14 26 -41q5 -12 0 -17q-7 -7 -19 9q-2 3 -5.5 8t-6 9t-4.5 7l-7 10q-2 1 -5.5 4t-5.5 5q-4 3 -16 7q-9 3 -19 3h-3q-25 0 -46 -16q-30 -24 -41 -89q-8 -54 -13 -162q-4 -78 -4 -143q0 -44 2 -72t12 -91q17 -86 71 -97q73 0 84 74q2 18 2 46
v127q0 27 -1 33h-43l-22 1q-9 3 -9 7v4q3 11 16 11h21h43h9q9 0 10 -4v-3v-6v-50v-24v-60v-60v-4q0 -113 -104 -113q-40 0 -65 33q-32 41 -43 124q-6 62 -6 145q0 61 3 109q3 81 3 82q10 113 29 161q10 27 33 43q22 15 57 15z" />
    <glyph glyph-name="h" unicode="h" horiz-adv-x="286" 
d="M50 705q12 0 12 -15v-110v-44q-1 -28 -1 -65q0 -34 1 -34q117 0 172 5v21v18v31v13v23v61v30v9v16v20q0 7 2 13q2 8 6 8h2q10 0 12 -7q1 -2 1 -8v-10v-57v-20v-393v-95v-73v-29q0 -20 -10 -20q-13 0 -13 20v82v79v63v101v82q-61 -4 -114 -4q-48 -2 -58 -2v-20v-20v-20
v-18v-107v-222q0 -17 -9 -17h-1q-11 0 -11 41q-1 7 -1 34q-1 15 -1 33v114v104v24q1 17 1 80v109v34v61v29q1 13 1 34q0 18 9 18z" />
    <glyph glyph-name="i" unicode="i" horiz-adv-x="96" 
d="M42 372q1 16 1 88v192v18q0 22 3 26q3 5 8 5q4 0 5 -3q6 -6 6 -42v-201q1 -33 1 -96v-217v-27v-26v-29q0 -29 1 -38v-7q0 -20 -10 -23h-2q-7 0 -12 23q0 287 -1 357z" />
    <glyph glyph-name="j" unicode="j" horiz-adv-x="301" 
d="M242 496v25q0 42 -1 73q-1 30 -1 63v17q1 8 1 16q0 16 11 16h2q10 -4 10 -22v-115v-60q2 -138 2 -159q0 -16 -2 -100q-2 -51 -13 -118q-6 -33 -26 -77q-15 -35 -42 -50q-5 -4 -18 -7q-17 -5 -32 -5q-16 0 -25 4q-27 11 -45 35q-22 32 -25 87v18v13v12v7v3v2q0 25 11 25h2
q9 -1 9 -31v-14v-14q0 -21 1 -30q4 -44 25 -69q17 -25 49 -25q2 0 16 2q55 16 72 101q17 76 20 161q1 10 1 50q0 43 -1 77t-1 71v18z" />
    <glyph glyph-name="k" unicode="k" horiz-adv-x="310" 
d="M63 425q45 9 84 41q33 28 57 73l17 31q21 45 40 98q1 2 2.5 7t2.5 8.5t4 6.5t6 3h2q7 0 5 -17q-1 -6 -5 -16l-3 -11q-9 -36 -30 -82q-20 -41 -39 -68q-41 -61 -100 -83q34 -11 46 -16q36 -14 50 -38q18 -31 18 -65q0 -12 -1 -49.5t-1 -59.5v-26q0 -30 2 -70q7 -72 31 -72
q34 0 34 60q0 4 -2 24q0 4 -0.5 9t-1 8t-0.5 4q-1 5 -1 19q0 8 3 11q1 3 5 3q5 0 11 -14q1 -4 6 -28q2 -24 2 -29q0 -16 -3 -31q-11 -60 -54 -60q-41 0 -50 85q-3 30 -3 65q0 6 0.5 20t0.5 20q1 25 1 74q0 45 -4 62q-10 37 -48 58q-26 14 -55 14h-5q-7 0 -22 -5
q-1 -53 -2 -125t-1 -91v-40q0 -31 1 -42v-35q0 -46 -2 -56q-1 -6 -7 -6h-2q-5 2 -8 9q-5 12 -5 48v32q0 125 1 236t1 232v32q0 76 1 93q2 21 9 21q3 0 4 -1q10 -8 10 -22v-65v-29v-79q0 -3 -2 -37v-39z" />
    <glyph glyph-name="l" unicode="l" horiz-adv-x="221" 
d="M62 26q39 0 111 8h32q6 -2 6 -10q0 -4 -1 -6q-2 -9 -29 -9h-8l-128 -9q-5 0 -6 6v25v27v16q2 116 2 276v282v32q0 16 1 20q2 11 8 11q10 0 12 -15v-142q1 -39 1 -96v-182q0 -130 -1 -170v-64z" />
    <glyph glyph-name="m" unicode="m" horiz-adv-x="354" 
d="M66 658v-21v-47q-1 -24 -1 -58v-137v-72q0 -169 1 -213v-44v-29v-15q0 -16 -4 -22q-4 -4 -10 -4h-1q-9 3 -9 12v3q1 42 1 196v79v94v50q0 117 1 152v8v51q0 61 9 62l2 2h4q4 -1 11 -12t18 -29.5t14 -23.5l91 -150l29 56q7 13 28 54t37 71t21 34h3q6 0 11.5 -5.5
t5.5 -15.5v-75v-83v-83q0 -251 -2 -369v-17v-9q1 -10 1 -35q0 -13 -5 -16q-6 -2 -9 -2q-9 0 -9 22v28v17v46v16q0 28 2 364q0 16 1 28v28v11v110q-14 -30 -56 -108.5t-44 -81.5q-10 -13 -13 -13q-11 0 -19 17q-38 67 -80 132q-1 1 -3.5 7t-9 16.5t-16.5 23.5z" />
    <glyph glyph-name="n" unicode="n" horiz-adv-x="320" 
d="M321 15q7 -1 7 -10v-2q-1 -4 -17 -4q-19 0 -30 13.5t-11 35.5q0 15 -0.5 47t-0.5 49q0 50 1 153.5t1 151.5q2 44 2 65q0 16 -2 40q-3 33 -10 54q-5 20 -20 40q-17 23 -41 31q-11 4 -27 4q-27 0 -50 -16q-17 -10 -37 -32q-19 -21 -19 -34v-18l-1 -284v-268q0 -39 -11 -39
h-1q-12 2 -13 47v27v77v76v48q0 23 0.5 67.5t1.5 64.5v109q1 48 1 110q0 48 1 58q1 22 15 22q8 0 8 -16v-25v-12h1q1 0 2 1q16 27 42 43q29 18 58 18h2q31 -2 56 -17q21 -11 30 -23q16 -21 24 -50q8 -23 11 -60q1 -12 1 -39q0 -36 -1 -54q-3 -333 -3 -356v-54q0 -16 8 -26.5
t22 -12.5z" />
    <glyph glyph-name="o" unicode="o" horiz-adv-x="307" 
d="M65 500v-6v-31l-2 -57v-14v-23q0 -31 4 -105q6 -96 19 -146q21 -81 44 -95q7 -7 14 -8q10 -2 13 -2q46 0 74 119q16 83 17 99q4 48 4 131q0 37 -1 66q-1 20 -1 49t-1 49.5t-4 43.5q-56 -93 -119 -93q-18 0 -30 5q-11 3 -31 18zM262 605q1 -5 3 -17q4 -29 6 -62
q3 -68 3 -173v-31q0 -57 -4 -94q-6 -58 -11 -84q-5 -30 -19 -68q-17 -46 -40 -69q-23 -20 -53 -20q-46 2 -71 84q-15 44 -23 101q-10 66 -10 117q-3 54 -3 118q0 57 3 107q3 39 9 74q6 40 23 71q12 23 39 38q22 11 43 11h6q27 0 50 -16q24 -18 38 -53q8 17 22 57q4 11 16 7
q8 -3 8 -11q0 -2 -1 -4q-11 -34 -34 -83zM236 606q-9 33 -30 57q-12 14 -35 20q-14 2 -15 2q-17 0 -29 -6q-20 -12 -35 -36q-22 -41 -22 -91q0 -36 33 -48q9 -3 20 -3q59 0 113 105z" />
    <glyph glyph-name="p" unicode="p" horiz-adv-x="238" 
d="M42 80v165q0 144 -1 196q0 43 -0.5 87.5t-1 67.5t-0.5 30v25v18v8v11v7q0 6 5 6h19q11 1 32 1q55 0 76 -19q17 -12 27 -31q15 -30 15 -90v-55v-28q0 -28 -17 -57q-16 -30 -38 -43q-14 -9 -32 -17q-7 -2 -18.5 -6.5t-16.5 -5.5l-10 -2.5t-9 -2.5l-4 -1v-26v-67v-124v-99
q0 -30 -11 -32h-1q-10 0 -13 32q-1 14 -1 52zM193 498l-2 61q-2 60 -12 79q-22 42 -76 42q-37 0 -40 -1h-1q1 -10 1 -45q2 -36 2 -43q1 -22 1 -74q1 -13 1 -47v-50q0 -44 1 -49q12 0 36 8q32 14 51 29q36 29 38 90z" />
    <glyph glyph-name="q" unicode="q" horiz-adv-x="286" 
d="M208 31q-7 -11 -13 -17q5 -9 14 -19q4 -4 15 -18q0 -1 1 -3t1 -3q0 -7 -7 -8h-2q-8 0 -30 25l-10 14q-4 -1 -17 -1q-28 0 -45 10q-21 10 -33 32q-10 18 -21 43q-7 23 -11 55q-5 40 -5 58q-1 7 -3 59q-1 12 -1 27q0 113 4 182q5 73 10 98q13 80 26 103q20 35 62 35h5
q45 -2 72 -36q25 -33 33 -98q2 -29 5 -140q0 -7 -2 -99q-3 -103 -11 -185q-4 -40 -13 -67q-11 -28 -24 -47zM146 682q-12 0 -23 -6q-34 -13 -47 -121.5t-13 -230.5v-15q0 -97 10 -170q9 -67 41 -99q16 -16 41 -16q5 0 7 1q-1 3 -8 10q-1 2 -4 5.5t-4 5.5q-8 11 -8 17
q0 4 2 6q1 1 4 1q12 0 27 -23q1 -1 4.5 -5t6.5 -7q20 18 31 52q11 37 16 116q0 6 0.5 14.5t1 21.5t0.5 23t0.5 31t1.5 28q1 13 1 51q0 105 -1 114q0 72 -6 101q-9 46 -28 69q-20 26 -53 26z" />
    <glyph glyph-name="r" unicode="r" horiz-adv-x="291" 
d="M44 702q3 3 16 3h51q9 0 17 -1l9 -1q48 -1 76.5 -32.5t28.5 -75.5q0 -31 -18 -67q-13 -26 -34 -44q-30 -33 -79 -52q14 -2 29 -26q15 -25 15 -70v-108q0 -63 18 -135.5t50 -72.5h4q25 0 25 53v29q0 23 -4 61q-2 12 10 12q6 1 9 -1.5t4 -6.5t1 -9v-2q3 -26 3 -48v-21
q0 -60 -20 -78q-12 -12 -36 -12t-41.5 23.5t-27 62.5t-14 73.5t-6.5 71.5v110q0 41 -12 61.5t-42 23.5q-8 0 -13 -3v-295q0 -48 2 -80q0 -28 1 -40q0 -16 -11 -16h-2q-10 0 -10 19q-1 9 -1 29q-1 22 -1 96v71q0 138 -1 155l1 25v144l1 95v32q0 31 2 47zM65 681
q-2 -18 -2 -39v-195h21q48 5 90 47.5t46 96.5v9q0 43 -35 65q-28 18 -83 18q-19 0 -37 -2z" />
    <glyph glyph-name="s" unicode="s" horiz-adv-x="287" 
d="M175 705q33 -3 53 -21q19 -16 24 -38q4 -15 4 -35v-10q0 -15 -6 -20q-7 -2 -11 2q-6 4 -6 8v6q0 43 -17 63q-17 22 -49 22h-2q-39 0 -63 -15q-19 -12 -28 -30q-12 -26 -12 -70t58 -126l54 -75q55 -81 71 -129q18 -39 19 -95q0 -92 -37 -129q-27 -27 -70 -27q-13 0 -16 1
q-51 6 -78 39q-25 32 -25 87q0 53 16 91q8 18 18 18q4 0 5 -1q4 -1 4 -8q0 -1 -2 -11t-6 -18q-2 -4 -3.5 -8.5t-1.5 -5.5q-9 -40 -9 -53v-5q3 -44 27 -73q24 -26 60 -27q44 0 67 26q27 30 27 93v11q-1 51 -31 119q-16 33 -53 86l-56 80q-54 77 -59 122q-2 24 -2 33
q0 22 6 44q12 40 42 60q28 20 75 20q9 0 13 -1z" />
    <glyph glyph-name="t" unicode="t" horiz-adv-x="231" 
d="M133 118v-77v-7v-22q0 -8 -3 -11q-2 -2 -5 -2h-3q-12 1 -12 19v14v274v210v46v113q-2 1 -35 1q-28 2 -39 3q-13 1 -13 13q0 2 3 5t6 3q39 0 82 -1q45 -1 91 -1q13 -1 14 -7q0 -12 -16 -13q-12 -2 -33 -2h-17h-11q-7 0 -9 -1v-48v-509z" />
    <glyph glyph-name="u" unicode="u" horiz-adv-x="292" 
d="M238 572l-1 86l-1 20q0 1 0.5 4.5t0.5 5.5t1 5t2.5 4.5t4.5 1.5q13 0 14 -60v-9l1 -45v-93q1 -61 1 -173l1 -34v-28q0 -97 -9 -167q-3 -37 -29 -66q-22 -28 -59 -30q-15 0 -41 7q-18 6 -38 29q-36 54 -39 185q-2 90 -3 219.5t-2 171.5l-1 15q0 61 10 70q12 0 12 -14v-33
v-37q0 -26 4 -206l1 -55l1 -44v-49q0 -38 1 -49l3 -49q14 -132 84 -136h5q53 0 67 69q10 41 10 105q0 6 0.5 30t0.5 41v23l-1 47q0 12 -0.5 47.5t-0.5 59.5v38v41v30v22z" />
    <glyph glyph-name="v" unicode="v" horiz-adv-x="333" 
d="M296 650q6 37 10 47q3 8 12 1q9 -9 8 -13q-2 -11 -7 -37.5t-6 -29.5q-27 -146 -34 -198l-18 -108l-28 -173q-2 -22 -8 -51q-10 -65 -14 -76q-5 -18 -13 -18h-1q-11 2 -17 23l-39 178l-35 159q-1 7 -6 29t-8 37l-18 76q-1 6 -16 63l-18 77q-2 12 -7 28q-4 16 -6 26
q0 12 10 12q5 0 13 -15l15 -55l58 -249q35 -157 36 -161q15 -83 29 -142q4 -19 8 -21l23 135l45 278q5 37 32 178z" />
    <glyph glyph-name="w" unicode="w" horiz-adv-x="433" 
d="M44 589v8v37q0 66 11 66q13 0 13 -34v-11q-1 -4 -1 -8q0 -32 -1 -61q-1 -27 -1 -63v-20q0 -171 3 -318q0 -68 21 -123q17 -50 46 -51q16 0 37 18q17 21 23 42q24 68 25 96q1 44 14 46h4q4 0 9 -9q3 -6 3 -21v-7q0 -62 8 -105q7 -26 8 -28q5 -12 16 -20q17 -14 35 -14
q33 0 53 31q13 20 16 66q2 32 2 54q0 32 -2 80q0 42 -0.5 89.5t-1 73t-0.5 37.5v45v20v44v21v11v53v36q1 35 7 35h5q6 0 8 -7q2 -6 2 -17v-16v-118v-41q-2 -40 -2 -41v-31q0 -34 2 -72q1 -119 3 -136q2 -66 2 -70q0 -73 -16 -118q-11 -27 -33 -37q-26 -12 -49 -12
q-57 0 -72 61q-3 5 -10 71q0 -3 -2 -8q0 -2 -1.5 -8t-1.5 -9q-1 -8 -5 -17q-19 -58 -44 -75q-20 -12 -41 -14q-42 0 -65 56q-13 28 -20 65q-1 3 -6 49q0 13 -2 65q-1 27 -1 50v27q0 16 0.5 67.5t0.5 87.5q0 103 1 132z" />
    <glyph glyph-name="x" unicode="x" horiz-adv-x="243" 
d="M143 407l-11 -42q0 -3 -2 -9l5 -20l12 -55q4 -18 14.5 -57.5t14.5 -59.5l13 -59q11 -46 22 -87q1 -3 1 -8q0 -4 -1 -6q-1 -4 -7 -4h-4q-2 0 -4 2q-6 10 -7 12q-21 74 -30 123q-39 167 -40 171v2l-1 -2q-1 -4 -40 -171q-7 -40 -31 -123q-1 -5 -6 -12q-2 -2 -4 -2h-4
q-6 0 -7 4q-1 2 -1 6q0 5 1 8q6 22 21 87l13 59q4 20 14.5 59.5t14.5 57.5l12 55l5 20q-2 6 -2 9l-11 42l-7 23l-10 40q-35 139 -37 150q-13 64 -13 71q0 4 2 6q0 4 6 4q2 0 7 -6q4 -4 7 -15q4 -14 5 -20q3 -10 6 -24q3 -16 11 -45l29 -124q1 -4 8.5 -30.5t11.5 -40.5l18 71
l30 124q4 14 10 44q3 13 6 24q1 6 5 20q3 10 8 15q4 6 7 6q6 0 6 -4q2 -2 2 -6q0 -6 -13 -70q-2 -11 -37 -150l-10 -40z" />
    <glyph glyph-name="y" unicode="y" horiz-adv-x="340" 
d="M162 420h-14q-26 0 -48 13q-21 13 -32 29q-13 16 -17 44q-4 19 -6 43q-1 21 -3 53q-2 40 -3 49v12q-1 6 -1 14q0 22 8 22h1q11 0 12 -7q0 -3 0.5 -6t1 -4.5t0.5 -2.5q0 -9 0.5 -27t1.5 -27q2 -48 4 -68q3 -49 14 -72q14 -28 44 -39q8 -2 28 -2h9q21 2 37 13q17 10 25 21
q17 21 23 29q7 11 9 18q4 13 4 38q1 9 1 34v35v32v15v4q0 20 10 20q14 0 14 -24v-12v-93q-2 -80 -2 -91v-18q1 -8 1 -18q8 11 20 37q3 7 6.5 15t5.5 11l1 4q17 -2 17 -24q0 -10 -8 -24q-15 -28 -42 -59q0 -17 -0.5 -37.5t-1 -31.5t-0.5 -17q0 -46 -2 -108q-1 -46 -9 -93
q-6 -39 -21 -75q-29 -50 -70 -59q-2 0 -6 -1t-6 -1h-7q-7 0 -10 1q-1 0 -4 0.5t-5 0.5l-12 3l-2 1q-39 11 -65 50q-28 38 -28 86q0 12 1 16q3 26 21 68q11 23 29 45q16 18 47 48q30 27 43 40q16 16 39 34q31 28 45 45v13q0 32 -1 52l-20 -27q-33 -37 -77 -40zM258 342v13v30
l-22 -19q-12 -11 -35.5 -31.5t-42 -37.5t-33.5 -34l-1 -2l-5.5 -5.5t-6.5 -7.5q-1 -1 -6.5 -7t-7.5 -10q-6 -8 -23 -42q-18 -36 -18 -64q0 -25 16 -55q31 -54 72 -59q5 -1 15 -1q18 0 41 14q28 19 41 72q12 46 13 107q3 90 3 98v41z" />
    <glyph glyph-name="z" unicode="z" horiz-adv-x="248" 
d="M195 671q-9 0 -15 1h-14h-45q-22 -1 -46 -1h-24q-4 0 -7 4q-2 6 -2 9v1q0 9 11 9h67q55 0 64 1h31q9 0 9 -6v-2l-15 -57q-11 -46 -13 -51q-53 -228 -64 -262q-8 -46 -59 -250q-2 -10 -5 -20.5t-4 -14.5t-1 -5h15q16 0 57 1t61 1q21 0 25 -4q5 -3 5 -11v-2l-1 -2v-3l-1 -1
q-2 0 -2 -1q-1 -1 -4 -1h-2h-1h-6h-2q-28 0 -85 -1.5t-83 -1.5q-4 0 -4 11q0 6 4 18l33 129l48 201l16 73q2 10 6.5 26.5t11.5 43.5t12 49z" />
    <glyph glyph-name="braceleft" unicode="{" horiz-adv-x="182" 
d="M81 271q0 8 1 15v17q0 22 -5 32q-4 8 -20 15q-10 5 -21 11q-3 3 -3 5t6 8q25 15 38 40q7 20 7 64v20q-1 9 -1 20q0 17 -1 29v30q0 38 8 76l3 9q1 6 3 9l6 9l6 10q1 4 6 10q2 2 4 5t3 4q6 4 8 6t5.5 3.5t4.5 2.5q4 0 14 2q8 -5 8 -9q0 -2 -3 -6l-6 -9q-8 -6 -9 -7l-8 -8
q-4 -2 -6 -4q-19 -26 -19 -100v-25v-26v-11v-22q0 -45 -7 -78q-1 -9 -9 -29q-9 -15 -17 -19q0 -2 6 -6q9 -8 12 -15q10 -21 10 -39v-18q0 -22 -1 -40v-41v-41q-1 -18 -1 -39q0 -32 3 -56q1 -5 3 -13t2 -9q8 -35 35 -36q6 0 6 -12q-2 -9 -12 -9q-20 0 -32 14q-28 22 -28 126
v12v63q1 29 1 60z" />
    <glyph glyph-name="bar" unicode="|" horiz-adv-x="101" 
d="M46 377q1 16 1 88t-1 89q0 32 -1 61v33v18q0 22 3 26q3 5 8 5q4 0 5 -3q1 -1 2.5 -1.5t2 -1.5t1 -6t0.5 -14t0.5 -25.5t1 -47t0.5 -60.5q2 -146 2 -171q0 -23 -1 -40v-32q0 -145 2 -229q0 -30 1 -39v-7q0 -20 -12 -23h-2q-7 0 -12 23q0 287 -1 357z" />
    <glyph glyph-name="braceright" unicode="}" horiz-adv-x="181" 
d="M116 271q0 -31 1 -60v-63v-12q0 -104 -28 -126q-14 -14 -33 -14q-11 0 -11 9q-1 12 5 12q28 3 36 36q4 17 4 22q3 25 3 59q0 21 -1 38v39v41q-1 18 -1 40v18q0 18 10 39q3 6 13 15q6 4 6 6q-9 5 -18 19q-8 17 -9 29q-6 28 -6 78v22v21v20v22q0 74 -19 99q-32 22 -32 34
q0 4 8 9q10 -2 15 -4q10 -5 11 -6q5 -1 10 -8q2 -3 4 -6.5t3 -4.5l3 -4l4 -8q5 -10 6 -11q2 -3 3 -9q0 -1 1 -3t1.5 -3.5t0.5 -2.5q9 -43 9 -76v-30q-1 -12 -1 -29q0 -11 -1 -20v-20q0 -44 7 -64q12 -26 38 -40q6 -6 6 -8t-3 -5q-8 -5 -22 -11q-15 -7 -19 -15q-5 -10 -5 -32
v-17q1 -7 1 -15z" />
    <glyph glyph-name="asciitilde" unicode="~" horiz-adv-x="215" 
d="M48 711q-6 7 4 20q8 9 16 13q12 5 15 5q12 0 23 -8q3 -1 11 -8q8 -6 12 -8q5 -3 11 -3q17 0 20 3q6 5 6 12q0 8 -5 13q-5 3 -5 10q0 3 1 4q7 6 17 -4q5 -5 8 -21q3 -13 -8 -22q-12 -12 -32 -12q-14 0 -29 12q-17 12 -27 12q-14 0 -20 -10q-4 -5 -5 -6q-1 -2 -3 -4
q-5 -8 -10 2z" />
    <glyph glyph-name="uni00A0" unicode="&#xa0;" horiz-adv-x="270" 
 />
    <glyph glyph-name="exclamdown" unicode="&#xa1;" horiz-adv-x="111" 
d="M48 553v8v23v8q5 23 12 23h2q12 -3 12 -23v-6q-1 -9 -1 -39q-1 -19 -1 -65v-22v-14q1 -2 1 -4q0 -53 -3 -197q-2 -192 -2 -199q0 -8 1 -13q1 -6 1 -14q0 -9 -3 -13h-4v-1v-1q0 -1 -1 -1q0 1 -1 1h-1q-2 -2 -3 -2q-6 0 -11 11q1 6 1 42q0 1 -0.5 14t-1 42.5t-0.5 63.5
q2 108 2 146v31v100q1 40 1 101zM74 647q-11 -4 -14 -4q-5 0 -12 7q-6 9 -6 16q0 8 7 18q3 6 10 6q12 0 23 -14q6 -8 6 -14q0 -12 -14 -15z" />
    <glyph glyph-name="cent" unicode="&#xa2;" horiz-adv-x="200" 
d="M97 519q3 3 22 10l6 34q6 23 16 23q5 0 6 -1q4 -2 4 -8q0 -3 -4 -25q-4 -15 -4 -23q15 -5 29 -25q5 -10 5 -19q0 -3 -2 -9h-1q-7 0 -11 7q-3 8 -13 18q-8 5 -22 5q-13 0 -17 -4q-29 -23 -41 -108q-1 -3 -1.5 -9.5t-0.5 -9.5q-1 -4 -1.5 -13t-0.5 -14l-3 -21v-15v-29
q0 -27 11 -58q12 -24 36 -26h2q8 0 19 12q17 18 20 46q3 17 13 17q9 -2 9 -15v-3q-7 -39 -19 -54q-12 -16 -36 -26v-7v-19v-7q-1 -13 -10 -15h-2q-10 0 -10 27v11q-1 5 -1 10q-27 20 -27 21q-26 29 -26 104q0 31 3 64q4 52 9 70q13 57 43 84z" />
    <glyph glyph-name="sterling" unicode="&#xa3;" horiz-adv-x="318" 
d="M145 117q-7 86 -37 181q-1 3 -4 12.5t-5 14.5l-9 26l-8 22l-3 9q-10 -2 -20 -2q-13 0 -14 6q-4 1 -4 8q0 6 4 6q3 1 15 1q12 2 16 3q-3 0 -9 29q-9 44 -12 68q-5 43 -5 63q0 69 18 108q16 33 65 35h1q26 0 46 -23q19 -24 22 -48q0 -2 1 -4v-5q0 -5 -2 -7t-4 -2q-3 0 -6 3
q-4 8 -9 19q-7 19 -10 23q-3 7 -12 14q-10 7 -24 9h-5q-2 1 -4 1t-6 -0.5t-5 -0.5q-2 -1 -4.5 -2t-3.5 -1q-6 -3 -8 -5l-4 -6l-6 -6q-2 -2 -4 -6l-1 -3q-11 -17 -11 -85q2 -96 23 -165q3 1 8 1h4q1 2 15 3q3 0 6 0.5t4.5 1t2.5 0.5q14 0 18 -9v-2q0 -5 -11 -8q-13 -4 -25 -5
q-16 -2 -17 -3q4 -20 25 -80q24 -77 29 -99q11 -49 11 -91q0 -21 -2 -39q0 -2 -1 -3v-4q6 -18 36 -35q14 -8 32 -8q1 0 15 2q24 5 31 24q5 12 5 24q2 11 8 11h1q9 -2 9 -17q0 -8 -2 -14q-10 -37 -27 -45q-16 -8 -49 -8h-3q-16 0 -39 14q-3 2 -11 12q-9 9 -12 11l-16 -32
q-10 -13 -55 -13q-19 0 -34 14q-16 12 -16 42v4q1 16 14 32q17 13 43 16h2q17 0 45 -20q4 12 4 26v7zM138 61q-19 14 -36 21q-6 3 -12 3q-19 0 -30 -20q-3 -7 -3 -15q0 -15 13 -26q8 -8 23 -8q14 0 28 8q16 9 17 37z" />
    <glyph glyph-name="currency" unicode="&#xa4;" horiz-adv-x="295" 
d="M232 364q0 68 -6 101q-18 93 -79 93h-6q-42 -4 -48 -69q-4 -40 -4 -83v-20q2 -52 10 -139q12 -91 51 -93q18 0 35 12q22 16 33 46q0 5 2 7q2 5 3 14q0 3 5 54q0 4 2 36t2 41zM255 365q0 -21 -1 -27q-7 -97 -11 -119q-1 -1 -1 -4q-1 -2 -1 -4l5 -8l12 -25q1 -4 6 -10
l5 -10q1 -1 1 -4q0 -12 -7 -13q-6 0 -12 6q-5 5 -9 15l-5 8q-1 2 -3.5 5.5t-3.5 5.5l-1 1q-28 -53 -76 -53q-19 0 -38 17q-18 19 -23 37l-4 12l-3 11q-1 0 -1 -1t-1 -2l-2 -4l-3 -6l-4 -8l-4 -6q-3 -7 -10 -14q-6 -6 -12 -6q-7 1 -7 12q0 3 1 4l5 11q3 4 6 10l13 24l9 16
l3 3q-2 13 -5 44q-8 56 -8 141q0 71 14 111q-12 16 -14 20q-3 3 -6 8q-5 9 -6 11q-9 14 -11 22q-1 3 -1 8q0 4 2 8q3 3 7 3q6 0 9 -4l10 -15l12 -25q1 -1 2 -3l2 -4l4 -8q19 25 47 28q2 1 10 1q38 0 66 -30q0 1 1.5 3t2.5 4q4 6 5 9l12 25l10 15q3 4 9 4q4 0 7 -3
q4 -5 1 -16q-2 -8 -11 -22l-3 -6l-4 -7l-4 -6q-3 -7 -10 -14l-2 -2l-1 -2q13 -19 20 -52q10 -39 10 -120z" />
    <glyph glyph-name="yen" unicode="&#xa5;" horiz-adv-x="230" 
d="M66 687q13 -72 17 -96q10 -58 17 -94l19 -79l3 13q4 13 12.5 49.5t17.5 71.5q15 72 31 133q4 10 11 13q6 2 9 -2q6 -3 4 -11l-21 -83q-37 -158 -55 -228v-17v-12q8 0 8 -1h11h14q25 0 29 -4q4 -1 4 -5q-1 -9 -15 -9q-17 -1 -44 -1h-7q-1 -11 -1 -50q10 0 10 -1h10h14
q25 0 29 -4q4 -1 4 -5q-1 -9 -15 -9q-17 -1 -44 -1h-9v-30v-22v-184v-9q0 -7 -4 -7h-4q-15 0 -15 32v19v5v62v38v50q2 44 2 46h-24q-23 0 -27 1q-9 0 -9 8q0 5 7 8q1 0 2.5 0.5t4 1t4.5 0.5h11q24 0 31 1v12v38h-24q-23 0 -27 1q-9 0 -9 8q0 5 7 8q1 0 2.5 0.5t4 1t4.5 0.5
h11q22 0 29 1v5v15q-16 66 -36 176l-30 146q-3 15 12 18q4 1 7 -5q2 -2 4 -8z" />
    <glyph glyph-name="brokenbar" unicode="&#xa6;" horiz-adv-x="97" 
d="M45 275v28q0 23 1 27q0 9 8 9q5 0 8 -7q1 -2 1 -10q2 -10 2 -12v-236v-37q0 -24 -5 -29q-1 -4 -5 -4q-9 2 -9 14q-1 17 -1 67v190zM45 639v28q0 22 1 26q0 9 8 9q5 0 8 -7q1 -2 1 -10q2 -10 2 -11v-222v-37q0 -24 -5 -29q-1 -4 -5 -4q-9 2 -9 14q-1 17 -1 67v176z" />
    <glyph glyph-name="section" unicode="&#xa7;" horiz-adv-x="273" 
d="M72 642q8 36 32 55q21 16 49 16h2q21 0 42 -13q20 -12 24 -28q4 -11 4 -24v-6q0 -10 -6 -14q-7 -2 -10 1q-5 1 -5 5v4q0 30 -17 42q-13 12 -36 12h-3q-26 0 -43 -26q-12 -20 -12 -48q0 -15 7 -26q7 -12 23 -29q16 -15 19 -19l31 -37q51 -60 65 -91q15 -39 15 -74
q0 -3 -1 -6v-6q-3 -41 -31 -61q-24 -18 -63 -18q-11 0 -14 1q-14 2 -20 5q1 -1 2 -3l2 -2l31 -36q48 -57 64 -92q16 -40 16 -71q0 -3 -1 -6v-6q-3 -39 -31 -59q-25 -18 -65 -18q-10 0 -13 1q-92 8 -92 81q0 36 16 59q8 11 21 11h1q5 -2 5 -4l-2 -8q0 -2 -11 -19
q-9 -23 -9 -32v-3q3 -28 24 -44q17 -15 53 -17q71 0 79 51q2 18 2 20q0 37 -26 80q-9 15 -29 36q-22 26 -34 43q-21 29 -40 51q-12 9 -26 32q-10 22 -10 39q0 36 27 60q26 23 80 23q31 0 58 -21q-7 19 -10 24q-2 3 -6.5 9t-11 15.5t-12.5 17.5l-35 45q-10 15 -27 32t-29 34
q-10 15 -12 32q0 5 -0.5 10t-0.5 8l-1 3q0 3 1 4v5zM100 294q19 -17 50 -19q70 0 78 51q1 7 1 19q0 26 -19 39q-6 6 -25 12q-18 6 -30 6h-1q-18 0 -35 -7q-21 -8 -28 -17q-12 -16 -12 -43q0 -20 21 -41z" />
    <glyph glyph-name="dieresis" unicode="&#xa8;" horiz-adv-x="187" 
d="M132 731h-6q-15 0 -15 18q0 9 3 15q5 5 12 5q19 0 21 -16t-15 -22zM74 731h-6q-16 0 -16 18q-1 7 3 15q5 5 13 5q19 0 21 -16t-15 -22z" />
    <glyph glyph-name="copyright" unicode="&#xa9;" horiz-adv-x="376" 
d="M191 126q38 0 58 13q6 3 11.5 6.5t8.5 5.5t4 2q4 2 11 2h5q1 -2 1 -9v-3q-4 -16 -27 -25q-37 -17 -61 -17h-3q-45 0 -66 18q-21 17 -28 54q-4 20 -6 45q-2 34 -2 44v122q0 5 2 49q10 91 89 93q57 0 77 -14q6 -3 8 -9q-2 -7 -9 -8h-3q-7 0 -30 5q-29 5 -33 6q-18 0 -30 -4
q-33 -11 -39 -46q-8 -26 -8 -64v-11q1 -14 1 -60q0 -73 3 -110q5 -40 11 -53q15 -32 53 -32h2zM53 129q-11 41 -11 143v31v37q2 142 2 156q0 58 25 102q22 37 89 42q3 1 17 1q60 0 107 -30q32 -22 48 -60q21 -47 21 -128q0 -5 -0.5 -25.5t-0.5 -35.5q-2 -25 -2 -52
q0 -66 -6 -130q-1 -10 -3 -35l-2.5 -25t-1.5 -18q-2 -16 -6 -29q-1 -3 -3 -7q-11 -30 -52 -53t-91 -23q-33 0 -59 16q-28 15 -39 33q-28 49 -32 90zM162 614q-79 -5 -86 -61q-6 -49 -7 -93q-4 -75 -4 -144q0 -127 19 -218q25 -82 92 -84q27 0 65 12q55 19 69 60q6 45 6 47
q1 6 2.5 22t2.5 22q3 27 3 42v45q0 17 0.5 37t1 31t0.5 16q0 23 1 43t1 48q0 49 -16 91q-13 39 -50 62q-36 22 -90 22h-10z" />
    <glyph glyph-name="ordfeminine" unicode="&#xaa;" horiz-adv-x="219" 
d="M157 591q-21 6 -25 18q-16 -16 -26 -21q-12 -5 -17 -5q-13 0 -24 8q-19 15 -21 41v7q0 31 17 51q16 21 38 28q12 3 21 3q12 0 26 -9v-24v-18q0 -47 16 -61q3 -3 12 -3q2 0 5 -0.5t4.5 -1t2.5 -0.5q7 0 7 -10q0 -6 -14 -6q-9 0 -22 3zM65 652q-2 -6 -2 -11q0 -37 20 -37
l8 2q16 4 33 34q0 5 1 9v7q0 10 -1 18q-1 6 -1 15v6q1 3 1 7h-2q-2 0 -10 -2q-42 -9 -47 -48z" />
    <glyph glyph-name="guillemotleft" unicode="&#xab;" horiz-adv-x="249" 
d="M125 408q-2 -6 -2 -7l2 -6q3 -5 3 -6l17 -29q3 -5 11.5 -17.5t12.5 -18.5q3 -4 12 -17.5t12 -19.5l2 -3q2 -3 6 -8l8 -10q14 -19 14 -30q0 -3 -2 -7q-3 -4 -6 -4h-1q-10 5 -21 21q-1 2 -3 4l-16 24l-24 39l-27 47l-20 31q-6 16 1 26l41 60q5 7 23 32l18 25q7 7 9 12l8 11
q3 5 6 7q4 4 8 4h2q2 -2 2 -5q0 -11 -18 -38l-64 -97q-4 -4 -7 -10zM69 408q-5 -5 3 -19l16 -29l25 -36l23 -37q6 -9 11 -15q2 -3 7 -9t7 -9q5 -10 5 -18q0 -3 -2 -7q-3 -4 -6 -4h-1q-10 3 -24 25l-16 24l-8 13l-9 14q-1 2 -3.5 6t-3.5 6l-27 47q-18 28 -19 31q-5 12 -5 13
q0 6 6 13l41 60q13 20 22 32l9 13l9 12q5 5 8 12l8 11q2 5 7 7q4 4 9 4h2q2 -2 2 -5q0 -9 -19 -38l-64 -97q-3 -5 -7.5 -12t-5.5 -8z" />
    <glyph glyph-name="logicalnot" unicode="&#xac;" horiz-adv-x="291" 
d="M109 329h-28q-23 0 -27 1q-9 0 -9 8q0 5 7 8l10 2h12h24q11 1 29 1q17 0 30 -1h28h37q12 0 26 -2h1q5 0 8 -7q1 -2 1 -10q1 -5 1 -12v-34v-15q0 -24 -4 -28q-1 -4 -5 -4q-9 2 -9 14q-1 17 -1 44v10v6v20q-17 -1 -66 -1h-65z" />
    <glyph glyph-name="uni00AD" unicode="&#xad;" horiz-adv-x="283" 
d="M105 329h-27q-23 0 -27 1q-9 0 -9 8q0 5 7 8l10 2h12h23q12 1 30 1q17 0 30 -1h28h37q25 0 29 -4q4 -1 4 -5q-2 -9 -14 -9q-17 -1 -67 -1h-66z" />
    <glyph glyph-name="registered" unicode="&#xae;" horiz-adv-x="376" 
d="M288 428q-9 -38 -57 -66q-29 -26 -71 -39q16 -1 30 -15q13 -11 13 -39v-5v-8q0 -20 5 -38q7 -36 26 -64q11 -14 25 -14h2q21 2 21 25v12v8q0 11 -3 28v2q-1 2 -1 3q0 5 7 6h4h4l8 -4q4 -9 4 -35v-6v-5q0 -41 -22 -45q-1 -5 -11 -9q-9 -4 -17 -4q-13 0 -21 7
q-31 20 -44 64q-9 28 -12 66v9v4q0 20 -4 27q-1 7 -14 15q-12 6 -26 8q-4 0 -10 -2v-85v-42q0 -35 1 -44q0 -23 1 -30q0 -10 -10 -11h-2q-6 0 -6 3q-4 4 -5 16q-1 4 -1 19q-1 13 -1 55v43q0 34 -1 44q1 12 1 57q0 46 -1 59q2 68 2 77v15v21q0 18 2 28q2 2 15 2h19h24
q13 -1 23 -1q42 -3 45 -4q34 -5 49 -32q12 -21 12 -48q0 -19 -3 -28zM260 414q10 17 10 44q0 34 -24 50q-6 4 -13 4q-5 2 -16 2q-2 0 -5 0.5t-7.5 1t-7.5 0.5q-8 1 -19 1q-4 0 -9 1h-12q-18 0 -32 -2q-1 -5 -1 -21v-11v-31v-11v-17v-35v-15v-32h17q34 6 41 8q6 1 38 22
q31 19 40 41zM53 129q-11 41 -11 143v31v37q2 142 2 156q0 58 25 102q22 37 89 42q3 1 17 1q60 0 107 -30q32 -22 48 -60q21 -47 21 -128q0 -5 -0.5 -25.5t-0.5 -35.5q-2 -25 -2 -52q0 -66 -6 -130q-1 -10 -3 -35l-2.5 -25t-1.5 -18q-2 -16 -6 -29q-1 -3 -3 -7
q-11 -30 -52 -53t-91 -23q-33 0 -59 16q-28 15 -39 33q-28 49 -32 90zM162 614q-79 -5 -86 -61q-6 -49 -7 -93q-4 -75 -4 -144q0 -127 19 -218q25 -82 92 -84q27 0 65 12q55 19 69 60q6 45 6 47q1 6 2.5 22t2.5 22q3 27 3 42v45q0 17 0.5 37t1 31t0.5 16q0 23 1 43t1 48
q0 49 -16 91q-13 39 -50 62q-36 22 -90 22h-10z" />
    <glyph glyph-name="macron" unicode="&#xaf;" horiz-adv-x="180" 
d="M82 705q-23 0 -27 1q-9 0 -9 8q0 5 7 8q2 1 10 1q5 1 12 1h25h15q24 0 28 -4q4 -1 4 -5q-1 -9 -14 -9q-24 -1 -51 -1z" />
    <glyph glyph-name="degree" unicode="&#xb0;" horiz-adv-x="191" 
d="M52 669q19 40 56 40h3q21 0 37 -22q15 -18 15 -41q0 -14 -4 -23q-10 -28 -27 -45q-22 -15 -40 -15h-4q-34 2 -44 34q-2 8 -2 21q0 30 10 51zM91 688q-10 -6 -22 -30q-9 -23 -9 -33q0 -17 8 -28t21 -13q13 0 20 3q12 6 23 25q5 8 10 31v6q0 17 -9 29q-11 13 -23 14h-5z
" />
    <glyph glyph-name="plusminus" unicode="&#xb1;" horiz-adv-x="284" 
d="M109 184h-28q-23 0 -27 1q-9 0 -9 9q0 5 7 8q2 1 10 1q5 1 12 1h135h14q25 0 29 -4q4 -1 4 -5q-2 -10 -14 -10q-17 -1 -44 -1h-89zM106 329h-27q-23 0 -27 1q-9 0 -9 8q0 5 7 8l10 2h12h24q11 1 29 1h12v25v19q-1 8 -1 18q-2 23 3 28q1 4 4 4q11 0 11 -13q3 -40 3 -66
l1 -16h25h37q25 0 29 -4q4 -1 4 -5q-1 -9 -14 -9q-17 -1 -67 -1h-14v-15q1 -7 1 -16l1 -28q1 -16 0 -26q0 -10 -7 -10q-7 -2 -10 7l-2 10v11q-1 13 -3 53v14h-32z" />
    <glyph glyph-name="uni00B2" unicode="&#xb2;" horiz-adv-x="183" 
d="M43 644q0 17 5 32q10 33 54 33q16 0 34 -6q18 -7 18 -29q0 -11 -1 -16q-4 -37 -31 -101q-9 -21 -30 -62l-6 -13q-2 -3 -3.5 -7t-5.5 -14t-10 -23q0 -2 -1 -3l-1 -2q13 -3 30 -3h35h21q6 0 6 -8t-4 -8q0 -1 -10 -3q-3 -1 -21 -1q-50 0 -80 4q-1 0 -1 6q0 10 6 23
q6 19 16 37q8 20 27 56q2 3 5 10t4 10q25 57 29 76q6 20 6 34v6q-1 9 -9 15q-5 5 -26 5q-17 0 -24 -6q-8 -6 -15 -34v-2q0 -8 15 -8q1 0 13 6q5 4 8 1q2 -2 2 -9q0 -4 -1 -5q-1 -3 -10 -8q-13 -6 -27 -4q-17 3 -17 21z" />
    <glyph glyph-name="uni00B3" unicode="&#xb3;" horiz-adv-x="172" 
d="M84 590h-3q-9 0 -11 6q-1 1 -1 8q0 4 2 6v1q0 1 9 6q8 2 19 13q10 12 10 24q0 18 -18 26q-6 3 -14 3q-9 2 -14 0q-4 0 -8 2q-4 1 -4 8q0 10 10 10h4q28 -2 45 -10q16 -7 18 -36q0 -39 -32 -49l5 -2l5 -2q25 -11 38 -52l4 -33q0 -71 -19 -97q-14 -21 -46 -22h-1
q-11 0 -23 12q-10 10 -15 22q-5 11 -4 11v1q0 5 7 6h1q1 1 2 1q4 0 8 -7q1 -4 12 -16q8 -9 16 -9q4 0 12 3q21 8 26 39q3 13 3 30v9v24q0 20 -12 42q-13 22 -31 22z" />
    <glyph glyph-name="acute" unicode="&#xb4;" horiz-adv-x="124" 
d="M47 707q1 4 6 10l5 10l13 25l9 15q1 3 8 5q5 0 8 -4q4 -5 1 -16q-2 -8 -11 -22l-3 -6l-5 -7q-2 -5 -3 -6q-5 -11 -9 -15q-6 -6 -13 -6q-11 5 -6 17z" />
    <glyph glyph-name="mu" unicode="&#xb5;" horiz-adv-x="336" 
d="M218 73l-1 -7q-2 -7 -6 -17q-1 -1 -8 -19q-6 -11 -17 -18q-10 -7 -25 -9q-2 0 -4 -1h-4q-27 0 -50 18q-23 20 -32 46q0 -28 -1 -37q0 -35 -4 -90q-5 -68 -5 -93v-13q1 -6 1 -13q-2 -13 -10 -13t-10 16q6 152 12 392q0 27 1 47q0 40 1 54q1 7 1.5 22.5t0.5 23.5q2 28 3 40
q3 13 7 19h1q8 0 10 -22q1 -5 1 -24q0 -22 -1 -38t-1 -32v-24q-1 -11 -1 -31q0 -25 2 -123q1 -45 19 -74q18 -26 65 -29h2q13 0 24 23q20 43 20 92v5v237v7q0 43 10 43l6 -2q7 -4 7 -43v-26q0 -53 -1 -96v-98v-47v-21q2 -17 11 -28q11 -13 27 -25q21 -15 31 -16q9 -1 11 -7
q0 -13 -4 -14q-1 -1 -7 -1q-23 0 -57 29q-22 19 -25 37z" />
    <glyph glyph-name="paragraph" unicode="&#xb6;" horiz-adv-x="288" 
d="M203 80q0 -38 -1 -52q-3 -32 -14 -32h-1q-10 1 -10 32v99v124v67v26q-2 2 -16 6q-5 1 -16.5 5.5t-18.5 6.5q-18 8 -32 17q-22 13 -39 43q-15 28 -15 57t-1 44v36q0 60 15 90q10 19 27 31q16 14 33 16q20 3 43 3q17 0 60 -3q45 -1 45 -4v-7q-1 -4 -1 -11q0 -5 -1 -8v-18
q-1 -7 -1 -25q0 -7 -0.5 -29.5t-1 -66t-0.5 -86.5q-1 -52 -1 -196v-165q0 -38 -1 -52q-3 -32 -13 -32h-1q-11 2 -11 32v99v124v67l1 102v50q0 31 1 44q0 52 1 74v44q0 33 1 42h-26q0 -5 -1 -9v-18q-1 -7 -1 -24q0 -7 -0.5 -29.5t-1 -66t-0.5 -86.5q-1 -52 -1 -196v-165z" />
    <glyph glyph-name="periodcentered" unicode="&#xb7;" horiz-adv-x="98" 
d="M81 321q0 -11 -8 -19q-6 -6 -18 -6q-10 0 -16 8q-4 7 -4 18q0 7 5 15q6 7 15 7q13 0 17 -4q11 -5 9 -19z" />
    <glyph glyph-name="cedilla" unicode="&#xb8;" horiz-adv-x="131" 
d="M46 -63l5 10q5 6 6 10l13 25l9 15q1 3 7 5q6 0 9 -4q4 -5 1 -16q-2 -8 -11 -22l-3 -6l-4 -7l-4 -6q-4 -11 -9 -15q-6 -6 -13 -6q-11 5 -6 17z" />
    <glyph glyph-name="uni00B9" unicode="&#xb9;" horiz-adv-x="156" 
d="M109 469v-23v-12h15h6q3 -3 3 -6v-2q0 -13 -22 -13q-3 -1 -8 -1h-6h-5h-4h-4q-10 0 -16 2q-10 5 -10 12q0 8 8 8h14h2q2 -1 4 -1q2 16 2 22q0 14 2 92q3 59 3 88v5v25q-14 -14 -43 -33q-5 -3 -10 8q-2 6 6 15q3 3 7 5q2 3 6 7l38 33q2 2 6 2q7 0 7 -2l2 -1q4 -1 4 -18
v-15q0 -36 -3 -100q-4 -57 -4 -97z" />
    <glyph glyph-name="ordmasculine" unicode="&#xba;" horiz-adv-x="191" 
d="M52 669q19 40 56 40h3q21 0 37 -22q15 -18 15 -41q0 -14 -4 -23q-10 -28 -27 -45q-25 -18 -35 -18q-5 0 -6 1q-37 7 -47 36q-2 8 -2 21q0 30 10 51zM91 688q-10 -6 -22 -30q-9 -23 -9 -33q0 -2 1 -4v-4q4 -28 28 -33h3q1 -1 3 -1q20 0 37 29q5 8 10 31v6q0 17 -9 29
q-11 13 -23 14h-5z" />
    <glyph glyph-name="guillemotright" unicode="&#xbb;" horiz-adv-x="248" 
d="M140 408q-3 3 -5 6l-4 8q-1 1 -3 4l-2 2l-65 97l-5 9q-2 2 -5 8l-4 8q-3 8 -3 13q0 3 2 5h2q4 0 8 -4q3 -2 6 -7l8 -11q2 -2 4.5 -6t4.5 -6l9 -12l9 -13q18 -25 23 -32l41 -60q8 -11 0 -26q-1 -3 -19 -31l-26 -47l-25 -39l-16 -24l-5 -6l-3 -6l-1 -2l-3 -3l-1 -1
q-1 -2 -1 -3q-2 0 -4 -2q-1 -1 -3 -1t-3 -1h-1q-4 0 -5 4q-3 3 -3 7q0 8 5 18q3 6 14 18q10 12 12 15t7 11.5t11.5 18.5t12.5 21q25 37 32 51q8 14 4 19zM197 408l-8 10q-3 6 -7 10l-63 97q-19 29 -19 38q0 3 2 5h2q5 0 9 -4q3 -2 6 -7l8 -11q3 -7 8 -12q2 -2 4 -6
q1 -1 2 -3q2 -2 2 -3q1 -1 2.5 -3t2.5 -3q1 -2 3.5 -4t2.5 -3q7 -10 22 -32l41 -60q5 -8 5 -13q0 -4 -4 -13l-19 -31l-27 -47l-25 -39l-16 -24q-11 -20 -19 -23l-4 -2h-2q-3 0 -6 4q-2 4 -2 8q0 11 15 29l8 10t6 8l2 3q3 6 12 19.5t12 17.5q21 33 23 36l18 29q0 1 3 6
q0 1 1 3t1 3t-2 7z" />
    <glyph glyph-name="onequarter" unicode="&#xbc;" horiz-adv-x="309" 
d="M227 219v12l1 27l-45 -82q1 -1 6 -1q24 0 38 8v36zM246 99q-2 -36 -2 -79q-2 -17 -11 -17h-1q-10 0 -10 9v3v7q0 30 1 50q1 23 1 53q0 8 1 12v11v11v1q-4 0 -25 -3t-32 -3q-6 0 -10 2q-1 0 -1 3q3 17 17 45l10 21q16 35 30 53q16 20 24 21h4q3 0 5 -5q1 -4 1 -20v-18
q1 -13 1 -71q3 1 13 5q6 0 8 -6v-7q0 -4 -2 -5l-4 -4q-4 0 -6 -2l-4 -2q-2 0 -6 -2q0 -3 -0.5 -7.5t-1 -11.5t-0.5 -12v-32zM43 -3h-1q-4 0 -4 9q0 16 9 43q7 30 12 36h-1v1l102 291q10 25 30 92q17 57 28 85l49 140q9 12 15 12q2 0 2 -3q0 2 1 2h2l1 -2q-1 -1 -1 -2h2v-3
l-13 -36l-124 -375l-50 -140l-10 -32l-14 -46q-9 -23 -17 -42q-12 -24 -18 -30zM110 483v-22v-12h15h6q3 -3 3 -7v-2q0 -13 -22 -13q-3 -1 -8 -1h-6h-5h-4h-4q-10 0 -16 2q-10 5 -10 12q0 9 8 9h14h2l4 -2q2 16 2 22q0 33 3 92q2 78 2 88v5v25q-14 -14 -43 -33q-5 -3 -10 8
q-2 7 6 16l6 6q4 2 7 5l38 34q2 2 6 2q7 0 7 -2l2 -1q4 -1 4 -19v-15q0 -42 -4 -99q-3 -65 -3 -98z" />
    <glyph glyph-name="onehalf" unicode="&#xbd;" horiz-adv-x="312" 
d="M175 236q0 16 5 31q10 33 54 33q19 0 34 -5q14 -5 16 -11q3 -8 3 -23v-3v-3q-1 -22 -29 -107q-9 -21 -30 -62l-6 -12q-2 -3 -4 -8l-1 -4l-1 -4q-2 -3 -5.5 -10.5t-7.5 -15.5q0 -2 -1 -3l-1 -2q13 -3 26 -3h35h21q6 0 6 -11q0 -8 -4 -8q0 -2 -10 -4q-7 -1 -36 -1h-3
q-3 1 -12 1.5t-13 0.5q-12 1 -20 1q-18 0 -18 8q0 9 5 24q1 1 7 14.5l10 22.5q11 18 16 33l10 22q7 13 10 20t9.5 20l8.5 17q10 32 11 39q4 15 4 29q0 11 -1 12q-3 6 -8 10q-5 5 -24 5q-14 0 -22 -8q-9 -7 -13 -25v-2q0 -8 13 -8q7 0 11 4q1 0 3 2q1 1 2 1t3 -2t2 -10
q0 -4 -1 -5q-1 -2 -10 -8q-12 -6 -26 -4q-18 3 -18 22zM110 483v-22v-12h15h6q3 -3 3 -7v-2q0 -13 -22 -13q-3 -1 -8 -1h-6h-5h-4h-4q-10 0 -16 2q-10 5 -10 12q0 9 8 9h14h2l4 -2q2 16 2 22q0 33 3 92q2 78 2 88v5v25q-14 -14 -43 -33q-5 -3 -10 8q-2 7 6 16l6 6q4 2 7 5
l38 34q2 2 6 2q7 0 7 -2l2 -1q4 -1 4 -19v-15q0 -42 -4 -99q-3 -65 -3 -98zM43 -3h-1q-4 0 -4 9q0 16 9 43q7 30 12 36h-1v1l102 291q10 25 30 92q17 57 28 85l49 140q9 12 15 12q2 0 2 -3q0 2 1 2h2l1 -2q-1 -1 -1 -2h2v-3l-13 -36l-37 -116l-44 -136l-43 -123l-50 -140
l-10 -32l-14 -46q-9 -23 -17 -42q-12 -24 -18 -30z" />
    <glyph glyph-name="threequarters" unicode="&#xbe;" horiz-adv-x="308" 
d="M226 219v12l1 27l-45 -82q1 -1 6 -1q24 0 38 8v36zM245 99q-2 -36 -2 -79q-2 -17 -11 -17h-1q-10 0 -10 9v3v7q0 30 1 50q1 23 1 53v12q1 6 1 11v11v1q-2 0 -25 -3t-32 -3q-6 0 -10 2q-1 0 -1 3q3 17 17 45l10 21q20 40 30 53q17 20 24 21h4q3 0 5 -5q1 -4 1 -20v-18
q1 -13 1 -71q2 1 13 5q7 0 8 -6v-7q0 -1 -1 -3v-2l-6 -4q-3 0 -5 -2l-4 -2q-2 0 -6 -2q-1 -6 -1 -31q-1 -13 -1 -32zM42 -3h-1q-4 0 -4 9q0 14 8 43q9 31 13 36h-1v1l102 291q10 25 30 92q17 57 28 85l49 140q9 12 15 12q2 0 2 -3q0 2 2 2h1l1 -2q-1 -1 -1 -2h2v-3l-13 -36
l-124 -375l-50 -140l-10 -32l-15 -46q-6 -21 -17 -42q-10 -23 -17 -30zM95 601h-3q-10 0 -11 6q-1 1 -1 8q0 5 2 7v1q0 2 10 6q10 3 19 12q9 11 9 25q0 17 -18 25q-6 3 -14 3q-8 2 -13 0q-3 0 -9 2q-4 2 -4 9q0 10 11 10h3q28 -2 45 -10q17 -7 18 -36q0 -39 -31 -49
q2 -2 5 -3q5 -1 5 -2q25 -11 38 -52l4 -33q0 -69 -20 -97q-14 -20 -46 -21h-1q-11 0 -22 11t-16 22q-3 6 -4 9t0 3v1q0 4 7 5h1l2 1q6 0 9 -6q2 -7 11 -17q7 -9 16 -9q5 0 13 3q20 8 25 39q3 14 3 30v9v25q0 20 -12 42q-12 21 -31 21z" />
    <glyph glyph-name="questiondown" unicode="&#xbf;" horiz-adv-x="236" 
d="M126 676q-12 2 -12 14v12q0 16 17 19h4q1 1 3 1q12 0 15 -5q6 -13 6 -21q0 -7 -5 -15q-6 -7 -16 -7q-2 0 -12 2zM126 328q3 54 3 95q-2 90 -2 176q0 24 9 24h1q8 -2 8 -10q3 -101 3 -171q0 -4 2 -32v-31q0 -4 -1 -21t-2 -30q-2 -10 -9 -38q-9 -27 -36 -65
q-25 -42 -29 -58q-16 -32 -16 -70q0 -60 34 -75q10 -4 14 -4q11 0 41 14q22 10 40 54q12 34 20 46q13 0 13 -12l-1 -6l-1 -2q-1 -2 -2 -6t-2 -7l-4 -13l-1 -4q-2 -4 -4 -7q-4 -8 -6 -14l-8 -10q-1 -3 -4 -7t-4 -6q-2 -2 -5.5 -6.5t-6.5 -7.5q-23 -26 -60 -26q-30 0 -45 18
q-28 31 -28 75q0 23 11 67q8 30 42 90q36 62 36 80z" />
    <glyph glyph-name="Agrave" unicode="&#xc0;" horiz-adv-x="307" 
d="M166 736q4 -12 -6 -16q-7 0 -13 6q-5 5 -9 14l-1 2q-1 1 -2 3l-2 4q-5 9 -6 11q-10 15 -11 21q-3 11 1 17q3 4 9 4q6 -2 7 -5l9 -16l13 -24q2 -5 6 -11zM178 679l48 -265q1 -8 25 -136q7 -42 14.5 -80t11 -56t3.5 -20q2 -3 9 -45q3 -16 7.5 -37.5t5.5 -26.5q3 -10 -2 -15
q-2 -2 -4 -3t-5 -1q-8 0 -11 11l-8 38q-3 15 -9 48q-84 2 -104 2h-12h-18q-55 0 -69 1l-17 -91q-3 -9 -11 -9h-4l-2 1q-2 1 -2 2q-4 4 -4 14q2 17 21 109q0 3 2.5 15.5t7.5 40.5t10 57q25 141 31 160q15 68 28 148l24 136q4 14 7 19q5 5 9 6q4 0 7 -1q3 -2 5 -5q5 -11 6 -17
zM66 116h39h39h114q-19 92 -32 164q-3 13 -6 35q-3 25 -6 37q-36 200 -37 202t-7 44q-3 26 -8 53l-11 -55q-7 -35 -9 -44l-48 -274l-16 -89z" />
    <glyph glyph-name="Aacute" unicode="&#xc1;" horiz-adv-x="307" 
d="M154 736q1 4 6 10q4 8 5 11l12 24l9 16q1 3 9 5q5 0 8 -4q4 -6 1 -17q-1 -6 -11 -21l-4 -6l-5 -8l-3 -6q-4 -9 -9 -14q-6 -6 -12 -6q-10 4 -6 16zM178 679l48 -265q1 -8 25 -136q7 -42 14.5 -80t11 -56t3.5 -20q2 -3 9 -45q3 -16 7.5 -37.5t5.5 -26.5q3 -10 -2 -15
q-2 -2 -4 -3t-5 -1q-8 0 -11 11l-8 38q-3 15 -9 48q-84 2 -104 2h-12h-18q-55 0 -69 1l-17 -91q-3 -9 -11 -9h-4l-2 1q-2 1 -2 2q-4 4 -4 14q2 17 21 109q0 3 2.5 15.5t7.5 40.5t10 57q25 141 31 160q15 68 28 148l24 136q4 14 7 19q5 5 9 6q4 0 7 -1q3 -2 5 -5q5 -11 6 -17
zM66 116h39h39h114q-19 92 -32 164q-3 13 -6 35q-3 25 -6 37q-36 200 -37 202t-7 44q-3 26 -8 53l-11 -55q-7 -35 -9 -44l-48 -274l-16 -89z" />
    <glyph glyph-name="Acircumflex" unicode="&#xc2;" horiz-adv-x="307" 
d="M160 776q5 2 8 0l2 -2q3 -1 7.5 -4.5t9.5 -6.5q1 0 5 -3.5t14 -11.5l20 -16q3 -2 5.5 -4.5t4.5 -4t4 -2.5l1 -1q7 -9 -1 -14q-9 -4 -16 1q-1 1 -15 13l-16 14q-8 7 -11 8q-16 14 -19 15q-35 -24 -65 -49q-11 -10 -17 -6q-5 2 -5 7q-2 5 3 8l23 19q4 2 23 18q16 12 35 22z
M178 679l48 -265q1 -8 25 -136q7 -42 14.5 -80t11 -56t3.5 -20q2 -3 9 -45q3 -16 7.5 -37.5t5.5 -26.5q3 -10 -2 -15q-2 -2 -4 -3t-5 -1q-8 0 -11 11l-8 38q-3 15 -9 48q-84 2 -104 2h-12h-18q-55 0 -69 1l-17 -91q-3 -9 -11 -9h-4l-2 1q-2 1 -2 2q-4 4 -4 14q2 17 21 109
q0 3 2.5 15.5t7.5 40.5t10 57q25 141 31 160q15 68 28 148l24 136q4 14 7 19q5 5 9 6q4 0 7 -1q3 -2 5 -5q5 -11 6 -17zM66 116h39h39h114q-19 92 -32 164q-3 13 -6 35q-3 25 -6 37q-36 200 -37 202t-7 44q-3 26 -8 53l-11 -55q-7 -35 -9 -44l-48 -274l-16 -89z" />
    <glyph glyph-name="Atilde" unicode="&#xc3;" horiz-adv-x="307" 
d="M94 726q-7 7 4 25q7 9 16 13q7 4 14 4q14 0 25 -7q4 -4 9 -8q3 -2 7 -5t5 -4q6 -3 12 -3q14 0 17 3q9 7 1 21q-8 7 -1 14t17 -4q5 -5 8 -20q3 -14 -9 -25q-10 -10 -31 -10q-15 0 -30 14q-18 14 -26 14q-12 0 -20 -15q-3 -3 -4 -5q0 -2 -4 -5q-5 -7 -10 3zM178 679
l48 -265q1 -8 25 -136q7 -42 14.5 -80t11 -56t3.5 -20q2 -3 9 -45q3 -16 7.5 -37.5t5.5 -26.5q3 -10 -2 -15q-2 -2 -4 -3t-5 -1q-8 0 -11 11l-8 38q-3 15 -9 48q-84 2 -104 2h-12h-18q-55 0 -69 1l-17 -91q-3 -9 -11 -9h-4l-2 1q-2 1 -2 2q-4 4 -4 14q2 17 21 109
q0 3 2.5 15.5t7.5 40.5t10 57q25 141 31 160q15 68 28 148l24 136q4 14 7 19q5 5 9 6q4 0 7 -1q3 -2 5 -5q5 -11 6 -17zM66 116h39h39h114q-19 92 -32 164q-3 13 -6 35q-3 25 -6 37q-36 200 -37 202t-7 44q-3 26 -8 53l-11 -55q-7 -35 -9 -44l-48 -274l-16 -89z" />
    <glyph glyph-name="Adieresis" unicode="&#xc4;" horiz-adv-x="307" 
d="M193 720h-7q-15 0 -15 17q-1 7 3 16q5 5 12 5q20 0 22 -17q2 -15 -15 -21zM134 720h-6q-14 0 -16 17q0 11 4 16q5 5 12 5q9 0 14.5 -5t5.5 -12q2 -15 -14 -21zM178 679l48 -265q1 -8 25 -136q7 -42 14.5 -80t11 -56t3.5 -20q2 -3 9 -45q3 -16 7.5 -37.5t5.5 -26.5
q3 -10 -2 -15q-2 -2 -4 -3t-5 -1q-8 0 -11 11l-8 38q-3 15 -9 48q-84 2 -104 2h-12h-18q-55 0 -69 1l-17 -91q-3 -9 -11 -9h-4l-2 1q-2 1 -2 2q-4 4 -4 14q2 17 21 109q0 3 2.5 15.5t7.5 40.5t10 57q25 141 31 160q15 68 28 148l24 136q4 14 7 19q5 5 9 6q4 0 7 -1
q3 -2 5 -5q5 -11 6 -17zM66 116h39h39h114q-19 92 -32 164q-3 13 -6 35q-3 25 -6 37q-36 200 -37 202t-7 44q-3 26 -8 53l-11 -55q-7 -35 -9 -44l-48 -274l-16 -89z" />
    <glyph glyph-name="Aring" unicode="&#xc5;" horiz-adv-x="307" 
d="M156 807q-12 -7 -23 -30q-8 -21 -8 -34q0 -2 1 -3v-4q5 -29 28 -34q2 0 3 -1h1l1 1h1h5q17 3 32 29q5 8 10 31v6q0 17 -9 29q-11 13 -24 14h-4zM117 787q19 40 55 40h3q23 0 38 -21q14 -17 14 -41q0 -15 -4 -24q-11 -30 -26 -45q-9 -7 -20 -12q1 -2 1 -5l48 -265
q1 -8 25 -136q7 -42 14.5 -80t11 -56t3.5 -20q2 -3 9 -45q3 -16 7.5 -37.5t5.5 -26.5q0 -2 1 -3q2 -5 -3 -10q-4 -6 -9 -6q-8 0 -11 11l-8 38q-3 15 -9 48q-84 2 -104 2h-12h-18q-55 0 -69 1l-17 -91q-3 -9 -11 -9h-4l-2 1q-2 1 -2 2q-4 4 -4 14q2 17 21 109q0 3 2.5 15.5
t7.5 40.5t10 57q25 141 31 160q15 68 28 148l24 136q1 2 1 6q-29 9 -36 33q-3 12 -3 21q0 26 11 50zM66 116h39h39h114q-19 92 -32 164q-3 13 -6 35q-3 25 -6 37q-36 200 -37 202t-7 44q-3 26 -8 53l-11 -55q-7 -35 -9 -44l-48 -274l-16 -89z" />
    <glyph glyph-name="AE" unicode="&#xc6;" horiz-adv-x="374" 
d="M218 209q2 -34 3 -98l2 -86h24h11h5h19h7h18q20 0 27 -1q11 -2 11 -4h1q0 2 1 2l5 -6v-1q0 -5 -6 -11q-8 -5 -14 -5q-3 0 -4 1q-10 -2 -28 -2h-24q-10 1 -22 1q-13 0 -25 -1q-10 -1 -24 -1h-7q0 1 -1 1l-1 2l-1 2v12v31q-1 15 -1 35v12q-4 1 -19 1h-11h-19q-54 0 -68 1
l-18 -91q-3 -9 -11 -9q-2 0 -4 2q-8 0 -8 9q0 2 1 3v3q1 16 11 57t11 52q44 251 50 273q11 53 27 146q9 52 25 133q2 12 5 16q1 8 6 10h3h18q5 -1 22 -1h8q21 0 37 1q17 1 37 1h7h2h5q20 0 20 -8q-3 -9 -7 -11q-6 -6 -15 -6q-9 -1 -39 -1q-14 0 -26 1h-30q-1 -4 -1 -14v-13
q1 -5 1 -12q0 -33 -1 -48v-46v-5q1 -2 1 -5q0 -17 2 -17h4h7q3 0 7.5 0.5t11.5 1t12 0.5q25 0 31 1l10 -2q3 -6 4 -11q-4 -9 -14 -10q-3 -1 -6 -1q-5 -1 -30 -1q-14 0 -38 -3v-24q0 -74 1 -79q0 -23 1 -41t1 -41q1 -5 1 -20v-46v-15q0 -11 -1 -14zM184 665q-15 -72 -25 -113
q0 -3 -2.5 -14.5t-6.5 -32.5t-7 -42q-14 -68 -19 -113q0 -1 -2 -10.5t-5 -26.5t-6 -35l-17 -89l-12 -73h40h39h33q0 46 -1 59l-2 78q0 28 -3 97q-2 94 -2 112v60v50q0 37 -2 93z" />
    <glyph glyph-name="Ccedilla" unicode="&#xc7;" horiz-adv-x="268" 
d="M113 -61q1 2 3 5t3 5q5 6 6 10l12 25l2 4q-36 4 -61 23q-26 31 -32 76q-5 40 -5 120v27q-1 12 -1 27v15v112v55q0 116 6 158q1 7 2.5 17t2.5 14q3 10 9 21q6 12 18 24q26 26 75 28h4q37 0 57 -26q14 -18 22 -48q5 -20 7 -38q0 -2 1 -4v-4q0 -15 -12 -15q-4 0 -5 1
q-2 0 -3 1t-1 3q-1 1 -1 2q-1 2 -1 3v4q-1 2 -1 5q-3 12 -5 23q-3 21 -6 27q-13 44 -59 44q-24 0 -39 -9q-17 -9 -25 -28q-9 -17 -12 -34q-3 -12 -7 -38q-4 -32 -4 -123q0 -56 -1 -71v-21v-90v-76q0 -47 4 -79q6 -52 19 -71q19 -32 69 -32q44 0 58 36q8 17 12 52q5 19 13 19
q11 -2 11 -15q0 -4 -8 -46q-8 -30 -22 -48q-18 -22 -54 -22v-3q-1 -6 -12 -22l-2 -6l-5 -7l-4 -6q-4 -9 -10 -15t-12 -6q-11 5 -6 17z" />
    <glyph glyph-name="Egrave" unicode="&#xc8;" horiz-adv-x="221" 
d="M135 736q3 -12 -6 -16q-6 0 -12 6q-5 4 -11 14v2q-1 1 -2 3l-2 4q-6 7 -6 11q-9 14 -12 21q-3 12 2 17q3 4 8 4q6 -1 8 -5l9 -16l12 -24q2 -3 6 -11q2 -4 6 -10zM68 121q2 -70 3 -96h27h88q17 0 17 -11q0 -10 -13 -13q-10 -2 -23 -2h-8h-7h-47q-12 0 -24 -1
q-10 -1 -25 -1h-4q-3 0 -5 2q-1 1 -1 10v5v31q-1 15 -1 35v26q0 54 -1 69l-1 78q-1 46 -1 209v75v26v27v24v78q0 6 12 6h17h8h89h7h2h5q9 0 14 -1q7 -2 7 -9q0 -4 -4 -7q-2 -2 -9 -4q-8 -2 -10 -2q-9 -1 -54 -1h-35h-26v-17v-22q0 -121 1 -121h6h11q3 1 17.5 1.5t20.5 0.5
q25 0 31 1q8 0 12 -7q3 -8 -2 -13q-2 -2 -17 -4q-5 -1 -29 -1q-25 0 -49 -3v-24v-227v-15q0 -42 1 -102z" />
    <glyph glyph-name="Eacute" unicode="&#xc9;" horiz-adv-x="218" 
d="M109 736q1 4 6 10q4 8 5 11l12 24l9 16q1 3 9 5q5 0 8 -4q4 -6 1 -17q-1 -4 -12 -21l-3 -6l-5 -8q-1 -4 -3 -6q-4 -9 -9 -14q-6 -6 -12 -6q-10 4 -6 16zM65 121q2 -70 3 -96h27h88q17 0 17 -11q0 -10 -13 -13q-10 -2 -23 -2h-8h-8h-46q-12 0 -24 -1q-10 -1 -25 -1h-4
q-3 0 -5 2q-1 1 -1 10v5v31q-1 15 -1 35v26q0 54 -1 69l-1 78q-1 46 -1 209v75v26v27v24v78q0 6 12 6h17h8h89h7h2h5q9 0 14 -1q7 -2 7 -9q0 -4 -4 -7q-2 -2 -9 -4q-8 -2 -10 -2q-9 -1 -54 -1h-35h-27v-17v-22q0 -121 1 -121h7h11q3 0 7.5 0.5t11.5 1t12 0.5q24 0 30 1
q9 0 13 -7q3 -8 -2 -13q-2 -2 -17 -4q-5 -1 -30 -1q-18 0 -42 -3v-24v-227v-15q0 -15 1 -45t1 -57z" />
    <glyph glyph-name="Ecircumflex" unicode="&#xca;" horiz-adv-x="221" 
d="M119 795q5 2 8 0q1 -1 19 -14q3 -1 39 -30q3 -2 5.5 -4.5t4.5 -4t3 -2.5l2 -2q7 -9 -1 -14q-9 -4 -16 1q-1 1 -15 13l-16 15q-8 7 -11 8q-14 12 -19 14q-35 -24 -65 -49q-10 -9 -17 -5q-5 2 -5 6q-2 5 3 8l23 20q7 3 23 17q22 16 35 23zM68 121q2 -70 3 -96h27h88
q17 0 17 -11q0 -10 -13 -13q-10 -2 -23 -2h-8h-7h-47q-12 0 -24 -1q-10 -1 -25 -1h-4q-3 0 -5 2q-1 1 -1 10v5v31q-1 15 -1 35v26q0 54 -1 69l-1 78q-1 46 -1 209v75v26v27v24v78q0 6 12 6h17h8h89h7h2h5q9 0 14 -1q7 -2 7 -9q0 -4 -4 -7q-2 -2 -9 -4q-8 -2 -10 -2
q-9 -1 -54 -1h-35h-26v-17v-22q0 -121 1 -121h6h11q3 1 17.5 1.5t20.5 0.5q25 0 31 1q8 0 12 -7q3 -8 -2 -13q-2 -2 -17 -4q-5 -1 -29 -1q-25 0 -49 -3v-24v-227v-15q0 -42 1 -102z" />
    <glyph glyph-name="Edieresis" unicode="&#xcb;" horiz-adv-x="221" 
d="M151 720h-7q-15 0 -15 17q0 10 3 16q5 5 12 5q20 0 22 -17q2 -15 -15 -21zM92 720h-6q-15 0 -15 17q0 10 3 16q5 5 12 5q20 0 22 -17q2 -15 -16 -21zM68 121q2 -70 3 -96h27h88q17 0 17 -11q0 -10 -13 -13q-10 -2 -23 -2h-8h-7h-47q-12 0 -24 -1q-10 -1 -25 -1h-4
q-3 0 -5 2q-1 1 -1 10v5v31q-1 15 -1 35v26q0 54 -1 69l-1 78q-1 46 -1 209v75v26v27v24v78q0 6 12 6h17h8h89h7h2h5q9 0 14 -1q7 -2 7 -9q0 -4 -4 -7q-2 -2 -9 -4q-8 -2 -10 -2q-9 -1 -54 -1h-35h-26v-17v-22q0 -121 1 -121h6h11q3 1 17.5 1.5t20.5 0.5q25 0 31 1
q8 0 12 -7q3 -8 -2 -13q-2 -2 -17 -4q-5 -1 -29 -1q-25 0 -49 -3v-24v-227v-15q0 -42 1 -102z" />
    <glyph glyph-name="Igrave" unicode="&#xcc;" horiz-adv-x="99" 
d="M60 736q4 -12 -6 -16q-6 0 -12 6q-5 5 -9 14l-1 2q-1 1 -2 3l-2 4q-5 9 -6 11q-11 17 -12 21q-3 11 1 17q3 4 9 4q7 -2 8 -5l9 -16l12 -24q2 -5 6 -11zM44 52v89v38q0 38 1 65v62q0 46 -1 65v45v107v34v83v53q0 16 9 16h1q1 -1 2 -1q4 -1 7 -9q3 -9 3 -19v-27v-53v-15
v-32v-38v-35v-14v-32q1 -18 1 -61v-62q-1 -28 -1 -65v-23v-113v-86v-10q0 -18 -6 -18h-4q-12 0 -12 32v19v5z" />
    <glyph glyph-name="Iacute" unicode="&#xcd;" horiz-adv-x="99" 
d="M47 736q1 4 6 10q4 8 5 11l13 24l9 16q1 3 8 5q5 0 8 -4q4 -6 1 -17q-1 -6 -11 -21l-3 -6l-5 -8l-3 -6q-4 -9 -9 -14q-6 -6 -13 -6q-10 4 -6 16zM44 52v89v38q0 38 1 65v62q0 46 -1 65v45v107v34v83v53q0 16 9 16h1q1 -1 2 -1q4 -1 7 -9q3 -9 3 -19v-27v-53v-15v-32v-38
v-35v-14v-32q1 -18 1 -61v-62q-1 -28 -1 -65v-23v-113v-86v-10q0 -18 -6 -18h-4q-12 0 -12 32v19v5z" />
    <glyph glyph-name="Icircumflex" unicode="&#xce;" horiz-adv-x="99" 
d="M54 795q5 2 8 0l2 -2q3 -2 8 -5.5t10 -6.5q3 -1 39 -30q8 -7 14 -13q7 -9 -1 -14q-8 -4 -15 1q-2 2 -7.5 6t-8.5 7l-16 15q-2 1 -3.5 2.5l-2.5 2.5l-2 2t-2 1q-13 12 -20 14q-28 -20 -64 -49q-11 -9 -18 -5q-5 2 -5 6q-2 5 3 8l24 20q4 2 22 17q22 16 35 23zM44 52v89v38
q0 38 1 65v62q0 46 -1 65v45v107v34v83v53q0 16 9 16h1q1 -1 2 -1q4 -1 7 -9q3 -9 3 -19v-27v-53v-15v-32v-38v-35v-14v-32q1 -18 1 -61v-62q-1 -28 -1 -65v-23v-113v-86v-10q0 -18 -6 -18h-4q-12 0 -12 32v19v5z" />
    <glyph glyph-name="Idieresis" unicode="&#xcf;" horiz-adv-x="99" 
d="M91 757q10 -1 10 -12v-10q0 -12 -14 -14h-3l-2 -1q-10 0 -11 4q-5 12 -5 16q0 9 4 13q4 6 12 6q1 0 9 -2zM33 760q10 -1 10 -12v-10q0 -10 -14 -15h-6q-9 0 -12 4q-5 13 -5 16q0 6 4 13q5 5 13 5q3 0 6 -1h4zM44 52v89v38q0 38 1 65v62q0 46 -1 65v45v107v34v83v53
q0 16 9 16h1q1 -1 2 -1q4 -1 7 -9q3 -9 3 -19v-27v-53v-15v-32v-38v-35v-14v-32q1 -18 1 -61v-62q-1 -28 -1 -65v-23v-113v-86v-10q0 -18 -6 -18h-4q-12 0 -12 32v19v5z" />
    <glyph glyph-name="Eth" unicode="&#xd0;" horiz-adv-x="301" 
d="M131 672q-25 9 -44 9v-13q0 -32 -1 -62q0 -57 -1 -76v-11v-23v-19q0 -24 -1 -43v-46q7 1 34 1q10 0 10 -1h9h15q24 0 28 -4q4 -1 4 -5q-2 -9 -14 -9q-17 -1 -44 -1h-27h-15v-10v-133q0 -103 1 -132q1 -14 1 -63v-20q46 15 62 29q72 69 91 204q9 69 9 117q0 28 -1 35l-1 4
v11v15q-2 16 -2 32q-2 6 -3 27q-1 9 -4 33l-6 26q-5 16 -9 27q-5 14 -11 24q-41 65 -80 77zM238 589q2 -5 5.5 -14t4.5 -10q3 -8 7 -26q3 -15 5 -23q0 -3 1.5 -12t2.5 -16q0 -19 2 -23q0 -14 2 -30v-13.5t0.5 -10t0.5 -4.5v-27q0 -134 -29 -226q-19 -62 -49 -102
q-45 -60 -118 -64h-3q-1 -1 -3 -1q-5 0 -5 5v2v8v10v11v8v107v49q-2 96 -2 101q0 23 1 40v41q-13 0 -16 1q-9 0 -9 8q0 5 7 8q1 1 8 1q5 1 10 1v9v35q-1 14 -1 36v34q0 45 1 78v71v46q0 3 1 3q7 7 21 7q12 0 30 -5q83 -23 125 -113z" />
    <glyph glyph-name="Ntilde" unicode="&#xd1;" horiz-adv-x="336" 
d="M110 722q-7 7 4 24q8 11 15 14q7 4 14 4q14 0 25 -7q4 -4 9 -8q3 -2 7 -5t5 -4q6 -3 13 -3q13 0 16 3q9 7 1 21q-7 7 -1 14q7 7 18 -4q5 -5 8 -20q3 -14 -10 -25q-10 -10 -30 -10q-16 0 -31 14q-16 13 -26 13q-12 0 -20 -14q-3 -3 -4 -5q-1 -3 -3 -5q-5 -7 -10 3z
M285 515v57v114q0 14 9 15q2 0 3 1h2q7 0 9 -11q1 -10 1 -41v-62v-29q-1 -19 -1 -56v-37v-47q0 -88 -1 -161v-113v-56v-65q0 -10 -6 -16q-5 -6 -9 -6h-1q-9 1 -15 18l-209 628v-58v-24v-34v-13l2 -214l-1 -186q0 -54 2 -110q0 -9 -4 -13q-4 -6 -8 -6q-1 -1 -3 -1t-10 11v5
q-1 2 -1 5v43q0 58 -1 103v102v75v19v58v19v50v68q0 17 0.5 69t0.5 73v2q0 12 9 12h7q14 0 60 -132l95 -288q50 -162 52 -167l5 -20q1 -3 2.5 -7t3 -6.5t1.5 -4.5q3 -7 5 -7v40v86v35q0 80 1 142v141z" />
    <glyph glyph-name="Ograve" unicode="&#xd2;" horiz-adv-x="283" 
d="M150 736q4 -11 -7 -16q-6 0 -12 6q-5 5 -9 14l-1 2q-1 1 -2 3l-2 4q-5 9 -6 11q-11 17 -12 21q-3 11 1 17q3 4 10 4q6 -2 7 -5l9 -16l12 -24q2 -5 6 -11q1 -2 3 -5t3 -5zM112 673q-21 -17 -29.5 -35.5t-14.5 -53.5q-3 -17 -4 -40.5t-2 -61t-2 -60.5q-3 -58 -3 -150
q0 -58 1 -72q1 -20 13 -91q8 -41 29 -69t42 -28h12q24 0 43.5 27t27.5 70q12 71 13 91q1 14 1 72q0 92 -3 150q-5 126 -11 162q-6 37 -13 54.5t-28 34.5q-16 13 -37 13q-19 0 -35 -13zM98 695q21 15 45 15q31 0 55 -15q13 -9 22 -21.5t14 -22t9 -31t5 -33t4 -45t4 -50.5
q0 -1 3 -82q3 -48 3 -117q0 -83 -6 -145q-11 -83 -43 -124q-25 -33 -65 -33t-65 33q-32 41 -43 124q-6 62 -6 145q0 69 3 117q1 29 2 63.5t1 50.5t2.5 38.5t6.5 47.5q10 57 49 85z" />
    <glyph glyph-name="Oacute" unicode="&#xd3;" horiz-adv-x="283" 
d="M137 736q1 4 6 10q4 8 5 11l13 24l9 16q1 3 8 5q5 0 8 -4q4 -6 1 -17q-1 -6 -11 -21l-3 -6l-5 -8l-3 -6q-4 -9 -9 -14q-6 -6 -13 -6q-10 4 -6 16zM112 673q-21 -17 -29.5 -35.5t-14.5 -53.5q-3 -17 -4 -40.5t-2 -61t-2 -60.5q-3 -58 -3 -150q0 -58 1 -72q1 -20 13 -91
q8 -41 29 -69t42 -28h12q24 0 43.5 27t27.5 70q12 71 13 91q1 14 1 72q0 92 -3 150q-5 126 -11 162q-6 37 -13 54.5t-28 34.5q-16 13 -37 13q-19 0 -35 -13zM98 695q21 15 45 15q31 0 55 -15q13 -9 22 -21.5t14 -22t9 -31t5 -33t4 -45t4 -50.5q0 -1 3 -82q3 -48 3 -117
q0 -83 -6 -145q-11 -83 -43 -124q-25 -33 -65 -33t-65 33q-32 41 -43 124q-6 62 -6 145q0 69 3 117q1 29 2 63.5t1 50.5t2.5 38.5t6.5 47.5q10 57 49 85z" />
    <glyph glyph-name="Ocircumflex" unicode="&#xd4;" horiz-adv-x="283" 
d="M143 795q5 2 9 0q1 -1 19 -14q3 -1 39 -30q8 -7 14 -13q7 -9 -1 -14q-8 -4 -15 1q-1 1 -15 13l-17 15q-2 1 -3.5 2.5l-2.5 2.5l-2 2t-2 1q-13 12 -20 14q-28 -20 -64 -49q-10 -9 -17 -5q-6 2 -6 6q-2 5 3 8l24 20q6 3 23 17q26 18 34 23zM112 673q-21 -17 -29.5 -35.5
t-14.5 -53.5q-3 -17 -4 -40.5t-2 -61t-2 -60.5q-3 -58 -3 -150q0 -58 1 -72q1 -20 13 -91q8 -41 29 -69t42 -28h12q24 0 43.5 27t27.5 70q12 71 13 91q1 14 1 72q0 92 -3 150q-5 126 -11 162q-6 37 -13 54.5t-28 34.5q-16 13 -37 13q-19 0 -35 -13zM98 695q21 15 45 15
q31 0 55 -15q13 -9 22 -21.5t14 -22t9 -31t5 -33t4 -45t4 -50.5q0 -1 3 -82q3 -48 3 -117q0 -83 -6 -145q-11 -83 -43 -124q-25 -33 -65 -33t-65 33q-32 41 -43 124q-6 62 -6 145q0 69 3 117q1 29 2 63.5t1 50.5t2.5 38.5t6.5 47.5q10 57 49 85z" />
    <glyph glyph-name="Otilde" unicode="&#xd5;" horiz-adv-x="283" 
d="M78 726q-7 7 4 25q7 10 15 13q7 4 15 4q13 0 24 -7q4 -4 9 -8q3 -2 8 -5l5 -4q6 -3 12 -3q13 0 16 3q9 7 1 21q-7 7 -1 14q7 7 18 -4q5 -5 8 -20q3 -14 -9 -25q-10 -10 -31 -10q-16 0 -31 14q-17 14 -25 14q-13 0 -21 -15q-3 -3 -4 -5q-1 -3 -3 -5q-5 -7 -10 3zM112 673
q-21 -17 -29.5 -35.5t-14.5 -53.5q-3 -17 -4 -40.5t-2 -61t-2 -60.5q-3 -58 -3 -150q0 -58 1 -72q1 -20 13 -91q8 -41 29 -69t42 -28h12q24 0 43.5 27t27.5 70q12 71 13 91q1 14 1 72q0 92 -3 150q-5 126 -11 162q-6 37 -13 54.5t-28 34.5q-16 13 -37 13q-19 0 -35 -13z
M98 695q21 15 45 15q31 0 55 -15q13 -9 22 -21.5t14 -22t9 -31t5 -33t4 -45t4 -50.5q0 -1 3 -82q3 -48 3 -117q0 -83 -6 -145q-11 -83 -43 -124q-25 -33 -65 -33t-65 33q-32 41 -43 124q-6 62 -6 145q0 69 3 117q1 29 2 63.5t1 50.5t2.5 38.5t6.5 47.5q10 57 49 85z" />
    <glyph glyph-name="Odieresis" unicode="&#xd6;" horiz-adv-x="283" 
d="M176 720h-6q-15 0 -15 17q-1 7 3 16q5 5 12 5q19 0 21 -17q2 -15 -15 -21zM118 720h-6q-15 0 -17 17q0 11 4 16q5 5 13 5q9 0 14.5 -5t5.5 -12q2 -15 -14 -21zM112 673q-21 -17 -29.5 -35.5t-14.5 -53.5q-8 -53 -10 -139q-1 -28 -1 -87v-86q0 -58 1 -72q1 -20 13 -91
q8 -41 29 -69t42 -28h12q24 0 43.5 27t27.5 70q12 71 13 91q1 14 1 72q0 92 -3 150q-5 126 -11 162q-6 37 -13 54.5t-28 34.5q-16 13 -37 13q-19 0 -35 -13zM98 695q21 15 45 15q31 0 55 -15q13 -9 22 -21.5t14 -22t9 -31t5 -33t4 -45t4 -50.5q0 -1 3 -82q3 -48 3 -117
q0 -83 -6 -145q-11 -83 -43 -124q-25 -33 -65 -33t-65 33q-32 41 -43 124q-6 62 -6 145q0 102 2 151q4 114 13 166q10 57 49 85z" />
    <glyph glyph-name="multiply" unicode="&#xd7;" horiz-adv-x="289" 
d="M163 408q-5 -5 3 -19l16 -29l25 -36l23 -37q2 -3 12 -15q1 -2 6 -8.5t7 -9.5q5 -10 5 -18q0 -3 -2 -7q-3 -4 -6 -4h-1q-10 3 -24 25l-16 24l-8 13l-8 14q-1 1 -2.5 3t-3 4.5t-2.5 4.5l-27 47l-10 18q-5 -5 -13 -18l-26 -47l-25 -39l-16 -24q-10 -19 -20 -23l-4 -2h-1
q-3 0 -6 4q-2 4 -2 7q0 11 14 30q4 5 8.5 10t6.5 8l2 3l23 37q4 6 12.5 18.5t11.5 17.5l17 29l3 6q0 1 1 3t1 3v5l-2 2l-7 10q-3 6 -7 10l-64 97q-18 27 -18 38q0 3 2 5h2q4 0 8 -4q3 -2 6 -7l9 -11q3 -7 8 -12q2 -2 4 -6q1 -1 2 -3q2 -2 2 -3q1 -1 2.5 -3t2.5 -3t2.5 -3.5
t2.5 -3.5q18 -25 23 -32l35 -50l33 50q13 20 22 32l9 13l9 12q5 5 8 12l9 11q3 5 6 7q4 4 9 4h2q2 -2 2 -5q0 -11 -18 -38l-65 -97q-3 -5 -7.5 -12t-5.5 -8z" />
    <glyph glyph-name="Oslash" unicode="&#xd8;" horiz-adv-x="259" 
d="M120 16h6q38 0 58 39q14 26 19 55q5 32 7 56q2 40 2 45q0 30 -1 53v48q0 6 -0.5 18t-1 35t-0.5 42v50q-1 4 -1.5 15t-0.5 17q-1 13 -1 28l-84 -249l-48 -139q0 -2 -1 -3t-1 -2q-1 -2 -1 -3q-1 -1 -1 -4q0 -6 2 -32q6 -65 48 -69zM48 556q3 46 20 99q6 19 22 37
q20 18 38 18q28 0 55 -25q27 -26 33 -57q1 -1 1 -4l19 52q8 11 14 11q2 0 2 -2q0 1 2 1h1l1 -1q-1 -1 -1 -2h2v-3q0 -14 -9 -37l-23 -69v-9q2 -14 2 -31q1 -8 2 -19t1 -14q2 -56 2 -63q1 -18 1 -82q0 -23 1 -30q0 -2 2 -46q1 -22 1 -49q0 -8 -1.5 -29.5t-1.5 -35.5
q-5 -56 -11 -77q-9 -40 -30 -66q-27 -33 -68 -33q-8 0 -10 1q-44 5 -57 46q-4 8 -7 25q-24 -69 -40 -84h-1q-4 0 -4 10q0 14 8 43q9 29 14 36h-1v1l17 50q-1 7 -1 33q0 16 -2 172v41v33q0 113 7 159zM202 580q-1 15 -3 25q-8 45 -38 68q-17 12 -36 12q-38 -1 -50 -93
q-6 -57 -9 -116q-1 -7 -1 -32q0 -15 1 -26v-26v-11q-1 -6 -1 -12q0 -29 1 -74q0 -57 2 -107v-3l60 173q13 33 31 93q21 69 27 85z" />
    <glyph glyph-name="Ugrave" unicode="&#xd9;" horiz-adv-x="336" 
d="M176 736q6 -12 -6 -16q-6 0 -12 6q-7 10 -8 14q-1 0 -2 1.5t-2 3.5t-3 4q-2 5 -6 11q-10 15 -10 21q-3 11 0 17q3 4 10 4q6 -3 6 -5l11 -16l12 -24q0 -5 6 -11q4 -8 4 -10zM191 -5q-38 0 -68 14q-37 18 -55 56q-18 33 -25 75q-6 31 -8 70q-2 90 -2 173q0 106 1 181v33v43
q0 39 1 44q2 14 9 14h2q9 -3 10 -30q1 -7 1 -35v-20v-15v-51v-84q-1 -39 -1 -87q0 -104 3 -162q0 -22 4 -54q5 -28 19 -68q14 -35 47 -58q23 -13 43 -16q5 -1 19 -1q29 0 47 15q14 11 23 34q9 21 12 38q5 25 7 48q4 54 6 181l1 45v41v48v46v42v89v14q0 8 2 24q4 16 8 16
q5 0 9 -15q3 -13 3 -48q1 -25 1 -79q0 -8 -0.5 -29t-1 -61t-0.5 -78v-40v-40q0 -53 -2 -113q-4 -82 -15 -121q-23 -79 -100 -79z" />
    <glyph glyph-name="Uacute" unicode="&#xda;" horiz-adv-x="336" 
d="M164 736q4 6 6 10q4 8 6 11l12 24l9 16q2 4 8 5q5 0 8 -4q5 -5 2 -17q-3 -7 -12 -21l-2 -6l-6 -8q0 -2 -1 -4l-1 -2q-6 -10 -11 -14q-6 -6 -12 -6q-9 4 -6 16zM191 -5q-38 0 -68 14q-37 18 -55 56q-18 33 -25 75q-6 31 -8 70q-2 90 -2 173q0 106 1 181v33v43q0 39 1 44
q2 14 9 14h2q9 -3 10 -30q1 -7 1 -35v-20v-15v-51v-84q-1 -39 -1 -87q0 -104 3 -162q0 -22 4 -54q5 -28 19 -68q14 -35 47 -58q23 -13 43 -16q5 -1 19 -1q29 0 47 15q14 11 23 34q9 21 12 38q5 25 7 48q4 54 6 181l1 45v41v48v46v42v89v14q0 8 2 24q4 16 8 16q5 0 9 -15
q3 -13 3 -48q1 -25 1 -79q0 -8 -0.5 -29t-1 -61t-0.5 -78v-40v-40q0 -53 -2 -113q-4 -82 -15 -121q-23 -79 -100 -79z" />
    <glyph glyph-name="Ucircumflex" unicode="&#xdb;" horiz-adv-x="336" 
d="M171 795q5 2 8 0l3 -2q2 -2 7 -5.5t10 -6.5q3 -1 39 -30q8 -7 14 -13q7 -9 -1 -14q-8 -4 -15 1q-2 2 -7.5 6t-8.5 7l-16 15q-2 1 -3.5 2.5l-2.5 2.5l-2 2t-2 1q-13 12 -20 14q-28 -20 -64 -49q-11 -9 -18 -5q-5 2 -5 6q-2 5 3 8l24 20q4 2 22 17q22 16 35 23zM191 -5
q-38 0 -68 14q-37 18 -55 56q-18 33 -25 75q-6 31 -8 70q-2 90 -2 173q0 106 1 181v33v43q0 39 1 44q2 14 9 14h2q9 -3 10 -30q1 -7 1 -35v-20v-15v-51v-84q-1 -39 -1 -87q0 -104 3 -162q0 -22 4 -54q5 -28 19 -68q14 -35 47 -58q23 -13 43 -16q5 -1 19 -1q29 0 47 15
q14 11 23 34q9 21 12 38q5 25 7 48q5 75 7 181l1 45v41v48v46v42v89v14q0 8 2 24q4 16 7 16q5 0 9 -15q3 -13 3 -48q1 -25 1 -79q0 -8 -0.5 -29t-1 -61t-0.5 -78v-40v-40q0 -53 -2 -113q-4 -82 -15 -121q-23 -79 -100 -79z" />
    <glyph glyph-name="Udieresis" unicode="&#xdc;" horiz-adv-x="336" 
d="M203 720h-6q-16 0 -16 17q0 10 3 16q5 5 13 5q19 0 21 -17q2 -15 -15 -21zM144 720h-6q-15 0 -15 17q0 10 3 16q5 5 12 5q20 0 22 -17q2 -15 -16 -21zM191 -5q-38 0 -68 14q-37 18 -55 56q-18 33 -25 75q-6 31 -8 70q-2 90 -2 173q0 106 1 181v33v43q0 39 1 44q2 14 9 14
h2q9 -3 10 -30q1 -7 1 -35v-20v-15v-51v-84q-1 -39 -1 -87q0 -104 3 -162q0 -22 4 -54q5 -28 19 -68q14 -35 47 -58q23 -13 43 -16q5 -1 19 -1q29 0 47 15q14 11 23 34q9 21 12 38q5 25 7 48q5 75 7 181l1 45v41v48v46v42v89v14q0 8 2 24q4 16 7 16q5 0 9 -15q3 -13 3 -48
q1 -25 1 -79q0 -8 -0.5 -29t-1 -61t-0.5 -78v-40v-40q0 -53 -2 -113q-4 -82 -15 -121q-23 -79 -100 -79z" />
    <glyph glyph-name="Yacute" unicode="&#xdd;" horiz-adv-x="277" 
d="M135 716q1 4 6 10l5 10l13 25l9 15q1 3 8 5q5 0 8 -4q4 -5 1 -16q-2 -8 -11 -22l-3 -6l-5 -7l-3 -6q-4 -9 -9 -14q-7 -7 -13 -7q-11 5 -6 17zM123 432q-7 20 -42 111t-53 142q-1 3 -1 10q1 4 9 4q11 0 15 -13q28 -80 84 -223q99 195 111 224q1 6 7 10q5 3 11 3q5 0 5 -7
q0 -4 -1 -6q-17 -45 -63 -134.5t-59 -117.5l-1 -287v-27v-26v-28q0 -30 1 -39v-6q0 -21 -9 -24h-2q-7 0 -12 24v310v100z" />
    <glyph glyph-name="Thorn" unicode="&#xde;" horiz-adv-x="212" 
d="M65 225q13 3 21 6q46 15 61 61q12 38 12 89q0 13 1 25v25q0 21 -1 26q-4 50 -25 67q-11 11 -31 11q-10 0 -28 -6q-7 0 -7 -3v-17v-14v-15v-24v-28v-32q0 -21 -1 -27q1 0 1 -1h-1v-22q0 -30 -1 -55t-1 -50v-16zM56 707h1q14 0 14 -45q0 -29 -1 -55t-1 -54q8 2 10 2t3 1
t3 1q18 2 24 2q19 0 29 -6q34 -16 41 -82q2 -26 2 -31v-25q0 -50 -1 -63q-2 -62 -18 -90q-18 -31 -64 -47q-22 -8 -33 -8v-9q0 -10 1 -18v-18v-38q-1 -17 -1 -40q0 -2 -2 -18v-18q0 -7 2 -17v-5q0 -25 -11 -30h-1q-7 0 -10 29q-1 8 -1 44v34q0 10 0.5 65.5t0.5 101.5
q2 79 2 177q0 12 2 116q3 78 3 110v13q0 20 6 21z" />
    <glyph glyph-name="germandbls" unicode="&#xdf;" horiz-adv-x="529" 
d="M419 706q33 -3 53 -21q19 -16 24 -38q4 -15 4 -35v-10q0 -16 -6 -20q-8 -2 -12 2q-5 3 -5 8v6q0 44 -17 64q-16 21 -49 21h-2q-39 0 -63 -15q-21 -13 -29 -30q-11 -24 -11 -70q0 -42 58 -124l54 -75q53 -78 70 -129q18 -39 19 -95q0 -96 -36 -132q-27 -27 -71 -27
q-12 0 -15 1q-51 6 -78 39q-25 32 -25 87q0 53 16 91q8 18 17 18q5 0 6 -1q6 -1 6 -8q0 -1 -2 -11q-1 -4 -7 -18q-2 -4 -3.5 -8.5t-1.5 -5.5q-8 -35 -8 -53v-5q3 -46 25 -73q24 -26 60 -27q44 0 67 26q26 29 26 93v14q-1 53 -30 119q-14 27 -54 86l-55 80q-54 77 -59 122
q-2 24 -2 31q0 21 6 44q12 41 42 60q28 20 75 20q9 0 13 -1zM79 507q21 -59 71 -155q45 -83 67 -144q6 -17 7 -21q5 -15 7 -37q2 -20 2 -30q0 -24 -3 -43q-1 -13 -11 -37q-9 -23 -26 -35q-20 -14 -51 -14q-32 0 -61 20q-35 25 -38 82q-1 9 -1 19v19v22v20q2 18 14 18h2
q8 -2 8 -18v-20q0 -30 2 -60q4 -53 41 -71q14 -7 30 -7h12q18 3 27 10q12 7 18 19q5 13 11 35q4 20 4 43q0 12 -2 32q-3 18 -27 75q-22 55 -56 117q-32 59 -56 116q-30 71 -30 137q0 24 4 39q7 40 36 55q24 12 58 12q21 0 44 -9q19 -8 32 -25q18 -27 19 -76v-34q0 -6 -4 -10
q-3 -4 -7 -4q-2 0 -6 4q-5 8 -6 43q-1 29 -10 52q-9 18 -25 25q-17 9 -40 9q-24 0 -39 -8q-18 -8 -25 -27q-8 -22 -8 -45q0 -41 16 -93z" />
    <glyph glyph-name="agrave" unicode="&#xe0;" horiz-adv-x="330" 
d="M164 736q3 -12 -6 -16q-7 0 -13 6q-3 3 -10 14l-1 2q0 1 -1 3l-2 4q-6 7 -6 11q-9 14 -12 21q-3 12 2 17q3 4 8 4q6 -1 8 -5l8 -16l13 -24q2 -3 6 -11q2 -4 6 -10zM123 561q16 92 22 119q9 30 12 30h1q7 -1 18 -42q9 -38 35.5 -157.5t36.5 -164.5q5 -25 33 -141
q7 -25 18 -74t15 -64q2 -7 7.5 -29t6.5 -30q0 -12 -11 -12q-4 0 -7 5.5t-6 16t-5.5 20.5t-5 23.5t-4.5 20.5q-16 63 -17 66q-82 -3 -158 -3h-26q-4 0 -7.5 0.5t-5.5 1t-3 0.5q-8 -36 -11 -54q-13 -69 -18 -87q0 -2 -2 -6q-4 -9 -10 -5q-3 3 -5 11v9q1 25 11 67
q11 46 24.5 121t31 182t30.5 176zM184 545q-5 21 -10 50t-6 35q-5 22 -8 25l-26 -148q-10 -65 -29.5 -171.5t-25.5 -142.5l-1 -8l-2 -15q13 -2 72 -2q46 0 118 4l-34 145q-11 58 -48 228z" />
    <glyph glyph-name="aacute" unicode="&#xe1;" horiz-adv-x="330" 
d="M152 736q0 4 6 10q4 8 4 11l12 24l10 16q0 3 9 5q5 0 8 -4q3 -6 0 -17q0 -5 -11 -21l-4 -6l-4 -8l-4 -6q-1 -4 -8 -14q-6 -6 -12 -6q-12 4 -6 16zM123 561q16 92 22 119q9 30 12 30h1q7 -1 18 -42q9 -38 35.5 -157.5t36.5 -164.5q5 -25 33 -141q7 -25 18 -74t15 -64
q2 -7 7.5 -29t6.5 -30q0 -12 -11 -12q-4 0 -7 5.5t-6 16t-5.5 20.5t-5 23.5t-4.5 20.5q-16 63 -17 66q-82 -3 -158 -3h-26q-4 0 -7.5 0.5t-5.5 1t-3 0.5q-8 -36 -11 -54q-13 -69 -18 -87q0 -2 -2 -6q-4 -9 -10 -5q-3 3 -5 11v9q1 25 11 67q11 46 24.5 121t31 182t30.5 176z
M184 545q-5 21 -10 50t-6 35q-5 22 -8 25l-26 -148q-10 -65 -29.5 -171.5t-25.5 -142.5l-1 -8l-2 -15q13 -2 72 -2q46 0 118 4l-34 145q-11 58 -48 228z" />
    <glyph glyph-name="acircumflex" unicode="&#xe2;" horiz-adv-x="330" 
d="M158 795q5 2 8 0q1 -1 19 -14q3 -1 39 -30q3 -2 5.5 -4.5t4.5 -4t4 -2.5l1 -2q7 -9 -1 -14q-9 -4 -16 1q-1 1 -15 13l-17 15q-2 1 -3.5 2.5l-2.5 2.5l-2 2t-2 1q-14 12 -19 14q-35 -24 -65 -49q-10 -9 -17 -5q-5 2 -5 6q-2 5 3 8l23 20q6 3 23 17q22 16 35 23zM123 561
q16 92 22 119q9 30 12 30h1q7 -1 18 -42q9 -38 35.5 -157.5t36.5 -164.5q5 -25 33 -141q7 -25 18 -74t15 -64q2 -7 7.5 -29t6.5 -30q0 -12 -11 -12q-4 0 -7 5.5t-6 16t-5.5 20.5t-5 23.5t-4.5 20.5q-16 63 -17 66q-82 -3 -158 -3h-26q-4 0 -7.5 0.5t-5.5 1t-3 0.5
q-8 -36 -11 -54q-13 -69 -18 -87q0 -2 -2 -6q-4 -9 -10 -5q-3 3 -5 11v9q1 25 11 67q11 46 24.5 121t31 182t30.5 176zM184 545q-5 21 -10 50t-6 35q-5 22 -8 25l-26 -148q-10 -65 -29.5 -171.5t-25.5 -142.5l-1 -8l-2 -15q13 -2 72 -2q46 0 118 4l-34 145q-11 58 -48 228z
" />
    <glyph glyph-name="atilde" unicode="&#xe3;" horiz-adv-x="330" 
d="M91 726q-7 7 4 25q7 9 16 13q7 4 14 4q14 0 25 -7q4 -4 9 -8q3 -2 7 -5t5 -4q6 -3 12 -3q14 0 17 3q9 7 1 21q-7 7 -1 14t17 -4q5 -5 8 -20q3 -14 -9 -25q-10 -10 -31 -10q-15 0 -30 14q-17 14 -26 14q-12 0 -20 -15l-5 -5q-1 -3 -3 -5q-5 -7 -10 3zM123 561
q16 92 22 119q9 30 12 30h1q7 -1 18 -42q9 -38 35.5 -157.5t36.5 -164.5q5 -25 33 -141q7 -25 18 -74t15 -64q2 -7 7.5 -29t6.5 -30q0 -12 -11 -12q-4 0 -7 5.5t-6 16t-5.5 20.5t-5 23.5t-4.5 20.5q-16 63 -17 66q-82 -3 -158 -3h-26q-4 0 -7.5 0.5t-5.5 1t-3 0.5
q-8 -36 -11 -54q-13 -69 -18 -87q0 -2 -2 -6q-4 -9 -10 -5q-3 3 -5 11v9q1 25 11 67q11 46 24.5 121t31 182t30.5 176zM184 545q-5 21 -10 50t-6 35q-5 22 -8 25l-26 -148q-10 -65 -29.5 -171.5t-25.5 -142.5l-1 -8l-2 -15q13 -2 72 -2q46 0 118 4l-34 145q-11 58 -48 228z
" />
    <glyph glyph-name="adieresis" unicode="&#xe4;" horiz-adv-x="330" 
d="M189 720h-6q-15 0 -15 17q0 10 3 16q5 5 12 5q20 0 22 -17q2 -15 -16 -21zM131 720h-6q-15 0 -15 17q0 10 3 16q5 5 12 5q19 0 21 -17q2 -15 -15 -21zM123 561q16 92 22 119q9 30 12 30h1q7 -1 18 -42q9 -38 35.5 -157.5t36.5 -164.5q5 -25 33 -141q7 -25 18 -74t15 -64
q2 -7 7.5 -29t6.5 -30q0 -12 -11 -12q-4 0 -7 5.5t-6 16t-5.5 20.5t-5 23.5t-4.5 20.5q-16 63 -17 66q-82 -3 -158 -3h-26q-4 0 -7.5 0.5t-5.5 1t-3 0.5q-8 -36 -11 -54q-13 -69 -18 -87q0 -2 -2 -6q-4 -9 -10 -5q-3 3 -5 11v9q1 25 11 67q11 46 24.5 121t31 182t30.5 176z
M184 545q-5 21 -10 50t-6 35q-5 22 -8 25l-26 -148q-10 -65 -29.5 -171.5t-25.5 -142.5l-1 -8l-2 -15q13 -2 72 -2q46 0 118 4l-34 145q-11 58 -48 228z" />
    <glyph glyph-name="aring" unicode="&#xe5;" horiz-adv-x="330" 
d="M154 809q-9 -6 -23 -30q-8 -26 -8 -34q0 -2 2 -3v-4q3 -28 27 -33h1q2 5 4 5h1q3 0 6 -5q17 3 31 28q7 13 10 31v6q0 18 -8 29q-13 13 -25 14h-4zM115 790q20 39 55 39h4q22 0 37 -21q14 -15 14 -41q0 -17 -4 -24q-12 -32 -26 -45q-9 -7 -23 -14q1 -3 2.5 -8.5t1.5 -7.5
q9 -38 35.5 -157.5t36.5 -164.5q5 -25 33 -141q7 -25 18 -74t15 -64q2 -7 7.5 -29t6.5 -30q0 -12 -11 -12q-4 0 -7 5.5t-6 16t-5.5 20.5t-5 23.5t-4.5 20.5q-16 63 -17 66q-82 -3 -158 -3h-26q-4 0 -7.5 0.5t-5.5 1t-3 0.5q-8 -36 -11 -54q-13 -69 -18 -87q0 -2 -2 -6
q-4 -9 -10 -5q-3 3 -5 11v9q1 25 11 67q11 46 24.5 121t31 182t30.5 176q16 92 22 119l1 2v2q-30 8 -40 34q0 1 -1 8t-1 13q0 23 11 51zM184 545q-5 21 -10 50t-6 35q-5 22 -8 25l-26 -148q-10 -65 -29.5 -171.5t-25.5 -142.5l-1 -8l-2 -15q13 -2 72 -2q46 0 118 4l-34 145
q-11 58 -48 228z" />
    <glyph glyph-name="ae" unicode="&#xe6;" horiz-adv-x="403" 
d="M187 678l-28 -126q0 -3 -2.5 -14.5t-6.5 -32.5t-7 -42q-14 -68 -19 -113q0 -1 -2 -10.5t-5 -26.5t-6 -35l-17 -89l-12 -73h40h39h33v11q-1 34 -1 92q0 59 1 94q0 24 -1 37q0 20 -1.5 58.5t-1.5 53.5v60v50q0 22 -3 106zM287 701q66 0 85 -75q9 -37 9 -191v-26
q0 -76 -6 -81q-8 -7 -60 -7q-12 0 -32.5 0.5t-27.5 0.5h-37v-18q1 -5 1 -20v-83q0 -51 1 -90v-12q1 -2 1 -6q6 -35 24.5 -57.5t42.5 -22.5q42 0 60 25q9 13 10 51v27v10q0 36 8 41q4 2 7 2h1q9 0 9 -13v-81q0 -28 -17 -53q-6 -11 -33 -23q-18 -8 -46 -8q-41 0 -67 38v-13
q0 -5 -2.5 -9.5t-5 -7t-3.5 -2.5h-2q-12 0 -12 17v31q-1 15 -1 35v12q-4 1 -19 1h-11h-19q-54 0 -68 1l-18 -91q-3 -9 -11 -9q-2 0 -4 2q-8 0 -8 9q15 55 23 115q44 251 50 273q11 53 27 146q9 52 25 133q2 12 5 16q1 8 6 10h3h18h5h10q5 0 5 -1q1 -12 1 -39q26 43 70 43h3z
M217 345h37q9 0 27 -0.5t26 -0.5q40 0 48 6q2 3 2 40v45v49q0 96 -3 113q-10 80 -70 80h-3q-32 0 -49.5 -36t-17.5 -79q0 -73 3 -217z" />
    <glyph glyph-name="ccedilla" unicode="&#xe7;" horiz-adv-x="237" 
d="M94 -54q1 2 3 5t3 5q5 6 6 10l13 25q-31 5 -44 22q-18 23 -26 76q-5 38 -6 81q-2 68 -2 82v59q1 27 1 61q0 52 -1 67v34q0 5 2 87q4 52 11 77q18 67 71 69q61 0 88 -19q6 -4 7 -9q-1 -10 -8 -12h-3q-8 2 -25 6.5t-26 6.5q-16 2 -23 2q-21 0 -33 -9q-18 -12 -28 -55
q-11 -44 -11 -127v-22q2 -52 2 -103q0 -131 3 -197q5 -74 10 -97q12 -57 49 -57h2q33 0 52 19l9 8q7 9 14 11q4 3 9 3q4 0 5 -1q2 -8 2 -10v-3q-3 -20 -25 -32q-27 -17 -51 -19q-1 -6 -11 -21l-2 -6l-4 -7l-4 -6q-4 -9 -10 -15t-13 -6q-11 5 -6 17z" />
    <glyph glyph-name="egrave" unicode="&#xe8;" horiz-adv-x="271" 
d="M156 734q4 -12 -6 -16q-7 0 -13 6q-5 5 -9 14l-5 8q-5 8 -6 12q-11 17 -12 21q-3 11 1 17q3 4 10 4q6 -2 7 -5l9 -16l12 -24q1 -3 7 -11zM150 707q65 0 86 -76q5 -21 7 -92q0 -2 0.5 -9t0.5 -22v-37q0 -75 -6 -81q-7 -6 -52 -6q-13 0 -42.5 1.5t-37.5 1.5q-17 0 -21 -0.5
t-16 -0.5v-32q0 -13 -0.5 -52.5t-0.5 -62.5v-50q0 -52 6 -90q8 -49 36 -72q16 -13 40 -13q16 0 30 6q37 17 41 86v13l-1 37q3 15 13 15h1q10 0 10 -13v-36q0 -50 -9 -74.5t-39 -46.5q-14 -10 -48 -10q-31 2 -47 12q-39 23 -51 88q-7 38 -7 113v12q1 53 1 130v111v69
q2 78 12 112q7 23 17.5 38t26 21t24 7.5t26.5 2.5zM67 469q0 -27 1 -59h36q9 0 33.5 -1.5t32.5 -1.5q40 0 48 6q3 4 3 47v59q-1 67 -3 83q-4 34 -22 57t-50 23q-41 0 -62 -41q-15 -26 -17 -110v-62z" />
    <glyph glyph-name="eacute" unicode="&#xe9;" horiz-adv-x="271" 
d="M137 734q1 4 6 10q4 8 5 11l13 24l9 16q1 3 8 5q5 0 8 -4q4 -6 1 -17q-1 -6 -11 -21l-3 -6l-5 -8l-3 -6q-4 -9 -9 -14q-6 -6 -13 -6q-10 4 -6 16zM150 707q65 0 86 -76q5 -21 7 -92q0 -2 0.5 -9t0.5 -22v-37q0 -75 -6 -81q-7 -6 -52 -6q-13 0 -42.5 1.5t-37.5 1.5
q-17 0 -21 -0.5t-16 -0.5v-32q0 -13 -0.5 -52.5t-0.5 -62.5v-50q0 -52 6 -90q8 -49 36 -72q16 -13 40 -13q16 0 30 6q37 17 41 86v13l-1 37q3 15 13 15h1q10 0 10 -13v-36q0 -50 -9 -74.5t-39 -46.5q-14 -10 -48 -10q-31 2 -47 12q-39 23 -51 88q-7 38 -7 113v12q1 53 1 130
v111v69q2 78 12 112q7 23 17.5 38t26 21t24 7.5t26.5 2.5zM67 469q0 -27 1 -59h36q9 0 33.5 -1.5t32.5 -1.5q40 0 48 6q3 4 3 47v59q-1 67 -3 83q-4 34 -22 57t-50 23q-41 0 -62 -41q-15 -26 -17 -110v-62z" />
    <glyph glyph-name="ecircumflex" unicode="&#xea;" horiz-adv-x="271" 
d="M144 793q5 2 9 0q1 -1 19 -14q3 -1 39 -30q8 -7 14 -13q7 -9 -1 -14q-8 -4 -15 1q-1 1 -15 13l-17 15q-2 1 -3.5 2.5l-2.5 2.5l-2 2t-2 1q-13 12 -20 14q-28 -20 -64 -49q-10 -9 -17 -5q-6 2 -6 6q-2 5 3 8l24 20q7 3 23 17q26 18 34 23zM150 707q65 0 86 -76
q5 -21 7 -92q0 -2 0.5 -9t0.5 -22v-37q0 -75 -6 -81q-7 -6 -52 -6q-13 0 -42.5 1.5t-37.5 1.5q-17 0 -21 -0.5t-16 -0.5v-32q0 -13 -0.5 -52.5t-0.5 -62.5v-50q0 -52 6 -90q8 -49 36 -72q16 -13 40 -13q16 0 30 6q37 17 41 86v13l-1 37q3 15 13 15h1q10 0 10 -13v-36
q0 -50 -9 -74.5t-39 -46.5q-14 -10 -48 -10q-31 2 -47 12q-39 23 -51 88q-7 38 -7 113v12q1 53 1 130v111v69q2 78 12 112q7 23 17.5 38t26 21t24 7.5t26.5 2.5zM67 469q0 -27 1 -59h36q9 0 33.5 -1.5t32.5 -1.5q40 0 48 6q3 4 3 47v59q-1 67 -3 83q-4 34 -22 57t-50 23
q-41 0 -62 -41q-15 -26 -17 -110v-62z" />
    <glyph glyph-name="edieresis" unicode="&#xeb;" horiz-adv-x="271" 
d="M182 718h-6q-15 0 -15 17q0 10 3 16q5 5 12 5q20 0 22 -17q2 -15 -16 -21zM124 718h-6q-16 0 -16 17q-1 7 3 16q5 5 13 5q19 0 21 -17q2 -15 -15 -21zM150 707q65 0 86 -76q5 -21 7 -92q0 -2 0.5 -9t0.5 -22v-37q0 -75 -6 -81q-7 -6 -52 -6q-13 0 -42.5 1.5t-37.5 1.5
q-17 0 -21 -0.5t-16 -0.5v-32q0 -13 -0.5 -52.5t-0.5 -62.5v-50q0 -52 6 -90q8 -49 36 -72q16 -13 40 -13q16 0 30 6q37 17 41 86v13l-1 37q3 15 13 15h1q10 0 10 -13v-36q0 -50 -9 -74.5t-39 -46.5q-14 -10 -48 -10q-31 2 -47 12q-39 23 -51 88q-7 38 -7 113v12q1 53 1 130
v111v69q2 78 12 112q7 23 17.5 38t26 21t24 7.5t26.5 2.5zM67 469q0 -27 1 -59h36q9 0 33.5 -1.5t32.5 -1.5q40 0 48 6q3 4 3 47v59q-1 67 -3 83q-4 34 -22 57t-50 23q-41 0 -62 -41q-15 -26 -17 -110v-62z" />
    <glyph glyph-name="igrave" unicode="&#xec;" horiz-adv-x="96" 
d="M60 734q4 -12 -6 -16q-6 0 -12 6q-5 5 -9 14q-1 0 -5 8l-6 12q-11 17 -12 21q-3 11 1 17q3 4 9 4q7 -2 8 -5l9 -16l12 -24q2 -5 6 -11zM42 372q1 16 1 88v192v18q0 22 3 26q3 5 8 5q4 0 5 -3q6 -6 6 -42v-201q1 -33 1 -96v-217v-27v-26v-29q0 -29 1 -38v-7q0 -20 -10 -23
h-2q-7 0 -12 23q0 287 -1 357z" />
    <glyph glyph-name="iacute" unicode="&#xed;" horiz-adv-x="96" 
d="M48 734q1 4 6 10q4 8 5 11l13 24l9 16q1 3 8 5q5 0 8 -4q4 -6 1 -17q-1 -6 -11 -21l-3 -6l-5 -8q-1 -4 -3 -6q-4 -9 -9 -14q-6 -6 -13 -6q-10 4 -6 16zM42 372q1 16 1 88v192v18q0 22 3 26q3 5 8 5q4 0 5 -3q6 -6 6 -42v-201q1 -33 1 -96v-217v-27v-26v-29q0 -29 1 -38
v-7q0 -20 -10 -23h-2q-7 0 -12 23q0 287 -1 357z" />
    <glyph glyph-name="icircumflex" unicode="&#xee;" horiz-adv-x="96" 
d="M54 793q5 2 8 0l2 -2q3 -2 8 -5.5t10 -6.5q3 -1 39 -30q8 -7 14 -13q7 -9 -1 -14q-8 -4 -15 1q-2 2 -7.5 6t-8.5 7l-16 15q-2 1 -3.5 2.5l-2.5 2.5l-2 2t-2 1q-13 12 -20 14q-28 -20 -64 -49q-11 -9 -18 -5q-5 2 -5 6q-2 5 3 8l24 20q4 2 22 17q22 16 35 23zM42 372
q1 16 1 88v192v18q0 22 3 26q3 5 8 5q4 0 5 -3q6 -6 6 -42v-201q1 -33 1 -96v-217v-27v-26v-29q0 -29 1 -38v-7q0 -20 -10 -23h-2q-7 0 -12 23q0 287 -1 357z" />
    <glyph glyph-name="idieresis" unicode="&#xef;" horiz-adv-x="96" 
d="M87 718h-6q-15 0 -15 17q-1 7 3 16q5 5 12 5q19 0 21 -17q2 -15 -15 -21zM29 718h-6q-15 0 -17 17q0 11 4 16q5 5 13 5q9 0 14.5 -5t5.5 -12q2 -15 -14 -21zM42 372q1 16 1 88v192v18q0 22 3 26q3 5 8 5q4 0 5 -3q6 -6 6 -42v-201q1 -33 1 -96v-217v-27v-26v-29
q0 -29 1 -38v-7q0 -20 -10 -23h-2q-7 0 -12 23q0 287 -1 357z" />
    <glyph glyph-name="eth" unicode="&#xf0;" horiz-adv-x="296" 
d="M241 317q-1 15 -1 74q0 13 -0.5 29t-1 27t-0.5 18l-1 48q-1 26 -6 53q-11 30 -19 48q-19 27 -45 42q-49 25 -82 26q-2 -26 -2 -32q0 -3 0.5 -17.5t0.5 -24.5q2 -19 2 -41v-187q8 0 14 1h18q10 0 10 -1h9h15q24 0 28 -4q4 -1 4 -5q-2 -10 -14 -10q-17 -1 -44 -1h-27h-13
v-149v-102q0 -18 1 -33q1 -14 1 -34v-13v-9l1 -8q22 6 43 14q34 13 65 42q29 29 39 63q7 18 7 57q0 15 -2 129zM257 551q1 -9 4 -193q0 -6 0.5 -35t0.5 -53q2 -42 2 -87v-23q-2 -12 -2 -19q-2 -6 -2 -13q0 -1 -1.5 -5.5l-2.5 -7.5q-4 -7 -4 -11q-1 0 -6 -12l-7 -14
q-22 -34 -71 -60q-48 -29 -90 -29q-3 0 -5 1h-5q-6 0 -6 249v121q-14 0 -17 1q-9 0 -9 9q0 5 7 8q2 1 10 1q4 1 9 1q0 43 1 69v38v25q0 45 -1 57q-2 66 -2 76q0 6 2 50q0 8 9 8h4h1q44 -2 70 -11q28 -10 47 -23q22 -16 43 -51q20 -38 21 -67z" />
    <glyph glyph-name="ntilde" unicode="&#xf1;" horiz-adv-x="320" 
d="M111 724q-7 7 4 25q7 10 15 13q7 4 14 4q14 0 25 -7q4 -4 9 -8q3 -2 7 -5t5 -4q6 -3 13 -3q13 0 16 3q9 7 1 21q-8 7 -1 14q2 2 5 2q7 0 13 -6q5 -5 8 -20q3 -14 -9 -25q-10 -10 -31 -10q-16 0 -31 14q-16 13 -26 13q-12 0 -20 -14q-3 -3 -4 -5q-1 -3 -3 -5q-5 -7 -10 3z
M275 72q0 -29 5.5 -40t24.5 -13q7 -1 7 -10v-2q-2 -8 -11 -9q-1 -1 -3 -1q-22 0 -34 18.5t-12 49.5v3q0 22 1 44l3 49l4 78l5 96l3 46l4 68q2 38 2 57q0 17 -2 45q-3 33 -10 54q-6 24 -18 40q-17 24 -40 31q-11 4 -27 4q-31 0 -54 -16q-27 -16 -38 -37l-1 -2q-1 -2 -3 -5.5
t-4 -6.5q-6 -8 -8 -17q-2 -14 -2 -16v-12q0 -12 -1 -23v-25v-221v-274q0 -39 -11 -39h-1q-12 2 -13 47v33v77v76v48q0 23 0.5 67.5t1.5 64.5v109q1 48 1 110q0 48 1 58q1 22 15 22q8 0 8 -16v-28v-7h1q1 0 2 1q15 24 42 41q29 18 62 18h2q31 -2 56 -17q21 -11 30 -23
q16 -21 24 -50q8 -23 11 -60q1 -12 1 -39q0 -36 -1 -54l-6 -86l-3 -47q-1 -17 -3.5 -52t-3.5 -54q0 -11 -1.5 -35t-2.5 -38q0 -6 -1 -20.5t-1 -21.5q-1 -13 -1 -38z" />
    <glyph glyph-name="ograve" unicode="&#xf2;" horiz-adv-x="307" 
d="M166 734q4 -12 -6 -16q-7 0 -13 6q-5 5 -9 14l-5 8q-5 8 -6 12q-10 15 -11 21q-3 11 1 17q3 4 9 4q6 -2 7 -5l9 -16l13 -24q2 -5 6 -11zM65 500v-6v-31l-2 -57v-14v-23q0 -31 4 -105q6 -96 19 -146q21 -81 44 -95q7 -7 14 -8q10 -2 13 -2q29 0 47 41q16 33 27 78
q16 83 17 99q4 48 4 131q0 37 -1 66q-4 110 -8 142q-56 -93 -117 -93q-18 0 -30 5q-11 3 -31 18zM262 605q1 -5 3 -17q4 -29 6 -62q3 -68 3 -173v-31q0 -57 -4 -94q-5 -45 -11 -84q-12 -49 -19 -68q-17 -46 -40 -69q-23 -20 -53 -20q-46 2 -71 84q-15 44 -23 101
q-10 66 -10 117q-3 54 -3 118q0 58 1 74q5 75 11 107q6 40 23 71q14 25 37 36q24 13 45 13h6q8 0 30 -6q37 -12 58 -63q8 17 22 57q4 11 16 7q8 -3 8 -11q0 -2 -1 -4q-11 -34 -34 -83zM236 606q-9 33 -30 57q-12 14 -35 20q-14 2 -15 2q-17 0 -29 -6q-7 -4 -12 -8t-9 -9
t-6 -8t-5 -9.5t-4 -7.5q-3 -7 -12 -36q-9 -32 -9 -49q0 -36 33 -48q9 -3 20 -3q59 0 113 105z" />
    <glyph glyph-name="oacute" unicode="&#xf3;" horiz-adv-x="307" 
d="M154 734q1 4 6 10q4 8 5 11l12 24l9 16q1 3 9 5q5 0 8 -4q4 -6 1 -17q-1 -6 -11 -21l-4 -6l-5 -8l-3 -6q-4 -9 -9 -14q-6 -6 -12 -6q-10 4 -6 16zM65 500v-6v-31l-2 -57v-14v-23q0 -31 4 -105q6 -96 19 -146q21 -81 44 -95q7 -7 14 -8q10 -2 13 -2q29 0 47 41
q16 33 27 78q16 83 17 99q4 48 4 131q0 37 -1 66q-4 110 -8 142q-56 -93 -117 -93q-18 0 -30 5q-11 3 -31 18zM262 605q1 -5 3 -17q4 -29 6 -62q3 -68 3 -173v-31q0 -57 -4 -94q-5 -45 -11 -84q-12 -49 -19 -68q-17 -46 -40 -69q-23 -20 -53 -20q-46 2 -71 84
q-15 44 -23 101q-10 66 -10 117q-3 54 -3 118q0 58 1 74q5 75 11 107q6 40 23 71q14 25 37 36q24 13 45 13h6q8 0 30 -6q37 -12 58 -63q8 17 22 57q4 11 16 7q8 -3 8 -11q0 -2 -1 -4q-11 -34 -34 -83zM236 606q-9 33 -30 57q-12 14 -35 20q-14 2 -15 2q-17 0 -29 -6
q-7 -4 -12 -8t-9 -9t-6 -8t-5 -9.5t-4 -7.5q-3 -7 -12 -36q-9 -32 -9 -49q0 -36 33 -48q9 -3 20 -3q59 0 113 105z" />
    <glyph glyph-name="ocircumflex" unicode="&#xf4;" horiz-adv-x="307" 
d="M160 793q5 2 8 0q1 -1 19 -14q3 -1 39 -30q3 -2 5.5 -4.5t4.5 -4t4 -2.5l1 -2q7 -9 -1 -14q-9 -4 -16 1q-1 1 -15 13l-16 15q-8 7 -11 8q-14 12 -19 14q-35 -24 -65 -49q-10 -9 -17 -5q-5 2 -5 6q-2 5 3 8l23 20q6 3 23 17q22 16 35 23zM65 500v-6v-31l-2 -57v-14v-23
q0 -31 4 -105q6 -96 19 -146q21 -81 44 -95q7 -7 14 -8q10 -2 13 -2q29 0 47 41q16 33 27 78q16 83 17 99q4 48 4 131q0 37 -1 66q-4 110 -8 142q-56 -93 -117 -93q-18 0 -30 5q-11 3 -31 18zM262 605q1 -5 3 -17q4 -29 6 -62q3 -68 3 -173v-31q0 -57 -4 -94q-5 -45 -11 -84
q-12 -49 -19 -68q-17 -46 -40 -69q-23 -20 -53 -20q-46 2 -71 84q-15 44 -23 101q-10 66 -10 117q-3 54 -3 118q0 58 1 74q5 75 11 107q6 40 23 71q14 25 37 36q24 13 45 13h6q8 0 30 -6q37 -12 58 -63q8 17 22 57q4 11 16 7q8 -3 8 -11q0 -2 -1 -4q-11 -34 -34 -83z
M236 606q-9 33 -30 57q-12 14 -35 20q-14 2 -15 2q-17 0 -29 -6q-7 -4 -12 -8t-9 -9t-6 -8t-5 -9.5t-4 -7.5q-3 -7 -12 -36q-9 -32 -9 -49q0 -36 33 -48q9 -3 20 -3q59 0 113 105z" />
    <glyph glyph-name="otilde" unicode="&#xf5;" horiz-adv-x="307" 
d="M94 724q-7 7 4 25q7 9 16 13q7 4 14 4q14 0 25 -7q4 -4 9 -8q3 -2 7 -5t5 -4q6 -3 12 -3q14 0 17 3q9 7 1 21q-8 7 -1 14t17 -4q5 -5 8 -20q3 -14 -9 -25q-10 -10 -31 -10q-15 0 -30 14q-16 13 -26 13q-12 0 -20 -14q-3 -3 -4 -5q0 -2 -4 -5q-5 -7 -10 3zM65 500v-6v-31
l-2 -57v-14v-23q0 -31 4 -105q6 -96 19 -146q21 -81 44 -95q7 -7 14 -8q10 -2 13 -2q29 0 47 41q16 33 27 78q16 83 17 99q4 48 4 131q0 37 -1 66q-4 110 -8 142q-56 -93 -117 -93q-18 0 -30 5q-11 3 -31 18zM262 605q1 -5 3 -17q4 -29 6 -62q3 -68 3 -173v-31q0 -57 -4 -94
q-5 -45 -11 -84q-12 -49 -19 -68q-17 -46 -40 -69q-23 -20 -53 -20q-46 2 -71 84q-15 44 -23 101q-10 66 -10 117q-3 54 -3 118q0 58 1 74q5 75 11 107q6 40 23 71q14 25 37 36q24 13 45 13h6q8 0 30 -6q37 -12 58 -63q8 17 22 57q4 11 16 7q8 -3 8 -11q0 -2 -1 -4
q-11 -34 -34 -83zM236 606q-9 33 -30 57q-12 14 -35 20q-14 2 -15 2q-17 0 -29 -6q-7 -4 -12 -8t-9 -9t-6 -8t-5 -9.5t-4 -7.5q-3 -7 -12 -36q-9 -32 -9 -49q0 -36 33 -48q9 -3 20 -3q59 0 113 105z" />
    <glyph glyph-name="odieresis" unicode="&#xf6;" horiz-adv-x="307" 
d="M193 718h-7q-15 0 -15 17q-1 7 3 16q5 5 12 5q20 0 22 -17q2 -15 -15 -21zM134 718h-6q-14 0 -16 17q0 11 4 16q5 5 12 5q9 0 14.5 -5t5.5 -12q2 -15 -14 -21zM65 500v-6v-31l-2 -57v-14v-23q0 -31 4 -105q6 -96 19 -146q21 -81 44 -95q7 -7 14 -8q10 -2 13 -2
q46 0 74 119q16 83 17 99q4 48 4 131q0 37 -1 66q-1 20 -1 49t-1 49.5t-4 43.5q-56 -93 -119 -93q-18 0 -30 5q-11 3 -31 18zM262 605q1 -5 3 -17q4 -29 6 -62q3 -68 3 -173v-31q0 -57 -4 -94q-6 -58 -11 -84q-5 -30 -19 -68q-17 -46 -40 -69q-23 -20 -53 -20q-46 2 -71 84
q-15 44 -23 101q-10 66 -10 117q-3 54 -3 118q0 57 3 107q3 39 9 74q6 40 23 71q12 23 39 38q22 11 43 11h6q27 0 50 -16q24 -18 38 -53q8 17 22 57q4 11 16 7q8 -3 8 -11q0 -2 -1 -4q-11 -34 -34 -83zM236 606q-9 33 -30 57q-12 14 -35 20q-14 2 -15 2q-17 0 -29 -6
q-20 -12 -35 -36q-22 -41 -22 -91q0 -36 33 -48q9 -3 20 -3q59 0 113 105z" />
    <glyph glyph-name="divide" unicode="&#xf7;" horiz-adv-x="276" 
d="M160 396q-1 -10 -12 -10h-10q-12 0 -14 14q0 2 -1 3v3q0 10 4 11q12 5 16 5q9 0 13 -4q6 -4 6 -12q0 -2 -2 -10zM163 266q-1 -10 -12 -10h-10q-12 0 -15 14v6q0 9 4 12q15 5 16 5q6 0 13 -4q5 -5 5 -13v-6q-1 -2 -1 -4zM101 329h-27q-23 0 -27 1q-9 0 -9 8q0 5 7 8l10 2
h12h23q12 1 30 1q17 0 30 -1h28h37q25 0 29 -4q4 -1 4 -5q-2 -9 -15 -9q-17 -1 -66 -1h-66z" />
    <glyph glyph-name="oslash" unicode="&#xf8;" horiz-adv-x="259" 
d="M120 16h6q38 0 58 39q14 26 19 55q5 32 7 56q2 40 2 45q0 30 -1 53v48q0 6 -0.5 18t-1 35t-0.5 42v50q-1 4 -1.5 15t-0.5 17q-1 13 -1 28l-84 -249l-48 -139q0 -2 -1 -3t-1 -2q-1 -2 -1 -3q-1 -1 -1 -4q0 -6 2 -32q6 -65 48 -69zM48 556q3 46 20 99q6 19 22 37
q20 18 38 18q28 0 55 -25q27 -26 33 -57q1 -1 1 -4l19 52q8 11 14 11q2 0 2 -2q0 1 2 1h1l1 -1q-1 -1 -1 -2h2v-3q0 -14 -9 -37l-23 -69v-9q2 -14 2 -31q1 -8 2 -19t1 -14q2 -56 2 -63q1 -18 1 -82q0 -23 1 -30q0 -2 2 -46q1 -22 1 -49q0 -8 -1.5 -29.5t-1.5 -35.5
q-5 -56 -11 -77q-9 -40 -30 -66q-27 -33 -68 -33q-8 0 -10 1q-44 5 -57 46q-4 8 -7 25q-24 -69 -40 -84h-1q-4 0 -4 10q0 14 8 43q9 29 14 36h-1v1l17 50q-1 7 -1 33q0 16 -2 172v41v33q0 113 7 159zM202 580q-1 15 -3 25q-8 45 -38 68q-17 12 -36 12q-38 -1 -50 -93
q-6 -57 -9 -116q-1 -7 -1 -32q0 -15 1 -26v-26v-11q-1 -6 -1 -12q0 -29 1 -74q0 -57 2 -107v-3l60 173q13 33 31 93q21 69 27 85z" />
    <glyph glyph-name="ugrave" unicode="&#xf9;" horiz-adv-x="293" 
d="M161 730q4 -12 -6 -16q-7 0 -13 6q-5 5 -9 14q-1 0 -5 8l-6 12q-10 15 -11 21q-3 11 1 17q3 4 9 4q6 -2 7 -5l9 -16l13 -24q2 -5 6 -11zM240 571v39v23q0 4 0.5 12t1.5 12v20q2 11 4 15q2 5 5 5q13 0 13 -60v-9v-45q0 -52 -2 -103q0 -29 -0.5 -65.5t-0.5 -43.5v-54v-34
q0 -114 -12 -195q-4 -36 -30 -65q-24 -29 -60 -29q-17 0 -41 8q-19 6 -37 29q-36 55 -36 186q0 219 -2 391v15q0 61 11 70q13 0 13 -16q0 -17 -1 -30v-32q0 -58 1 -105t1 -108v-55v-44q-1 -22 -1 -49q0 -38 1 -49l2 -49q11 -131 81 -137h5q24 0 41 14q5 3 11 12l8 16
q2 5 6 21q5 21 5 22q0 2 1 10.5t1 14.5q2 10 2 22q0 2 0.5 5t1 7.5t0.5 8.5q1 11 1 19q4 44 4 95v47q0 63 1 107q1 63 1 131z" />
    <glyph glyph-name="uacute" unicode="&#xfa;" horiz-adv-x="293" 
d="M146 730q0 1 7 10q4 8 5 11l12 24l9 16q1 3 8 5q6 0 9 -4q4 -6 1 -17q-1 -4 -12 -21l-3 -6l-5 -8q-1 -4 -3 -6q-4 -9 -9 -14q-6 -6 -12 -6q-11 5 -7 16zM240 571v39v23q0 4 0.5 12t1.5 12v20q2 11 4 15q2 5 5 5q13 0 13 -60v-9v-45q0 -52 -2 -103q0 -29 -0.5 -65.5
t-0.5 -43.5v-54v-34q0 -114 -12 -195q-4 -36 -30 -65q-24 -29 -60 -29q-17 0 -41 8q-19 6 -37 29q-36 55 -36 186q0 219 -2 391v15q0 61 11 70q13 0 13 -16q0 -17 -1 -30v-32q0 -58 1 -105t1 -108v-55v-44q-1 -22 -1 -49q0 -38 1 -49l2 -49q11 -131 81 -137h5q24 0 41 14
q5 3 11 12l8 16q2 5 6 21q5 21 5 22q0 2 1 10.5t1 14.5q2 10 2 22q0 2 0.5 5t1 7.5t0.5 8.5q1 11 1 19q4 44 4 95v47q0 63 1 107q1 63 1 131z" />
    <glyph glyph-name="ucircumflex" unicode="&#xfb;" horiz-adv-x="293" 
d="M153 793q5 2 8 0q1 -1 19 -14q3 -1 39 -30q8 -7 14 -13q7 -9 -1 -14q-8 -4 -15 1q-1 1 -15 13l-17 15q-2 1 -3.5 2.5l-2.5 2.5l-2 2t-2 1q-14 12 -19 14q-35 -24 -65 -49q-10 -9 -17 -5q-5 2 -5 6q-2 5 3 8l23 20q7 3 23 17q22 16 35 23zM240 571v39v23q0 4 0.5 12
t1.5 12v20q2 11 4 15q2 5 5 5q13 0 13 -60v-9v-45q0 -52 -2 -103q0 -29 -0.5 -65.5t-0.5 -43.5v-54v-34q0 -114 -12 -195q-4 -36 -30 -65q-24 -29 -60 -29q-17 0 -41 8q-19 6 -37 29q-36 55 -36 186q0 219 -2 391v15q0 61 11 70q13 0 13 -16q0 -17 -1 -30v-32q0 -58 1 -105
t1 -108v-55v-44q-1 -22 -1 -49q0 -38 1 -49l2 -49q11 -131 81 -137h5q24 0 41 14q5 3 11 12l8 16q2 5 6 21q5 21 5 22q0 2 1 10.5t1 14.5q2 10 2 22q0 2 0.5 5t1 7.5t0.5 8.5q1 11 1 19q4 44 4 95v47q0 63 1 107q1 63 1 131z" />
    <glyph glyph-name="udieresis" unicode="&#xfc;" horiz-adv-x="292" 
d="M198 718h-7q-15 0 -15 17q-1 7 3 16q5 5 12 5q20 0 22 -17q2 -15 -15 -21zM139 718h-6q-14 0 -16 17q0 11 4 16q5 5 12 5q9 0 15 -5.5t6 -11.5q2 -14 -15 -21zM238 572l-1 86l-1 20q0 1 0.5 4.5t0.5 5.5t1 5t2.5 4.5t4.5 1.5q13 0 14 -60v-9l1 -45v-93q1 -61 1 -173
l1 -34v-28q0 -97 -9 -167q-3 -37 -29 -66q-22 -28 -59 -30q-15 0 -41 7q-18 6 -38 29q-36 54 -39 185q-2 90 -3 219.5t-2 171.5l-1 15q0 61 10 70q12 0 12 -14v-33v-37q0 -26 4 -206l1 -55l1 -44v-49q0 -38 1 -49l3 -49q14 -132 84 -136h5q53 0 67 69q10 41 10 105
q0 6 0.5 30t0.5 41v23l-1 47q0 12 -0.5 47.5t-0.5 59.5v38v41v30v22z" />
    <glyph glyph-name="yacute" unicode="&#xfd;" horiz-adv-x="340" 
d="M138 712q1 4 6 10q1 2 3 5t3 5l12 25l9 15q1 3 8 5q5 0 8 -4q4 -5 1 -16q-2 -8 -11 -22l-3 -6l-5 -7q-1 -4 -3 -6q-4 -10 -9 -15q-6 -6 -13 -6q-11 5 -6 17zM162 420h-14q-26 0 -48 13q-21 13 -32 29q-13 16 -17 44q-4 19 -6 43q-3 41 -4 53q0 29 -2 49v12q-1 6 -1 14
q0 22 8 22h1q11 0 12 -7q0 -3 0.5 -6t1 -4.5t0.5 -2.5q5 -95 9 -137q11 -79 57 -95q12 -3 26 -3h9q21 2 37 13q17 10 25 21q17 21 23 29q7 11 9 18q4 13 4 38q1 9 1 34v35v32v15v4q0 20 10 20q17 0 17 -24v-12q0 -31 -3 -93q-2 -80 -2 -91v-18q1 -8 1 -18q8 11 20 37
q3 7 6.5 15t5.5 11l1 4q17 -2 17 -24q0 -10 -8 -24q-15 -28 -42 -59q0 -17 -0.5 -37.5t-1 -31.5t-0.5 -17q0 -46 -2 -108q-1 -46 -9 -93q-6 -39 -21 -75q-29 -50 -70 -59q-2 0 -6 -1t-6 -1h-7q-7 0 -10 1q-1 0 -4 0.5t-5 0.5l-12 3l-2 1q-39 11 -65 50q-28 38 -28 86
q0 12 1 16q3 26 21 68q11 23 29 45q16 18 47 48q30 27 43 40q16 16 39 34q31 28 45 45v13q1 5 1 14q0 8 -2 38l-20 -27q-33 -37 -77 -40zM258 342v13v30l-22 -19l-61 -57v-1q-23 -18 -49 -47l-2 -2q-1 -2 -4.5 -5.5t-6.5 -7.5q-1 -1 -6.5 -7t-7.5 -10q-12 -16 -24 -40
q-18 -36 -18 -64q0 -25 16 -55q30 -52 72 -57q5 -1 15 -1q18 0 41 14q26 18 39 70q10 42 15 107q3 45 3 98v41z" />
    <glyph glyph-name="thorn" unicode="&#xfe;" horiz-adv-x="212" 
d="M65 225q13 3 21 6q46 15 61 61q12 38 12 89q0 13 1 25v25q0 21 -1 26q-4 50 -25 67q-11 11 -31 11q-10 0 -28 -6q-7 0 -7 -3v-17v-14v-15v-24v-28v-32q0 -21 -1 -27q1 0 1 -1h-1v-22q0 -30 -1 -55t-1 -50v-16zM56 707h1q14 0 14 -45q0 -29 -1 -55t-1 -54q8 2 10 2t3 1
t3 1q18 2 24 2q19 0 29 -6q34 -16 41 -82q2 -26 2 -31v-25q0 -50 -1 -63q-2 -62 -18 -90q-18 -31 -64 -47q-22 -8 -33 -8v-9q0 -10 1 -18v-18v-38q-1 -17 -1 -40q0 -2 -2 -18v-18q0 -7 2 -17v-5q0 -25 -11 -30h-1q-7 0 -10 29q-1 8 -1 44v34q0 10 0.5 65.5t0.5 101.5
q2 79 2 177q0 12 2 116q3 78 3 110v13q0 20 6 21z" />
    <glyph glyph-name="ydieresis" unicode="&#xff;" horiz-adv-x="340" 
d="M196 718h-7q-15 0 -15 17q-1 7 3 16q5 5 12 5q20 0 22 -17q2 -15 -15 -21zM137 718h-6q-14 0 -16 17q0 11 4 16q5 5 12 5q9 0 15 -5.5t6 -11.5q2 -14 -15 -21zM162 420h-14q-26 0 -48 13q-21 13 -32 29q-13 16 -17 44q-4 19 -6 43q-3 41 -4 53q0 29 -2 49v12q-1 6 -1 14
q0 22 8 22h1q11 0 12 -7q0 -3 0.5 -6t1 -4.5t0.5 -2.5q1 -13 2.5 -34.5t1.5 -26.5q0 -15 0.5 -39t1 -31t2 -20t4.5 -22t8 -21q14 -28 44 -39q8 -2 28 -2h9q21 2 37 13q17 10 25 21q17 21 23 29q7 11 9 18q4 13 4 38q1 9 1 34v35v32v15v4q0 20 10 20q14 0 14 -24v-12v-93
q-2 -80 -2 -91v-18q1 -8 1 -18q8 11 20 37q3 7 6.5 15t5.5 11l1 4q17 -2 17 -24q0 -10 -8 -24q-15 -28 -42 -59q0 -17 -0.5 -37.5t-1 -31.5t-0.5 -17q0 -46 -2 -108q-1 -46 -9 -93q-6 -39 -21 -75q-29 -50 -70 -59q-2 0 -6 -1t-6 -1h-7q-7 0 -10 1q-1 0 -4 0.5t-5 0.5l-12 3
l-2 1q-39 11 -65 50q-28 38 -28 86q0 12 1 16q3 26 21 68q11 23 29 45q16 18 47 48q30 27 43 40q16 16 39 34q31 28 45 45v13q0 32 -1 52l-20 -27q-33 -37 -77 -40zM258 342v13v30l-22 -19q-12 -11 -35.5 -31.5t-42 -37.5t-33.5 -34l-1 -2l-5.5 -5.5t-6.5 -7.5
q-1 -1 -6.5 -7t-7.5 -10q-6 -8 -23 -42q-18 -36 -18 -64q0 -25 16 -55q31 -54 72 -59q5 -1 15 -1q18 0 41 14q28 19 41 72q12 46 13 107q3 90 3 98v41z" />
    <glyph glyph-name="dotlessi" unicode="&#x131;" horiz-adv-x="96" 
d="M42 372q1 16 1 88v192v18q0 22 3 26q3 5 8 5q4 0 5 -3q6 -6 6 -42v-201q1 -33 1 -96v-217v-27v-26v-29q0 -29 1 -38v-7q0 -20 -10 -23h-2q-7 0 -12 23q0 287 -1 357z" />
    <glyph glyph-name="Lslash" unicode="&#x141;" horiz-adv-x="233" 
d="M58 285l-3 -3q-7 -7 -12 -7q-11 5 -6 17q2 7 22 35v54q1 25 1 54v18q-1 15 -1 68q0 11 2 151q0 27 11 33q2 1 3 1q1 1 2 1q2 0 7 -5q4 -7 4 -30q0 -17 -2 -41v-11v-32v-11q-1 -11 -1 -54v-68q-1 -22 -1 -91l4 7q1 1 2 3q2 2 2 3q2 1 2 3l12 24l10 16q1 4 7 4q6 2 9 -3
q4 -6 1 -17q-1 -6 -11 -21q-11 -18 -39 -58v-123q0 -4 -0.5 -23t-0.5 -32q-2 -25 -2 -57v-33q-1 -15 -1 -31q26 -2 66 -2q44 0 55 1q11 -3 11 -17q0 -3 -2 -5q-3 -1 -11 -3q-2 0 -5 -1q-4 0 -5 -1h-3q-1 1 -3 1v-1h-1h-3h-7q-3 1 -8 1q-3 0 -10 -0.5t-20 -1t-25 -0.5
q-8 0 -15 1t-15 1q-2 0 -4 1h-6h-2h-6q-8 0 -8 4v33q0 73 3 102v45q1 8 1.5 26.5t0.5 27.5q1 19 1 47z" />
    <glyph glyph-name="lslash" unicode="&#x142;" horiz-adv-x="239" 
d="M81 20q8 -1 44 -1h32h23q20 0 32 -3q5 -2 5 -13v-3q-1 -6 -29 -6h-8h-12h-25q-10 -1 -22 -1q-3 0 -61 2q-4 0 -6 5q0 15 1 27v31v16q2 90 2 210l-2 -2q-7 -7 -12 -7q-11 5 -6 17l3 4q2 4 6.5 12t10.5 16v26v287v16q-1 6 -1 16q0 2 2 24q3 7 9 7q5 0 11 -6q3 -4 3 -44v-25
q0 -48 1 -87v-96v-82q10 15 12 20l12 24l10 16q1 4 7 4q6 2 9 -3q4 -6 1 -17q-1 -6 -11 -21q-2 -6 -40 -60v-63q0 -130 -1 -170v-70z" />
    <glyph glyph-name="OE" unicode="&#x152;" horiz-adv-x="416" 
d="M263 121q2 -70 3 -96h28h88q16 0 16 -11q0 -10 -12 -13q-10 -2 -24 -2h-8h-7h-46q-13 0 -25 -1q-10 -1 -24 -1h-4q-3 0 -5 2q-1 1 -1 10v5v31q-1 14 -1 33q-10 -31 -28 -54q-25 -33 -65 -33t-65 33q-32 41 -43 124q-6 62 -6 145q0 69 3 117q3 81 3 82q1 17 4 50.5t4 45
t5 33t9 31t14 22t22 21.5q21 15 45 15q31 0 55 -15q30 -23 40 -55v52q0 6 12 6h16h8h90h7h2h5q8 0 13 -1q7 -2 7 -9q0 -4 -4 -7q-3 -3 -8 -4q-8 -2 -10 -2q-9 -1 -54 -1h-35h-27v-17v-22q0 -121 1 -121h6h12q3 0 7 0.5t11 1t12 0.5q25 0 31 1q8 0 12 -7q3 -8 -2 -13
q-2 -3 -16 -4q-5 -1 -30 -1q-18 0 -42 -3v-24v-172v-55v-15q0 -42 1 -102zM112 673q-21 -17 -28 -34.5t-13 -54.5q-6 -36 -11 -162q-3 -58 -3 -150q0 -58 1 -72q1 -20 13 -91q8 -41 29 -69t42 -28h12q24 0 43.5 27t27.5 70q12 71 13 91q1 11 1 54q0 11 -0.5 43.5t-0.5 54.5
q0 32 -2 70q-5 126 -11 162q-6 37 -13 54.5t-28 34.5q-16 13 -37 13q-19 0 -35 -13z" />
    <glyph glyph-name="oe" unicode="&#x153;" horiz-adv-x="481" 
d="M357 705q65 0 86 -76q9 -36 9 -191v-26q0 -74 -7 -81q-7 -6 -51 -6q-13 0 -42.5 0.5t-37.5 0.5q-17 0 -21.5 -0.5t-16.5 -0.5v-30q0 -13 -0.5 -26t-0.5 -36v-47q0 -45 7 -90q6 -36 23.5 -60t40.5 -24h19q37 2 54 26q10 13 11 50v15v50q3 15 13 15h1q10 0 10 -13v-81
q0 -28 -18 -54q-6 -10 -33 -22q-19 -8 -39 -8h-19q-33 0 -56 27.5t-31 70.5q-4 21 -5 35q-9 -36 -13 -47q-17 -46 -40 -69q-23 -20 -53 -20q-46 2 -71 84q-15 44 -23 101q-10 66 -10 117q-3 54 -3 118q0 58 1 74q5 75 11 107q6 40 23 71q14 25 37 36q24 13 45 13h6
q8 0 30 -6q36 -12 61 -74q2 3 8.5 13.5t10 15l10.5 13.5t13.5 14t16 10.5t20.5 8t24 2.5zM238 603q-9 34 -32 60q-12 14 -35 20q-14 2 -15 2q-17 0 -29 -6q-7 -4 -12 -8t-9 -9t-6 -8t-5 -9.5t-4 -7.5q-3 -7 -12 -36q-9 -32 -9 -49q0 -36 33 -48q9 -3 20 -3q63 0 115 102z
M65 500v-6v-31l-2 -57v-14v-23q0 -31 4 -105q6 -96 19 -146q21 -81 44 -95q7 -7 14 -8q10 -2 13 -2q29 0 47 41q16 33 27 78q16 83 17 99q4 43 4 113v58q0 3 -0.5 12t-0.5 14q-1 29 -1.5 73.5t-1.5 71.5q-27 -44 -59 -70t-63 -26q-18 0 -30 5q-11 3 -31 18zM272 487
q2 -56 2 -93q0 -10 0.5 -25.5t0.5 -20.5h37q9 0 33.5 -0.5t32.5 -0.5q40 0 48 6q3 4 3 47v38q0 135 -3 162q-12 80 -72 80q-32 0 -55 -26q-26 -30 -27 -48q-1 -15 -1 -49q0 -15 0.5 -31t0.5 -26.5v-11.5v-1z" />
    <glyph glyph-name="Scaron" unicode="&#x160;" horiz-adv-x="257" 
d="M138 721q-19 11 -35 22q-21 17 -22 18l-24 19q-5 3 -3 8q0 5 5 7q7 4 18 -5q43 -36 64 -50q5 2 20 15l10 8l16 14q14 12 16 14q7 5 15 1q8 -5 1 -15l-2 -1q-2 -2 -5.5 -5t-6.5 -6l-20 -16t-14 -11.5t-5 -3.5q-5 -3 -9.5 -6.5t-7.5 -5.5l-3 -1q-3 -2 -8 0zM79 509
q23 -65 71 -157q42 -77 67 -147q6 -17 7 -21q4 -15 7 -38q2 -20 2 -29q0 -23 -3 -43q-1 -13 -11 -37q-9 -23 -26 -35q-20 -14 -51 -14q-32 0 -61 20q-35 25 -38 82q-1 9 -1 19v19v22v20q2 18 14 18h2q8 -2 8 -18v-20q0 -30 2 -60q4 -54 41 -72q12 -6 30 -6h12q18 3 27 10
q12 7 18 19q5 13 11 35q4 20 4 43q0 12 -2 32q-3 18 -27 75q-27 67 -56 120q-29 52 -56 118q-30 71 -30 137q0 24 4 39q7 40 36 55q24 12 58 12q21 0 44 -9q19 -8 32 -25q18 -27 19 -76v-34q0 -6 -4 -10q-3 -4 -7 -4q-2 0 -6 4q-5 8 -6 43q-1 29 -10 52q-9 18 -25 25
q-17 9 -40 9q-24 0 -39 -8q-18 -8 -25 -27q-8 -22 -8 -45q0 -41 16 -93z" />
    <glyph glyph-name="scaron" unicode="&#x161;" horiz-adv-x="287" 
d="M162 720q-19 10 -35 22q-19 16 -23 18l-23 19q-5 3 -3 8q0 5 5 7q6 4 17 -6q30 -25 65 -49q3 1 19 15q3 1 11 8l16 14q7 6 15 14q7 5 16 1q8 -5 1 -15l-2 -2q-2 -1 -6 -4t-7 -6l-20 -16t-14 -11.5t-5 -3.5q-5 -3 -9.5 -6.5t-7.5 -4.5l-2 -2q-3 -2 -8 0zM175 708
q33 -3 53 -21q19 -16 24 -38q4 -15 4 -35v-10q0 -16 -6 -20q-7 -2 -11 2q-6 4 -6 8v6q0 44 -17 64q-16 21 -49 21h-2q-39 0 -63 -15q-19 -12 -28 -30q-12 -26 -12 -70t58 -126l54 -75q55 -81 71 -129q17 -36 18 -95q0 -96 -36 -132q-27 -27 -70 -27q-13 0 -16 1
q-51 6 -78 39q-25 32 -25 87q0 53 16 91q8 18 18 18q4 0 5 -1q6 -1 6 -8q0 -1 -2 -11t-6 -18q-2 -4 -3.5 -8.5t-1.5 -5.5q-9 -40 -9 -53v-5q3 -46 25 -73q24 -26 60 -27q44 0 67 26q27 30 27 93v14q-1 51 -31 119q-16 33 -53 86l-56 80q-54 77 -59 122q-2 24 -2 33
q0 21 6 44q12 41 42 60q28 20 75 20q9 0 13 -1z" />
    <glyph glyph-name="Ydieresis" unicode="&#x178;" horiz-adv-x="277" 
d="M180 757q10 -1 10 -12v-10q0 -13 -14 -14h-2l-2 -1q-9 0 -12 4q-4 14 -4 16q0 10 4 13q3 6 12 6zM123 760q10 -2 10 -12v-10q0 -10 -14 -15h-6q-10 0 -13 4l-4 16q0 8 4 13q3 5 13 5q2 0 6 -1h4zM123 432q-7 20 -42 111t-53 142q-1 3 -1 10q1 4 9 4q11 0 15 -13
q28 -80 84 -223q99 195 111 224q1 6 7 10q5 3 11 3q5 0 5 -7q0 -4 -1 -6q-17 -45 -63 -134.5t-59 -117.5l-1 -287v-27v-26v-28q0 -30 1 -39v-6q0 -21 -9 -24h-2q-7 0 -12 24v310v100z" />
    <glyph glyph-name="Zcaron" unicode="&#x17d;" horiz-adv-x="272" 
d="M156 721q-19 11 -35 22q-19 16 -23 18l-23 19q-5 3 -3 8q0 5 5 7q7 4 17 -5q38 -31 65 -50q3 1 19 15l10 8l17 14q7 6 15 14q7 5 16 1q8 -5 1 -15l-2 -1q-2 -2 -6 -5t-7 -6l-20 -16t-14 -11.5t-5 -3.5q-5 -3 -9.5 -6.5t-7.5 -5.5l-2 -1q-3 -2 -8 0zM141 401l7 21
q1 4 4 11t4 10l24 74q2 6 8 22.5t9 24.5q8 20 19 53l7 23q7 17 9 30l-43 -1h-141q-7 2 -8 5q-3 4 -3 8q0 7 23 9q9 1 50 1h23h17h27h48h8h10q17 0 17 -3q0 -17 -4 -30q-4 -18 -10 -30q-7 -18 -9 -26q0 -1 -2 -5.5t-5 -12.5l-6 -16l-23 -65q-21 -61 -23 -67l-61 -204
q-8 -28 -16.5 -56t-13 -43t-5.5 -21q-8 -41 -16 -86q20 -1 63 -1h30h34h12h12h12q27 -2 27 -16q0 -9 -12 -9h-3h-41h-73h-83q-6 0 -6 12q0 4 11 59q4 15 5 22q4 18 4 19q36 137 83 288z" />
    <glyph glyph-name="zcaron" unicode="&#x17e;" horiz-adv-x="269" 
d="M161 717q-19 11 -35 22q-20 16 -23 18l-23 19q-5 3 -3 8q0 5 5 7q6 4 17 -6q30 -25 65 -49q3 1 19 15q3 1 11 8l16 14q14 12 15 13q7 5 16 1q8 -5 1 -14l-2 -1q-2 -2 -6 -5t-7 -6l-20 -16t-14 -11.5t-5 -3.5q-5 -3 -9.5 -6.5t-6.5 -5.5l-3 -1q-3 -2 -8 0zM214 671
q-9 0 -16 1h-16h-52q-24 -1 -51 -1h-27q-4 0 -7 4q-3 5 -3 9v1q0 9 12 9h75q62 0 72 1h33q11 0 11 -6v-2l-18 -57q-7 -26 -14 -51q-61 -236 -71 -262q-7 -39 -65 -250q-10 -36 -10 -40q58 -2 111 -2h35q22 0 29 -5q5 -3 5 -10v-2l-1 -2v-3q0 -1 -1 -1t-2 -1t-5 -1h-2h-2h-7
h-2h-31h-71h-41h-21q-7 1 -20 1q-4 0 -4 11q0 6 4 18l37 129l53 201l19 73q6 29 32 119z" />
    <glyph glyph-name="florin" unicode="&#x192;" horiz-adv-x="396" 
d="M33 423h106l25 173q8 58 37 89q27 29 70.5 38t103.5 1v-76q-61 5 -87.5 -8t-32.5 -56l-23 -161h118v-70h-128l-54 -385q-9 -63 -40 -94q-23 -23 -58.5 -29t-84.5 0v74q37 -3 60 6.5t29 49.5l55 378h-96v70z" />
    <glyph glyph-name="circumflex" unicode="&#x2c6;" horiz-adv-x="246" 
d="M131 771q5 2 8 0l3 -1q3 -2 7.5 -5.5t9.5 -6.5q1 0 5 -3.5t14 -11.5l20 -16q3 -3 6.5 -6t5.5 -5l2 -1q7 -10 -1 -15q-8 -4 -15 1q-2 2 -16 14l-16 14q-2 1 -3.5 2.5l-2.5 2.5l-2 2t-2 1q-15 13 -20 15q-21 -14 -64 -50q-11 -9 -18 -5q-5 2 -5 6q-2 6 3 9l24 19q1 1 22 18
q16 11 35 22z" />
    <glyph glyph-name="caron" unicode="&#x2c7;" horiz-adv-x="236" 
d="M127 697q-13 7 -35 23q-18 15 -22 17l-24 20q-5 3 -3 8q0 4 5 6q7 4 18 -5q36 -29 64 -49q7 2 20 14l10 8l16 15q14 12 15 13q7 5 16 1q8 -5 1 -14q-6 -6 -14 -13q-36 -29 -39 -30q-3 -2 -5.5 -4t-4.5 -3t-4 -2.5t-3 -2.5t-2 -1l-1 -1q-3 -2 -8 0z" />
    <glyph glyph-name="uni02C8" unicode="&#x2c8;" horiz-adv-x="101" 
d="M48 636q0 21 -1 26q0 29 -1 36q0 26 3 29q1 4 5 4q9 0 9 -13q5 -60 5 -67l1 -33v-26q0 -8 -9 -10q-5 0 -8 7q0 1 -0.5 3.5t-1 8.5t-1.5 11q0 6 -0.5 11.5t-0.5 8.5v4z" />
    <glyph glyph-name="uni02C9" unicode="&#x2c9;" horiz-adv-x="180" 
d="M82 705q-23 0 -27 1q-9 0 -9 8q0 5 7 8q2 1 10 1q5 1 12 1h25h15q24 0 28 -4q4 -1 4 -5q-1 -9 -14 -9q-24 -1 -51 -1z" />
    <glyph glyph-name="breve" unicode="&#x2d8;" horiz-adv-x="189" 
d="M65 707q0 -3 1 -5v-3q4 -29 27 -33h3q1 -1 3 -1q34 0 44 49q3 10 12 3q9 -8 3 -25q-18 -50 -57 -50q-5 0 -6 1q-37 7 -47 36q-2 8 -2 21q0 12 10 13q9 2 9 -6z" />
    <glyph glyph-name="dotaccent" unicode="&#x2d9;" horiz-adv-x="123" 
d="M79 719q12 -1 12 -14v-13q0 -15 -17 -18h-4q-1 -1 -3 -1q-12 0 -15 5q-6 14 -6 20q0 8 5 16q6 7 16 7q2 0 12 -2z" />
    <glyph glyph-name="ring" unicode="&#x2da;" horiz-adv-x="194" 
d="M54 694q19 40 56 40h3q23 0 38 -21q14 -17 14 -41q0 -15 -4 -24q-10 -28 -27 -45q-23 -17 -35 -17q-5 0 -6 1q-37 7 -47 36q-2 8 -2 21q0 29 10 50zM93 714q-10 -6 -22 -30q-9 -23 -9 -34q0 -2 1 -3v-4q5 -29 28 -34q2 0 3 -1h3q20 0 37 30q5 8 10 31v6q0 16 -9 28
q-12 14 -23 15h-4z" />
    <glyph glyph-name="ogonek" unicode="&#x2db;" horiz-adv-x="197" 
d="M105 -5l-6 -3q-26 -14 -23 -37v-6q9 -28 49 -28h11h1q6 0 6 -6q0 -4 -5 -9q-4 -4 -14 -4h-3q-54 1 -66 38v3q-1 1 -1 3v10q0 30 21 46q4 4 19 8q1 1 4 1q12 0 13 -10q0 -4 -6 -6z" />
    <glyph glyph-name="tilde" unicode="&#x2dc;" horiz-adv-x="212" 
d="M51 664q-7 7 4 24q7 9 16 13q8 5 14 5q12 0 25 -8q4 -4 9 -8l12 -8q6 -3 12 -3q14 0 17 3q8 7 1 20q-8 8 -1 15q6 7 17 -4q5 -5 8 -21q3 -14 -9 -24q-11 -11 -31 -11q-13 0 -30 15q-16 13 -26 13q-12 0 -20 -14q-3 -3 -4 -5q-1 -3 -4 -6q-5 -6 -10 4z" />
    <glyph glyph-name="hungarumlaut" unicode="&#x2dd;" horiz-adv-x="188" 
d="M111 707q1 4 6 10l5 10l12 25l9 15q1 3 9 5q5 0 8 -4q4 -5 1 -16q-2 -8 -11 -22l-4 -6l-5 -7q-1 -5 -3 -6q-4 -11 -9 -15q-6 -6 -12 -6q-11 5 -6 17zM47 707q1 4 6 10l5 10l13 25l9 15q1 3 8 5q5 0 8 -4q4 -5 1 -16q-2 -8 -11 -22l-3 -6l-5 -7q-2 -5 -3 -6q-5 -11 -9 -15
q-6 -6 -13 -6q-11 5 -6 17z" />
    <glyph glyph-name="endash" unicode="&#x2013;" horiz-adv-x="385" 
d="M105 329h-27q-23 0 -27 1q-9 0 -9 8t7 11l10 2h12h213h37q24 0 28 -4q4 -1 4 -8q-1 -9 -14 -9q-17 -1 -67 -1h-167z" />
    <glyph glyph-name="emdash" unicode="&#x2014;" horiz-adv-x="516" 
d="M105 329h-27q-23 0 -27 1q-9 0 -9 8q0 9 7 12l10 2h12h344h37q24 0 28 -4q4 -1 4 -9q-2 -9 -14 -9q-17 -1 -67 -1h-298z" />
    <glyph glyph-name="quoteleft" unicode="&#x2018;" horiz-adv-x="98" 
d="M44 610q2 7 3.5 16t1.5 10q4 19 7 37q4 21 11 28q3 5 5 5q3 0 5 -5q2 -6 1 -9q-8 -45 -12 -66l-7 -33l-6 -27q-2 -8 -10 -10q-5 0 -6 7q0 7 4 23q3 21 3 24z" />
    <glyph glyph-name="quoteright" unicode="&#x2019;" horiz-adv-x="98" 
d="M72 605q0 -7 4 -23q3 -21 3 -24q-1 -7 -6 -7q-9 2 -11 10l-6 27l-6 33q-4 21 -12 66q-1 3 1 9q1 4 5 4q2 0 5 -4q5 -6 10 -28q1 -8 8 -37q0 -1 1.5 -10t3.5 -16z" />
    <glyph glyph-name="quotesinglbase" unicode="&#x201a;" horiz-adv-x="120" 
d="M81 26q0 -4 3 -24q4 -19 4 -24q-1 -7 -6 -7q-8 2 -10 11l-6 26l-7 33q-4 17 -12 67q-1 3 1 9q1 4 5 4q2 0 5 -4q7 -9 11 -29q3 -18 7 -37q0 -1 1.5 -9.5t3.5 -15.5z" />
    <glyph glyph-name="quotedblleft" unicode="&#x201c;" horiz-adv-x="141" 
d="M88 605q2 7 3.5 16t1.5 10q4 19 7 37q4 21 11 28q3 4 5 4q9 0 5 -13q-7 -51 -11 -66l-7 -33l-6 -27q-2 -8 -10 -10q-5 0 -6 7q0 3 3 24q4 16 4 23zM44 605q2 7 3.5 16t1.5 10q4 19 7 37q4 18 11 28q3 4 5 4q4 0 5 -4q2 -6 1 -9q-8 -45 -12 -66l-7 -33l-6 -27
q-2 -8 -10 -10q-5 0 -6 7q0 5 4 24q3 18 3 23z" />
    <glyph glyph-name="quotedblright" unicode="&#x201d;" horiz-adv-x="141" 
d="M71 609q0 -5 3 -23q4 -19 4 -24q-1 -7 -6 -7q-9 2 -11 10l-6 27l-6 33q-4 15 -11 66q-5 14 5 14q2 0 5 -5q6 -8 10 -28q1 -8 8 -37q0 -1 1.5 -10t3.5 -16zM115 609q0 -7 4 -23q3 -21 3 -24q-1 -7 -6 -7q-9 2 -11 10l-6 27l-6 33q-5 21 -12 66q-1 3 1 9q2 5 5 5q2 0 5 -5
q6 -6 10 -28q1 -8 8 -37q0 -1 1.5 -10t3.5 -16z" />
    <glyph glyph-name="quotedblbase" unicode="&#x201e;" horiz-adv-x="163" 
d="M80 50q0 -7 4 -23q3 -21 3 -24q-1 -7 -6 -7q-8 2 -10 10l-6 27l-7 33q-4 15 -11 66q-4 13 5 13q2 0 5 -4q7 -7 11 -28q3 -18 7 -37q0 -1 1.5 -10t3.5 -16zM124 50q0 -5 3 -23q4 -19 4 -24q-1 -7 -6 -7q-8 2 -10 10l-6 27l-7 33q-4 21 -12 66q-1 3 1 9q1 4 5 4q2 0 5 -4
q7 -10 11 -28q3 -18 7 -37q0 -1 1.5 -10t3.5 -16z" />
    <glyph glyph-name="dagger" unicode="&#x2020;" horiz-adv-x="218" 
d="M125 317v-27q0 -23 -1 -27q0 -9 -8 -9q-5 0 -8 7q-2 4 -2 10q-1 5 -1 12v334h-3h-27q-23 0 -27 1q-9 0 -9 9q0 5 7 8l10 2h12h37v27q0 23 5 28q1 4 4 4q10 -1 10 -14v-16v-15v-14h2h37q24 0 28 -4q5 -2 5 -5q-2 -10 -15 -10q-15 -1 -56 -1v-2v-298z" />
    <glyph glyph-name="daggerdbl" unicode="&#x2021;" horiz-adv-x="220" 
d="M126 317v-27q0 -23 -1 -27q0 -9 -8 -9q-5 0 -8 7q-2 3 -3 10v12v290h-3h-27q-23 0 -27 1q-9 0 -9 9q0 5 7 8q2 1 10 1q5 1 12 1h37v24h-3h-27q-23 0 -27 1q-9 0 -9 9q0 5 7 8l10 2h12h37v27q0 23 5 28q1 4 4 4q10 -1 10 -14v-16v-15v-14h2h37q25 0 29 -4q4 -1 4 -5
q-2 -10 -15 -10q-15 -1 -56 -1v-2v-22h1h37q25 0 29 -4q4 -1 4 -5q-2 -10 -15 -10q-15 -1 -56 -1v-256z" />
    <glyph glyph-name="bullet" unicode="&#x2022;" horiz-adv-x="192" 
d="M126 284h-1q-2 0 -3 -1h-3h-2q-8 -2 -12 -2q-7 0 -19 5q-34 13 -39 56q-2 18 -2 23q0 21 11 34q21 24 44 24q45 0 55 -35q6 -16 6 -57q0 -11 -2 -17q-12 -22 -33 -30z" />
    <glyph glyph-name="ellipsis" unicode="&#x2026;" horiz-adv-x="281" 
d="M228 44q13 -2 13 -14v-13q0 -15 -18 -18q-2 0 -4 -1h-3q-11 0 -14 5q-6 13 -6 21q0 7 5 15q6 7 15 7q2 0 12 -2zM153 44q12 -2 12 -14v-13q0 -15 -18 -18q-2 0 -4 -1h-3q-11 0 -14 5q-6 13 -6 21q0 7 5 15q6 7 15 7q3 0 13 -2zM77 44q12 -2 12 -14v-13q0 -15 -17 -18
q-2 0 -4 -1h-3q-12 0 -15 5q-6 13 -6 21q0 7 5 15q6 7 16 7q2 0 12 -2z" />
    <glyph glyph-name="perthousand" unicode="&#x2030;" horiz-adv-x="406" 
d="M352 10h-1h-3q-1 -1 -3 -1h-2q-8 -2 -11 -2q-8 0 -20 5q-34 13 -39 57q-2 18 -2 22q0 21 12 35q21 24 44 24q1 0 3 -0.5t4.5 -1.5t3.5 -1q16 -8 33 -35q16 -30 16 -55q0 -10 -2 -16q-12 -23 -33 -31zM342 29q10 0 18 10q7 14 7 26q0 9 -3 17q-21 47 -43 47q-8 0 -15 -5
q-16 -15 -16 -37v-2q0 -17 9 -32q7 -16 19 -21q9 -3 24 -3zM213 10h-1h-3q-1 -1 -3 -1h-2q-8 -2 -11 -2q-8 0 -20 5q-34 13 -39 57q-2 18 -2 22q0 22 11 35q21 24 44 24l12 -3q14 -7 32 -35q17 -32 17 -55q0 -10 -2 -16q-12 -23 -33 -31zM203 29q10 0 18 10q6 12 6 26
q0 9 -3 17q-21 47 -43 47q-7 0 -14 -5q-16 -15 -16 -37v-2q0 -17 9 -32q7 -16 19 -21q9 -3 24 -3zM142 681q21 -8 33 -31q2 -6 2 -16q0 -27 -17 -54q-14 -27 -32 -36q-8 -2 -11 -2q-24 0 -44 23q-12 14 -12 35q0 5 2 23q5 42 39 57q11 4 20 4q7 0 11 -2h2h3q1 -1 3 -1h1z
M132 663q-11 0 -23 -4q-12 -5 -21 -20q-8 -18 -8 -33v-2q0 -22 16 -37q7 -5 15 -5q22 0 43 47q3 7 3 18q0 16 -7 24q-6 12 -18 12zM42 -3h-1q-4 0 -4 9q0 14 8 43q9 31 13 36h-1v1l102 291q10 25 30 92q17 57 28 85l49 140q9 12 15 12q2 0 2 -3q0 2 2 2h1l1 -2q-1 -1 -1 -2
h2v-3l-13 -36l-37 -116l-45 -136l-42 -123l-50 -140l-12 -47q-9 -38 -23 -71q-11 -29 -24 -32z" />
    <glyph glyph-name="minute" unicode="&#x2032;" horiz-adv-x="90" 
d="M34 636q0 21 -1 26q0 29 -1 36q0 26 3 29q1 4 5 4q9 0 9 -13q4 -48 4 -67l1 -33v-26q0 -8 -8 -10q-5 0 -8 7q0 1 -0.5 3.5t-1 8.5t-1.5 11q0 6 -0.5 11.5t-0.5 8.5v4z" />
    <glyph glyph-name="second" unicode="&#x2033;" horiz-adv-x="141" 
d="M48 636q0 21 -1 26q0 29 -1 36q0 26 3 29q1 4 5 4q9 0 9 -13q5 -60 5 -67l1 -33v-26q0 -8 -9 -10q-5 0 -8 7q0 1 -0.5 3.5t-1 8.5t-1.5 11q0 6 -0.5 11.5t-0.5 8.5v4zM88 636q0 21 -1 26q0 29 -1 36q0 26 3 29q1 4 5 4q9 0 9 -13q5 -60 5 -67l1 -33v-26q0 -8 -9 -10
q-5 0 -8 7q-2 4 -2 23q-2 13 -2 24z" />
    <glyph glyph-name="uni2034" unicode="&#x2034;" horiz-adv-x="178" 
d="M48 636q0 21 -1 26q0 29 -1 36q0 26 3 29q1 4 5 4q9 0 9 -13q5 -60 5 -67l1 -33v-26q0 -8 -9 -10q-5 0 -8 7q0 1 -0.5 3.5t-1 8.5t-1.5 11q0 6 -0.5 11.5t-0.5 8.5v4zM84 636q0 21 -1 26q0 29 -1 36q0 26 3 29q1 4 5 4q9 0 9 -13q4 -48 4 -67l1 -33v-26q0 -8 -8 -10
q-5 0 -8 7q-2 4 -2 23q-2 13 -2 24zM125 636q0 21 -1 26q0 29 -1 36q0 26 3 29q1 4 5 4q9 0 9 -13q4 -48 4 -67l1 -33v-26q0 -8 -8 -10q-5 0 -8 7q-2 4 -2 23q-2 13 -2 24z" />
    <glyph glyph-name="guilsinglleft" unicode="&#x2039;" horiz-adv-x="192" 
d="M69 408q-5 -5 3 -19l16 -29l25 -36l23 -37q6 -9 11 -15q2 -3 7 -9t7 -9q5 -10 5 -18q0 -3 -2 -7q-3 -4 -6 -4h-1q-10 3 -24 25l-16 24l-8 13l-9 14q-1 2 -3.5 6t-3.5 6l-27 47q-18 28 -19 31q-5 12 -5 13q0 6 6 13l41 60q13 20 22 32l9 13l9 12q5 5 8 12l8 11q2 5 7 7
q4 4 9 4h2q2 -2 2 -5q0 -9 -19 -38l-64 -97q-3 -5 -7.5 -12t-5.5 -8z" />
    <glyph glyph-name="guilsinglright" unicode="&#x203a;" horiz-adv-x="192" 
d="M140 408q-3 3 -5 6l-4 8q-1 1 -3 4l-2 2l-65 97l-5 9q-2 2 -5 8l-4 8q-3 8 -3 13q0 3 2 5h2q4 0 8 -4q3 -2 6 -7l8 -11q2 -2 4.5 -6t4.5 -6l9 -12l9 -13q18 -25 23 -32l41 -60q5 -8 5 -11t-5 -15q-1 -3 -19 -31l-26 -47l-25 -39l-16 -24l-5 -6l-3 -6l-1 -2l-3 -3l-1 -1
q-1 -2 -1 -3q-2 0 -4 -2q-1 -1 -3 -1t-3 -1h-1q-4 0 -5 4q-3 3 -3 7q0 8 5 18q3 6 14 18q10 12 12 15t7 11.5t11.5 18.5t12.5 21q25 37 32 51q8 14 4 19z" />
    <glyph glyph-name="Euro" unicode="&#x20ac;" horiz-adv-x="281" 
d="M83 124q-3 22 -3 57v34q1 16 1 35l5 94q-8 0 -15 -1t-16 -1q-11 0 -14 3q-4 4 -4 5v1q0 7 21 10q2 1 14 3q10 1 17 3q4 51 4 60q-1 -1 -14 -1t-14 1q-1 0 -4 1q-3 0 -4 1q-3 1 -3 2q0 2 -1 5v1q0 4 4 5q3 3 5 3h7q9 0 27 4q9 79 21 139q3 27 10 47q6 23 23 43
q14 20 35 25q4 2 11 2q18 0 32 -8q13 -3 13 -9q0 -3 -1 -4q-1 -7 -9 -7q-6 0 -15 4t-18 4q-7 0 -8 -1q-36 -8 -50 -80q-15 -81 -21 -155h6h47q13 0 17 -4q2 -2 2 -6q0 -7 -5 -7q-5 -1 -23 -1h-22q-18 0 -23 -1q-4 -18 -6 -60q35 2 50 5h7q3 1 6 1q12 0 15 -8v-2q1 -1 1 -2
q0 -10 -10 -10q-4 0 -26.5 -2.5t-41.5 -4.5q-8 -53 -9 -101v-37q0 -101 21 -149q14 -29 37 -46q3 -1 12 -1q24 0 46 24q6 7 11 17q7 16 9 32q2 6 3 11.5t2 8.5t1 4q2 6 7 6q4 0 5 -1q6 -1 6 -11v-4q0 -10 -4 -22q-10 -36 -21 -51q-27 -37 -69 -37q-23 2 -38 15
q-35 32 -49 119z" />
    <glyph glyph-name="uni2116" unicode="&#x2116;" horiz-adv-x="487" 
d="M376 515q-23 0 -27 1q-9 0 -9 8q0 5 7 8q3 2 10 3h12h65q24 0 29 -5q4 -1 4 -5q-1 -9 -14 -9q-24 -1 -39 -1h-5h-13h-20zM355 669q19 40 56 40h3q22 0 38 -22q14 -17 14 -41q0 -14 -4 -23q-10 -28 -27 -45q-25 -18 -35 -18q-5 0 -6 1q-37 7 -47 36q-2 8 -2 21q0 30 10 51
zM394 688q-10 -6 -22 -30q-8 -21 -8 -33q0 -2 1 -4v-4q5 -29 27 -33h3q1 -1 3 -1q20 0 37 29q5 8 10 31v6q0 17 -9 29q-11 13 -23 14h-4zM287 515v64v122q0 15 9 16h3l2 1q8 0 10 -11q1 -10 1 -41v-72q0 -42 1 -57v-28q0 -29 -1 -43q-3 -40 -3 -321v-56q0 -50 -1 -63v-2
q0 -9 -5 -16q-6 -6 -10 -6h-1q-7 2 -12 8q-7 7 -8 10q-7 20 -35 115q-6 14 -14 53q-3 10 -6.5 24t-5.5 23t-4 15l-92 310q-1 1 -3 7q-2 8 -3 10q-14 35 -39 77v-61q1 -28 1 -61v-13v-214v-186q0 -54 2 -110q0 -9 -4 -13q-5 -6 -9 -6q-1 -1 -3 -1t-10 11v5q-1 2 -1 5
q0 9 1 17q1 6 1 16q0 3 -1 6v6q-2 190 -2 203v75v19v58v19v50v68v31q-1 13 -1 63q0 38 1 48v2q0 6 15 12h2q17 0 38 -48q23 -47 34 -82l21 -61l18 -54l50 -184q35 -132 45 -158q2 -8 6 -20q2 -8 7 -18q1 -7 4 -7q-1 27 -1 126v35q0 12 0.5 59.5t0.5 82.5q2 62 2 141z" />
    <glyph glyph-name="trademark" unicode="&#x2122;" horiz-adv-x="355" 
d="M122 700l-22 -1v-28v-112q-1 -47 -1 -98v-5q0 -16 -10 -16q-5 0 -9 9q-2 10 -2 16v7q0 15 1 30q1 14 1 34v42q-1 18 -1 39v19v23q0 27 -2 41h-11q-10 0 -11 -1q-15 0 -15 13v1q0 9 6 9q14 0 23 1h21h42q4 0 5 -3q3 -3 3 -6q0 -14 -18 -14zM164 629q0 19 -0.5 38t-1 29
t-0.5 13v4q0 3 6 4h3q16 0 32 -27q9 -25 38 -120q1 -1 1 -3q0 -3 1 -4l1 2l2 4v5l1 3l15 53l27 64q1 0 4 11q2 8 6 9q4 2 13 2q6 0 10 -11q4 -8 4 -17v-5q0 -24 -2 -39q0 -8 -0.5 -22t-0.5 -20l-2 -94q0 -2 -2 -22q-1 -10 -1 -23v-8v-19q0 -15 -10 -15q-4 0 -6 3q-5 7 -5 26
v15q1 6 1 13v33v54l1 44q0 1 3 63q-2 -2 -24 -58q-10 -28 -13 -36q-3 -9 -12 -39q-5 -15 -8 -15h-1q-2 0 -16 25q-6 22 -13 39q-10 28 -13 39q0 2 -7 20q-7 14 -8 19l-3 6v-24q1 -5 1 -32v-25v-19v-18q0 -28 1 -37v-22l2 -43q0 -6 -10 -9h-3q-2 0 -5 3q0 1 -2 13q-1 4 -1 9
q-3 22 -3 57v30q1 14 1 30q0 35 -1 44z" />
    <glyph glyph-name="uniE000" unicode="&#xe000;" horiz-adv-x="307" 
d="M63 116h42h39h114q-19 92 -32 164q-3 13 -6 35q-3 25 -6 37q-36 200 -37 202t-7 44q-3 26 -8 53l-11 -55q-7 -35 -9 -44l-50 -274l-16 -89zM178 679l48 -265q1 -8 25 -136q7 -42 14.5 -80t11 -56t3.5 -20q2 -3 9 -45q3 -16 7.5 -37.5t5.5 -26.5q0 -1 0.5 -2.5t0.5 -2.5
q0 -5 -3 -8q-4 -6 -9 -6q-8 0 -11 11l-8 38q-3 15 -9 48q-84 2 -104 2h-12h-18q-57 0 -71 1l-15 -80q-9 -47 -13.5 -68.5t-15 -50.5t-25.5 -50q-25 -38 -65 -57q-36 -18 -78 -18h-7q-44 3 -82 26q-48 32 -70 83q-16 38 -16 78q0 11 2 31q13 79 78 120q36 20 72 21h5
q34 0 68 -17q42 -24 57 -69q7 -20 7 -42q0 -27 -9 -48q-19 -48 -67 -63q-13 -4 -30 -4q-12 0 -17 1q-24 4 -43 21q-30 26 -30 63v7q2 44 39 66q11 7 16 -3q8 -8 -3 -15q-27 -16 -29 -50v-6q0 -26 22 -46q14 -12 32 -15q4 -1 14 -1t22 3q36 11 53 50q8 18 8 39q0 20 -6 36
q-13 38 -49 57q-28 15 -54 15h-5q-34 -2 -61 -19q-56 -35 -67 -105q-2 -9 -2 -29q0 -35 13 -68q20 -47 63 -72q33 -21 71 -24h6q35 0 67 16q34 17 56 51q32 46 50 153q2 7 21 109q4 28 20 113q8 40 18 88.5t19 96t22 123.5l24 136q4 14 7 19q5 5 9 6q4 0 7 -1q3 -2 5 -5
q5 -11 6 -17z" />
    <glyph glyph-name="uniE001" unicode="&#xe001;" horiz-adv-x="286" 
d="M119 391q-21 -27 -50 -49v-11v-116v-100q0 -74 -1 -97q8 -2 16 -2q10 0 16 1q1 0 7.5 1t10.5 2q4 0 8 1l4 1q19 4 40 14q28 18 39 31q17 21 27 55q7 28 7 61q0 173 -72 198q-1 0 -6 1.5t-9 2.5q-17 3 -21 4q-10 0 -16 2zM196 506q16 28 16 71v10q-3 32 -5 44
q-13 46 -81 52h-14q-8 0 -40 -2l-5 -4v-3q3 -94 3 -122q0 -10 -0.5 -42t-0.5 -61v-16v-24v-23v-13l2 2q2 2 6.5 5.5t8.5 7.5q11 9 22 20q1 1 7.5 7t11.5 11q17 15 21 20l18 19q7 8 17 22q9 11 13 19zM71 -10q-29 0 -29 10q1 0 1 7v7q0 30 0.5 96.5t0.5 94.5v84v35
q-51 -33 -102 -43q-30 -7 -55 -7q-29 0 -66 10q-63 16 -105 60q-36 38 -45 83q-3 13 -3 29q0 37 20 66q28 44 88 52q7 1 21 1q34 0 79 -17q48 -22 69 -55q13 -22 15 -44q1 -3 1 -10q0 -20 -8 -36q-13 -32 -50 -45q-19 -8 -39 -8q-10 0 -28 4q-34 9 -51 27q-11 12 -14 28
q-2 10 -2 14q0 9 3 18q4 10 16 22q10 9 25 10q13 1 27 -4q12 -5 21 -17t-3 -17q-10 -7 -17 4q-3 4 -11 9q-10 3 -14 2q-6 0 -14 -5q-6 -6 -8 -13q-4 -7 -1 -18q2 -8 9 -17q14 -16 39 -20q11 -3 24 -3q15 0 30 5q26 11 37 34q6 14 6 23q0 8 -1 11q-1 17 -13 32q-18 29 -58 48
q-36 15 -70 15q-11 0 -17 -1q-51 -8 -72 -42q-15 -24 -15 -54q0 -9 2 -23q7 -38 40 -72q38 -40 93 -54q30 -8 60 -8q23 0 50 5q54 12 106 49v46q1 19 1 43q0 15 -0.5 63.5t-0.5 82.5q-2 61 -2 110q17 8 45 9q9 1 36 1q34 0 58 -11q42 -16 51 -59q6 -26 6 -52q0 -14 -4 -34
q-4 -32 -24 -67q-6 -11 -19 -24q-18 -21 -24 -27l-24 -23l12.5 -2.5t9.5 -1.5q25 -4 48 -23q28 -24 42 -69q10 -37 11 -89q1 -19 1 -41q0 -18 -1 -26q-3 -60 -31 -99q-38 -48 -99 -63q-25 -6 -64 -6z" />
    <glyph glyph-name="uniE002" unicode="&#xe002;" horiz-adv-x="261" 
d="M40 443q0 116 6 158q7 50 29 73l-13 17q-42 60 -73 84q-55 43 -117 43h-10q-33 -2 -66 -18q-27 -13 -49 -45q-18 -27 -21 -64v-10q0 -27 11 -55q14 -31 43 -52q26 -19 61 -22h11q43 0 78 30q19 17 27 38q7 15 7 37v9q-3 31 -25 50q-17 16 -42 16q-7 0 -10 -1
q-23 -3 -38 -22q-10 -14 -10 -33q0 -7 1 -10q1 -10 -10 -15q-12 0 -13 9q-1 5 -1 15q0 25 14 47q21 27 54 33q4 1 12 1q33 0 58 -23q30 -25 34 -64q1 -4 1 -13q0 -24 -9 -45q-12 -28 -34 -47q-39 -36 -96 -36h-11q-36 3 -73 27q-35 24 -51 61q-13 29 -13 65v12q3 39 26 74
q19 33 57 53q38 21 75 22h11q72 0 132 -48q34 -26 79 -89l11 -16q3 2 9 4.5t8 3.5q20 7 43 8q22 0 40 -10q15 -7 27 -21q11 -14 20 -35q7 -18 7 -35q0 -33 -34 -37q-1 0 -4 -0.5t-4 -0.5q-19 0 -35 9q-19 9 -41 31q-8 9 -24 28q-9 8 -16 19q-16 -25 -22 -79q-4 -32 -4 -123
q0 -56 -1 -71v-21v-90v-76q0 -47 4 -79q6 -52 19 -71q19 -32 65 -32q44 0 57 36q8 17 12 52q0 2 0.5 5.5t1.5 4.5q2 5 4 6q3 3 7 3q12 -2 12 -15q0 -4 -8 -46q-8 -30 -22 -48q-18 -22 -56 -22h-5q-47 2 -75 24q-26 31 -32 76q-5 40 -5 120v27q-1 12 -1 27v15v112v55z
M150 683q-28 -2 -45 -12q1 -1 4 -6t5 -8q12 -17 24 -30q21 -23 41 -34q16 -8 29 -8q8 0 12 3q7 4 7 18v5q-4 28 -30 55q-16 17 -43 17h-4z" />
    <glyph glyph-name="uniE003" unicode="&#xe003;" horiz-adv-x="273" 
d="M63 379q0 -34 1.5 -174.5t1.5 -173.5v-19h1h2q35 6 61 28q70 67 90 204q9 69 9 117q0 9 0.5 27.5t0.5 26.5q0 14 -2 40q-2 23 -14 89q-7 27 -21 51q-41 65 -80 77q-25 9 -47 9v-75q-2 -49 -3 -76v-151zM-182 75q0 -54 -40.5 -91t-94.5 -37q-48 0 -83.5 24.5t-54.5 63.5
q-14 31 -14 62q0 94 84 143q33 18 75 21h10q71 0 133 -49q32 -23 78 -88l41 -55q24 -27 51 -42q27 -14 41 -16v176q-2 96 -2 101q0 29 1 54v90q-1 14 -1 36v34q0 45 1 78v117q0 3 1 3q7 7 21 7q7 0 29 -5q83 -23 125 -113q19 -38 27 -101q5 -40 5 -81v-27q0 -131 -30 -226
q-20 -64 -48 -102q-49 -64 -119 -64q-28 0 -61 18q-34 18 -59 47q-2 3 -7.5 10t-15.5 21t-20 27q-85 127 -190 127h-10q-36 -1 -67 -20t-47 -45q-22 -35 -22 -75q0 -30 12 -53q13 -30 41 -51.5t63 -22.5h12q45 0 78 29.5t33 73.5q0 32 -19.5 54.5t-49.5 22.5h-8
q-22 -4 -35.5 -19.5t-13.5 -38.5v-5t0.5 -5t0 -4.5t-1 -4t-2.5 -2.5t-5 -1q-1 -1 -4 -1q-11 0 -11 26q0 33 24 55.5t58 22.5q39 0 65 -29t26 -70z" />
    <glyph glyph-name="uniE004" unicode="&#xe004;" horiz-adv-x="222" 
d="M72 25h27h12h5h71q17 0 17 -11q0 -10 -13 -13q-10 -2 -23 -2h-8h-7h-47q-2 0 -34 -2q2 -5 0 -10q0 -23 -15 -46q-16 -25 -44 -33q-12 -2 -18 -2q-22 0 -38 10q-18 10 -29 31q-8 15 -13 39q-3 20 -3 52q0 29 -2 47q-3 24 -13 43q-11 23 -29 33q-14 10 -39 15h-6
q-21 0 -36 -7q-17 -8 -34 -26q-15 -19 -18 -39q-2 -14 -2 -19q0 -19 6 -32q11 -25 33 -36q12 -6 27 -6q16 2 25 9q11 9 15 21q3 12 -1 25q-5 12 -16 17q-10 5 -24 3q-10 -2 -14 8q0 14 9 15q10 2 14 2q12 0 26 -7q18 -10 27 -29q4 -9 4 -23q0 -6 -2 -18q-8 -22 -24 -33
q-15 -11 -38 -13q-20 0 -38 8q-31 14 -45 48q-8 21 -8 42q0 9 2 23q7 29 24 49q16 20 43 32q18 10 41 10q8 0 12 -1q24 -1 51 -19q23 -18 36 -41q10 -22 15 -51q4 -22 4 -49q0 -28 2 -50q4 -19 10 -31q6 -14 20 -23q12 -6 27 -6q7 0 11 1q18 4 31 24q9 14 9 44v6v5v5v31
q-1 15 -1 35v26q0 54 -1 69l-1 78q-1 46 -1 209v75q-1 32 -1 53q1 19 1 102q0 6 12 6h17h8q31 0 40 1h34h7h2h5q3 0 13 -2q7 -3 7 -7q2 -5 -4 -9q-3 -3 -8 -4q-8 -2 -10 -2q-9 -1 -39 -1h-35h-24q0 -4 -1 -8t-1 -9v-22q0 -121 1 -121h6h11q3 0 7.5 0.5t11.5 1t12 0.5
q24 0 30 1q9 0 13 -7q3 -8 -2 -13q-2 -2 -17 -4q-5 -1 -29 -1q-18 0 -42 -3v-24v-227v-15q0 -11 -1 -14q0 -2 2 -88q2 -70 3 -96z" />
    <glyph glyph-name="uniE005" unicode="&#xe005;" horiz-adv-x="241" 
d="M58 -6q-15 0 -15 29v12q1 5 1 12q-1 14 -1 65v61l-1 67v59v101q-196 -5 -271 -84q-36 -39 -36 -82q0 -20 7 -38q10 -28 41 -49q29 -18 64 -18q23 0 41 7q23 8 38 28q18 20 18 42q0 16 -10 31q-16 25 -48 25q-27 0 -43 -19q-4 -4 -9 -4t-8 3q-4 4 -4 9q0 4 3 7
q24 29 61 29q20 0 37 -9q18 -10 30 -28q13 -19 13 -44q0 -8 -1 -12q-5 -42 -39 -64q-37 -24 -79 -24q-38 0 -76 22q-26 15 -43 43q-18 29 -18 62q0 17 4 32q20 78 120 120q90 37 208 39q1 31 1 130v28q1 13 1 32v81q3 3 15 3h6h6h132h2h1q20 0 20 -13v-1q0 -8 -28 -8h-129
q-1 -14 -1 -56q-1 -34 -1 -195h45h50q13 0 17 -4q5 -3 5 -10q0 -6 -4 -9q-4 -2 -10 -2h-58h-15h-15h-15q-1 -1 -1 -7v-333v-22q1 -11 1 -24q0 -20 -9 -20z" />
    <glyph glyph-name="uniE006" unicode="&#xe006;" horiz-adv-x="300" 
d="M325 713q-2 -26 -18 -43t-39 -17q-17 0 -44 16t-57 16q-32 -6 -50 -30q-18 -26 -28 -66q-18 -84 -18 -163q-3 -94 -3 -119q0 -41 1 -50v-2q4 -82 8 -114q7 -56 29 -91q20 -33 53 -33q10 0 13 1q33 7 51 38q13 22 18 59q4 22 6 101q1 20 1 80v22v4h-5q-53 -12 -55 -14
l-1 -1h-2q-8 0 -13 8q-1 1 -1 4q0 8 13 12q44 13 77 20q2 0 3 1q9 0 9 -11v-2q-2 -28 -2 -68v-12q0 -138 -13 -184q-13 -51 -52 -70q-28 -15 -52 -15h-7q-24 3 -41 17q-17 13 -33.5 50t-20.5 73q-10 103 -10 171v68q0 27 3 69q7 134 32 200q29 63 88 71q3 1 12 1
q25 0 63 -23q14 -9 29 -9q29 0 34 38v8q0 36 -30 48q-9 3 -10 3q-4 1 -11 1q-16 0 -40 -11q-9 -5 -41 -29t-56.5 -35t-51.5 -11q-6 0 -22 2q-41 7 -65.5 36.5t-24.5 68.5q0 8 2 22l1 7q20 67 80 82q12 3 24 3t17 -1q29 -5 47.5 -24.5t18.5 -46.5q0 -9 -1 -13
q-4 -24 -19.5 -37.5t-37.5 -13.5q-7 0 -11 1q-30 5 -43 34q-5 10 6 15q9 3 15 -7q4 -11 17 -16q9 -6 23 -3q23 8 28 32l1 7q-1 16 -9 25q-9 20 -39 25q-4 1 -13 1q-35 0 -61 -30q-16 -17 -20 -39l-1 -5q-2 -12 -2 -17q0 -29 16.5 -51.5t42.5 -29.5l9 -1q12 -2 19 -2l15 1
q34 7 80 41q32 22 45 29q28 16 48 16q4 0 16 -2q28 -4 44.5 -25t16.5 -49q0 -2 -0.5 -6t-0.5 -6z" />
    <glyph glyph-name="uniE007" unicode="&#xe007;" horiz-adv-x="324" 
d="M269 688q0 10 10 12h2h2q9 0 9 -43v-26v-84v-89v-68q0 -121 1 -178v-181q-1 -33 -11 -33l-2 1q-10 2 -12 13q0 107 1 194v187v50q0 11 -1 16h-9h-167h-23q-1 -23 -1 -104v-295v-13v-64v-37q0 -59 -17 -104q-23 -56 -67 -83q-34 -19 -73 -19q-19 0 -34 4q-57 15 -84 68
q-14 31 -14 62v7q3 40 24 67q22 32 59 43q14 5 34 5q22 0 37 -7q41 -16 52 -54q4 -12 4 -24q0 -9 -1 -13q-4 -19 -18 -35q-19 -22 -46 -24h-7q-22 0 -43 15q-7 6 -2 16q8 8 16 2q13 -11 31 -11h3q19 2 32 16q8 9 11 25q2 13 -2 26q-9 28 -38 40q-15 5 -29 5q-16 0 -28 -4
q-29 -11 -46 -35q-18 -23 -21 -55v-6q0 -26 13 -51q22 -43 69 -55q15 -5 29 -5q31 0 60 17q42 25 58 71q15 38 15 96v37q0 22 -0.5 58t-0.5 65l-1 355q-24 2 -64 9t-54 9q-20 4 -44 4q-14 0 -20 -1q-34 -4 -59 -20q-20 -15 -32 -36q-11 -20 -11 -41v-6q1 -23 16 -45
q14 -19 37 -30q15 -7 33 -7q19 0 37 8q15 6 29 22q10 13 14 31q1 4 1 13q0 10 -3 19q-6 16 -18 24q-10 8 -28 8q-13 -1 -25 -13q-10 -13 -8 -26q1 -16 14 -24q7 -6 2 -16q-8 -8 -17 -2q-18 14 -21 39v7q0 20 13 36q14 18 40 21h5q22 0 38 -12q18 -13 27 -35q4 -11 4 -27
q0 -11 -1 -16q-5 -23 -20 -42q-16 -18 -37 -27q-24 -11 -45 -11q-20 0 -43 10q-28 11 -47 38q-18 26 -19 56v5q0 28 13 53q13 26 40 44q31 21 69 24q18 2 26 2q14 0 44 -4q15 -2 54 -9.5t60 -9.5v171v12q0 34 14 34q11 0 11 -11v-36q-1 -15 -1 -35q0 -30 -1 -57v-60v-20h5
h37h21h34h105q1 30 1 107v49v51z" />
    <glyph glyph-name="uniE008" unicode="&#xe008;" horiz-adv-x="99" 
d="M44 52v89v38q0 38 1 65v62q0 46 -1 65v45v107v34v83v83v25q0 42 -11 70q-12 32 -40 59q-35 27 -75 32q-6 1 -16 1q-36 0 -65 -15q-41 -19 -62 -60q-19 -36 -19 -71q0 -10 1 -15q3 -39 27 -70q24 -33 61 -41q12 -3 24 -3q26 0 47 13q33 21 36 60v6q0 33 -25 53
q-17 16 -45 16q-6 0 -16 -2q-9 -2 -14 9q0 11 8 14q7 2 21 2q36 0 62 -23q31 -26 31 -71v-6q-3 -50 -47 -76q-29 -18 -59 -18q-10 0 -28 4q-43 9 -73 49q-28 38 -32 81q0 2 -0.5 8t-0.5 8q0 42 21 83q24 46 72 70q36 18 74 18q13 0 19 -1q50 -6 87 -39q30 -24 47 -67
q13 -36 13 -78v-25q0 -21 -0.5 -61.5t-0.5 -61.5v-15v-32v-38v-35v-14v-32q1 -18 1 -61v-62q-1 -28 -1 -65v-23v-113v-86v-10q0 -18 -6 -18h-4q-12 0 -12 32v19v5z" />
    <glyph glyph-name="uniE009" unicode="&#xe009;" horiz-adv-x="257" 
d="M122 -10q-32 0 -48 12q-16 13 -27 43t-15 78q0 7 8 9q1 1 6 1q10 0 10 -18q1 -25 10 -54q14 -48 47 -48h4q45 2 61 42q9 20 17 81q9 77 9 197v56q0 165 -2 275q-23 -21 -35 -24t-24 -3q-19 0 -33 6q-25 9 -47 33q-23 26 -50 93q-16 43 -33 67q-19 30 -50 51
q-40 27 -90 27q-24 0 -45 -6q-37 -11 -66 -39t-41 -63q-10 -30 -10 -55q0 -14 1 -21q4 -41 28 -71q35 -47 90 -55q5 -1 15 -1q20 0 37 6q28 9 46 29q28 30 28 72q0 2 -0.5 5t-0.5 5q-3 24 -16 42q-14 20 -33 28q-16 8 -36 8q-21 -2 -35 -12q-15 -9 -23 -26q-5 -10 -5 -24
q0 -8 1 -12q5 -22 20 -34q16 -10 34 -10h5q12 1 12 -10q0 -12 -10 -13h-6q-28 0 -48 16q-24 19 -30 47q-2 10 -2 15q0 16 8 34q9 22 32 37q22 13 46 14q27 0 47 -10q26 -13 42 -36t20 -51q1 -5 1 -14q0 -51 -35 -86q-25 -25 -54 -35q-18 -6 -42 -6q-14 0 -21 1
q-65 8 -105 63q-26 36 -32 81q-2 14 -2 24q0 31 11 62q15 41 47.5 73t75.5 44q22 7 51 7q59 0 104 -32q30 -19 55 -57q19 -31 35 -71q25 -64 46 -87q16 -18 37 -25q16 -6 27 -6q2 0 5 0.5t6.5 1.5t5.5 1q13 3 25 15l20 25q3 3 5 3q4 0 9 -5q4 -8 4 -21v-16v-22
q0 -6 0.5 -38.5t0.5 -59.5q2 -45 2 -99v-21q-1 -9 -1 -21v-47q-2 -105 -5 -150q-5 -81 -14 -132q-15 -80 -85 -83z" />
    <glyph glyph-name="uniE00A" unicode="&#xe00a;" horiz-adv-x="281" 
d="M50 702q16 0 16 -26v-37q1 -18 1 -82v-89q69 0 104 32q28 28 36 46q28 63 35 128q1 19 10 19q10 0 10 -24q-1 -34 -14.5 -81t-26.5 -67q-11 -17 -36 -42q-3 -3 -24.5 -15t-25.5 -12q37 -72 49 -140q3 -13 13 -100q6 -77 18 -116q20 -66 50 -71q8 0 8 -14q0 -12 -8 -12
t-22 10.5t-18 15.5q-35 44 -46 125q-3 19 -6 60.5t-7.5 74.5t-12.5 59q-13 39 -36 90q-4 8 -14 10h-2h-15q-11 0 -18 -1v-431q0 -88 -35 -134q-46 -58 -121 -58t-119 56q-30 39 -30 83q0 41 27.5 71.5t66.5 30.5q34 0 56 -22.5t22 -55.5q0 -15 -7.5 -34t-17.5 -19q-2 0 -7 3
q-8 8 -2 17q11 15 11 33q0 23 -15.5 39t-39.5 16q-30 0 -50 -23.5t-20 -55.5q0 -39 26 -70t62 -41q17 -5 37 -5q63 0 101 49q30 38 30 130v16v64v49v261v32q-7 0 -20 0.5t-19 0.5q-129 0 -162 -68q-9 -17 -9 -39q0 -37 24 -61.5t58 -24.5q29 0 48.5 17t19.5 43
q0 21 -11.5 33t-29.5 12q-14 0 -24 -8.5t-12 -20.5q-3 -14 -15 -10q-3 0 -7 4t-3 10q4 20 20.5 34.5t40.5 14.5q28 0 46.5 -20t18.5 -49q0 -36 -27 -60t-65 -24q-44 0 -75 32t-31 78q0 26 11 49q40 82 184 82q6 0 18.5 -0.5t19.5 -0.5v73v77q0 6 -0.5 21.5t-0.5 23.5
q0 39 9 39z" />
    <glyph glyph-name="uniE00B" unicode="&#xe00b;" horiz-adv-x="207" 
d="M65 722v-696q26 -2 68 -2q43 0 54 1q12 0 12 -13q0 -12 -39 -12q-9 -1 -34 -1q-22 0 -37 1h-39q-9 0 -9 4q0 480 1 718q0 50 -7.5 79.5t-32.5 44.5q-15 9 -31 9q-19 0 -36 -12q-25 -21 -25 -64q0 -23 8 -47q6 -18 21.5 -49.5t18.5 -37.5q23 -52 30 -93q3 -18 3 -38
q0 -87 -54 -150q-35 -42 -86 -65.5t-106 -23.5q-98 0 -168 67q-69 64 -69 160q0 67 38 118q23 31 62 52t83 21q28 0 52 -8q42 -13 71 -46.5t32 -79.5v-6q0 -44 -28.5 -75t-69.5 -31q-36 0 -63 26.5t-27 62.5q0 5 2 17q1 10 11 10q4 0 8 -3.5t4 -7.5q0 -2 -0.5 -8t-0.5 -8
q0 -27 20 -46.5t47 -19.5q21 0 39 12q35 24 35 73q0 25 -11 46q-15 30 -48 50t-73 20q-26 0 -56 -11q-40 -15 -68.5 -52t-34.5 -85q-1 -7 -1 -21q0 -86 61 -145q62 -59 152 -59q108 0 176 80q48 59 48 136q0 18 -3 34q-5 38 -33.5 99.5t-33.5 76.5q-12 34 -12 58q0 19 6 37
q8 23 28.5 40.5t48.5 18.5h2q48 0 75 -45q19 -34 19 -99v-12z" />
    <glyph glyph-name="uniE00C" unicode="&#xe00c;" horiz-adv-x="380" 
d="M47 474v87v99v48q-29 40 -94 62q-31 10 -65 10q-45 0 -85 -17q-36 -15 -64 -43t-40 -61q-9 -24 -9 -46v-6q0 -25 13 -49q13 -23 37 -35q15 -7 35 -7q9 0 13 1q36 7 50 40q5 17 5 28q0 20 -11 35q-6 9 -17 15q-6 4 -22 7q-11 0 -21 -5q-12 -7 -16 -14q-4 -8 -4 -19
q0 -7 3 -13q7 -16 25 -20q6 -1 7.5 -6t0.5 -7q0 -3 -3 -6.5t-9 -2.5q-29 5 -41 33q-5 12 -5 23q0 15 7 28q8 15 24 24q16 8 33 8q17 -2 32 -10q15 -10 24 -22q13 -19 16 -41v-6q0 -19 -7 -37q-19 -44 -66 -53q-12 -2 -19 -2q-24 0 -44 10q-28 13 -46 43q-16 28 -17 60v7
q0 28 10 54q29 78 118 116q46 19 93 19q39 0 72 -11q98 -32 126 -108l114 -347q1 -2 3 -8t3 -8q4 9 11 34l43 153l45 156q11 37 30 37q6 0 13 -7q3 -6 3 -18v-3q0 -65 -1 -114v-128v-109v-115v-41v-45v-45v-44q0 -36 -15 -36q-9 2 -9 16v7l2 138v152v78v19q0 14 0.5 33.5
t0.5 25.5q0 133 1 202l-47 -167q-65 -231 -78 -233h-1q-6 0 -14 24q-4 14 -11.5 42t-8.5 32l-29 86q-39 112 -45 134l-9 31.5t-13 44.5t-7 22l1 -44v-48v-24v-39v-62v-67v-107q0 -67 1 -82v-57v-106v-8v-14v-5v-1v-31v-31v-13q-2 -52 -29 -92q-30 -43 -82 -53q-9 -2 -26 -2
q-25 0 -45 7q-33 11 -59 38q-26 28 -34 62q-4 15 -4 31q0 23 7 40q16 47 58 63q15 7 35 7h9q22 -1 42 -15q34 -21 34 -67q0 -37 -29 -62q-9 -6 -17 2q-5 10 2 16q22 20 22 44q0 30 -25 48q-14 11 -31 12h-7q-12 0 -26 -6q-34 -14 -46 -50q-5 -17 -5 -33q0 -13 3 -25
q9 -31 28 -51q24 -24 51 -32q17 -6 36 -6q9 0 23 2q45 9 69 43q21 31 23 79v44v37v22q0 3 1 5v75v59v60v54v61v113z" />
    <glyph glyph-name="uniE00D" unicode="&#xe00d;" horiz-adv-x="336" 
d="M44 25v28q0 58 -1 103v391q0 17 0.5 69t0.5 73v2q0 12 9 12h7q14 0 60 -132l95 -288q50 -162 52 -167l5 -20q9 -25 12 -25v161q0 80 1 142v312q0 14 9 15q2 0 3 1h2q11 0 11 -27q0 -4 -0.5 -13t-0.5 -12v-91q-1 -19 -1 -56v-84q0 -88 -1 -161v-234q0 -7 -4.5 -14.5
t-10.5 -7.5h-1q-9 1 -15 18l-209 628v-129l2 -214l-1 -186v-122v-33q0 -54 -11 -83q-11 -25 -27 -42q-33 -32 -81 -32q-59 0 -99 40q-43 43 -43 103q0 52 35 88q33 33 75 33q14 0 31 -5q25 -8 42 -28.5t17 -46.5q0 -14 -6 -29q-16 -42 -60 -42q-6 0 -16 2t-25.5 12.5
t-15.5 19.5q0 5 5 9q10 5 16 -3q13 -17 35 -17q10 0 21 6q23 11 23 42q0 21 -16 37q-18 20 -50 20q-10 0 -20 -3q-30 -8 -49.5 -35.5t-19.5 -61.5q0 -2 0.5 -5.5t0.5 -5.5q5 -41 36 -72.5t74 -34.5h9q40 0 67.5 29t27.5 71v95z" />
    <glyph glyph-name="uniE00E" unicode="&#xe00e;" horiz-adv-x="283" 
d="M98 695q21 15 45 15q31 0 55 -15q13 -9 22 -21.5t14 -22t9 -31t5 -33t4 -45t4 -50.5q0 -1 3 -82q3 -48 3 -117q0 -83 -6 -145q-11 -83 -43 -124q-25 -33 -65 -33t-65 33q-32 41 -43 124q-6 62 -6 145q0 69 3 117q3 81 3 82q2 18 4.5 49t3.5 45t4.5 32t8.5 30l-10 15
q-43 60 -74 83q-57 45 -120 45h-8q-76 -6 -113 -65q-23 -37 -23 -75q0 -29 13 -53q12 -30 40 -51t64 -24h8q47 0 81 30t34 76v9q-4 28 -23 46.5t-47 18.5h-7q-22 -4 -35.5 -19t-13.5 -38v-5t0.5 -5t0 -4.5t-1 -4t-2.5 -2.5t-5 -1q-1 -1 -4 -1q-11 0 -11 24q0 35 23 57.5
t58 22.5q39 0 65 -29t26 -70q0 -54 -40.5 -91t-94.5 -37q-93 0 -137 88q-14 31 -14 62q0 94 84 143q33 18 74 21h11q68 0 117.5 -37t93.5 -100l4 -6q9 13 24 24zM229 541q-37 1 -75 19.5t-61 44.5q-1 1 -9 11l-5 8l-8 -40q-6 -36 -11 -162q-3 -58 -3 -150q0 -58 1 -72
q1 -20 13 -91q8 -41 29 -69t42 -28h12q24 0 43.5 27t27.5 70q12 71 13 91q1 14 1 72q0 92 -3 150q-3 79 -7 119zM227 564q0 8 -2 20q-6 37 -13 54.5t-28 34.5q-16 13 -37 13q-19 0 -35 -13q-12 -10 -23 -24l4 -5q11 -14 19 -22q21 -25 50 -42q22 -12 65 -16z" />
    <glyph glyph-name="uniE00F" unicode="&#xe00f;" horiz-adv-x="246" 
d="M63 286v-20v-57q2 -50 2 -58v-27q0 -21 1 -38v-37v-37q0 -10 -5 -13q-3 -3 -8 -2q-11 2 -11 16v75v142v181q0 13 2 127t2 128v12v1q-50 0 -86 -10q-62 -15 -84 -66q-9 -19 -9 -44v-7q3 -26 20 -46q23 -23 51 -23q29 0 49 23q15 16 15 42q-2 26 -17 40q-7 6 -16 7
q-7 3 -15 1q-9 -2 -13 -6q-5 -3 -8 -12q-1 -5 1 -15q2 -5 10 -10q11 -5 5 -15q-6 -12 -17 -6q-14 10 -19 22q-6 14 -3 29q6 17 14 24q10 9 25 13q13 2 27 -3t23 -12q26 -21 27 -56q0 -34 -22 -59q-26 -30 -66 -30t-68 32q-23 23 -27 58v7q0 30 13 56q28 60 98 78q32 8 94 12
v-1q3 1 21 1q31 0 49 -5q54 -12 77 -47q24 -36 30 -106q2 -44 2 -53v-13q0 -74 -48 -131q-29 -35 -84 -55q-8 -3 -32 -7zM63 333v-12v-8h5q13 0 48 20q63 43 77 86q10 31 10 78q0 26 -4 74q-6 70 -58 93q-31 14 -67 14h-5q0 -26 -1 -49q-1 -22 -1 -50q0 -44 -1 -54
q0 -51 -1 -93q-2 -84 -2 -99z" />
    <glyph glyph-name="uniE010" unicode="&#xe010;" horiz-adv-x="277" 
d="M134 8q18 0 31 9q-1 3 -3.5 8.5t-4.5 10t-4 8.5q-22 42 -56 67q-16 13 -37 22q0 -3 0.5 -8t0.5 -7q4 -45 20 -74q10 -17 22 -26q16 -10 31 -10zM226 70q-11 -34 -36 -59q3 -6 9 -20q6 -15 14 -21t17 -3q12 0 15 -8q2 -9 -8 -14q-4 -1 -11 -1q-15 0 -25 8q-16 11 -23 31
l-6 15q-18 -10 -39 -10q-24 1 -44 14q-18 13 -30 33q-17 32 -21 83q0 4 -1 11t-1 11q-12 3 -26 3q-3 0 -7.5 -0.5t-6.5 -0.5q-23 -2 -59 -14q-37 -14 -63 -20t-40 -6t-38 6q-39 9 -68 40q-28 32 -37 70q-6 24 -6 48q0 21 2 30q6 40 26 69q19 33 56 50q25 11 53 11
q12 0 18 -1q37 -6 65 -32q27 -24 37 -60q5 -20 5 -36q0 -18 -5 -36q-9 -29 -29 -49q-23 -23 -51 -28q-5 -1 -16 -1q-14 0 -24 3q-22 6 -36 22q-14 17 -18 37q0 1 -0.5 5t-0.5 5q0 16 7 32q9 17 28 29q15 8 33 8h8q10 -1 10 -14q0 -3 -4 -6.5t-10 -2.5q-14 2 -26 -5
q-14 -7 -19 -20q-7 -12 -4 -27q2 -14 12 -26q11 -11 26 -15t30 -1q21 3 39 21q16 16 22 39q5 15 5 30q0 10 -4 30q-9 29 -31 50q-23 21 -53 25q-5 1 -15 1q-21 0 -42 -9q-28 -13 -47 -42q-19 -28 -23 -60q-2 -18 -2 -28q0 -24 5 -41q9 -34 32 -59q26 -26 57 -34q17 -5 33 -5
t36 5q8 2 17 4.5t21.5 7t20.5 6.5q38 15 65 17q3 0 7.5 0.5t6.5 0.5q13 0 28 -3v27v54q0 18 -1 52t-1 49v46q0 59 3 89q9 110 17 142q8 34 29 57q20 22 49 23q32 0 56 -19q28 -21 40 -66q12 -43 19 -159q4 -92 4 -137q0 -55 -2 -83q-2 -39 -8 -96q-4 -34 -15 -72zM59 158
q28 -10 53 -29q36 -29 61 -75q3 -6 9 -20q15 16 22 40q8 28 13 68q6 57 8 95q2 28 2 82q0 46 -4 138q-7 113 -17 154q-12 38 -33 54q-17 14 -41 14q-19 -1 -32 -16q-14 -15 -22 -48q-10 -39 -18 -135q-4 -39 -4 -87q0 -7 0.5 -22.5t0.5 -23.5q2 -68 2 -104v-57v-28z" />
    <glyph glyph-name="uniE011" unicode="&#xe011;" horiz-adv-x="286" 
d="M66 606q5 -247 5 -257q14 0 16 1q5 3 25 14.5t27.5 16t25 16t25 18.5t19.5 20t17 24t9.5 26.5t4.5 31.5v25q0 69 -26 106q-12 17 -46 26.5t-70 9.5q-16 0 -31 -3q-1 -5 -1 -26v-49zM46 17q0 4 -0.5 12t-1.5 11v266l1 20q-18 0 -85.5 -32t-105.5 -32q-35 0 -59 23
q-61 58 -61 145q0 68 41.5 119t107.5 51q54 0 91.5 -36t37.5 -86q0 -36 -20 -63.5t-50 -37.5q-20 -6 -34 -6q-36 0 -61 21.5t-25 54.5q0 26 16 43.5t41 17.5q24 0 38.5 -15t15.5 -35q1 -8 -10 -12q-3 0 -7.5 3t-4.5 9q-1 11 -10 19t-21 8q-14 0 -24.5 -10.5t-10.5 -28.5
q0 -24 17.5 -39t44.5 -15q15 0 24 4q23 8 39.5 30t16.5 53q0 41 -30 70.5t-73 29.5q-54 0 -89.5 -44t-35.5 -105q0 -78 53 -129q18 -17 45 -17q31 0 97.5 32.5t90.5 32.5v83q0 41 -2 88q0 27 -0.5 66t-0.5 47q0 63 4 67q4 0 26 3.5t33 3.5q53 0 89 -13q34 -13 49 -46
q10 -17 14.5 -38t5 -38.5t0.5 -54.5q0 -20 -3 -36.5t-13 -31.5t-15.5 -24t-24.5 -23t-25 -18.5t-32 -20.5t-32 -20l3 -3q7 -4 16 -34l2 -17q0 -1 1.5 -17t2.5 -20q1 -7 3 -37t2 -31q12 -94 25 -126q3 -8 15 -21q14 -11 25 -12h5q15 0 25 9t10 26q0 4 -3 19.5t-3 18.5
q0 12 8 12t14.5 -13t6.5 -23v-4q2 -6 2 -7q0 -25 -14 -43t-38 -18h-4q-2 -1 -5 -1q-35 0 -52 24t-28 65q-10 38 -12 90q-1 20 -3.5 38t-2.5 42q-6 54 -17 63q-4 3 -10 3h-22q-1 -4 -1 -28q0 -25 1 -65v-217q0 -7 -1 -10v-24q0 -76 -21 -111q-35 -54 -102 -54q-35 0 -69 19
q-29 19 -50 52t-21 70q0 28 15 55q12 22 34 37t48 15q20 0 40 -11q40 -22 40 -67q0 -2 -0.5 -6t-0.5 -5q-2 -13 -10 -29t-17 -16q-4 0 -7 3q-2 1 -3.5 5.5t2.5 10.5q12 13 12 35q0 23 -16 40t-41 17h-2q-30 -1 -49.5 -25.5t-19.5 -58.5q0 -18 4 -31q9 -34 40 -61.5t71 -27.5
q13 0 30 5q31 9 49.5 37.5t20.5 69.5v21v46z" />
    <glyph glyph-name="uniE012" unicode="&#xe012;" horiz-adv-x="257" 
d="M78 507q19 -53 72 -155q45 -83 67 -144q4 -10 7 -22q3 -8 8 -42q1 -7 1 -24q0 -24 -3 -43q-1 -13 -11 -37q-9 -23 -26 -35q-20 -14 -51 -14q-32 0 -61 20q-35 25 -38 82q-1 9 -1 19v19v75q0 14 -4 26q-5 14 -13 19q-7 4 -22 4q-8 -1 -17 -8q-10 -6 -16 -16
q-10 -14 -16 -44q-3 -16 -7 -54q-7 -33 -19 -54q-18 -36 -54 -50q-18 -7 -36 -7q-22 0 -40 9q-38 17 -46 59q-1 6 -1 14q0 12 4 24q6 19 23 33q16 13 39 13h9q14 -2 23 -10q11 -8 17 -21q5 -11 3 -23q-1 -14 -9 -24q-7 -10 -21 -15q-11 -5 -25 -3q-7 1 -9 5t-1 7q0 2 4 5.5
t10 2.5q8 0 12 2q5 2 10 8q5 8 5 13q2 7 -2 14q-2 7 -9 11q-10 6 -13 7h-5q-12 0 -24 -9q-10 -8 -14 -21q-3 -7 -3 -18q0 -6 1 -11q5 -30 34 -44q14 -7 29 -7t26 5q25 9 43 39q10 19 15 49q1 7 3.5 25t4.5 28q6 33 20 54q9 13 20 21q18 10 30 11q3 1 9 1q16 0 28 -8
q24 -13 24 -60q1 -17 1 -55q0 -15 3 -60q4 -52 43 -71q14 -7 30 -7h12q18 3 27 10q12 7 18 19q5 13 11 35q4 20 4 43q0 7 -2 19q-1 30 -26 88q-22 55 -56 117q-37 67 -57 116q-29 69 -29 137q0 24 4 39q7 39 35 54q22 11 58 11q23 0 44 -8q20 -8 32 -24q18 -27 19 -76v-34
q0 -6 -4 -10q-3 -4 -7 -4q-2 0 -6 4q-5 8 -6 43q-1 29 -10 52q-9 18 -25 25q-18 10 -42 10q-23 0 -39 -9q-33 -14 -33 -70q0 -40 17 -95z" />
    <glyph glyph-name="uniE013" unicode="&#xe013;" horiz-adv-x="256" 
d="M203 673l-52 -1v-75q0 -172 -1 -292v-255v-24q0 -5 -3 -20q-3 -10 -8 -10q-13 0 -13 22q1 30 1 203v116q-1 51 -1 109v50v1v65v30v29q0 40 -1 52l-5 -1h-14h-19h-21h-8h-14q-66 0 -107 -10.5t-72 -39.5q-54 -52 -54 -129q0 -61 36 -105t91 -44q43 0 72.5 29t29.5 70
q0 31 -16 53t-39 30q-9 4 -25 4q-26 0 -43.5 -15t-17.5 -39q0 -18 10 -28.5t24 -10.5q12 0 21 8.5t10 19.5q0 11 12 11q12 -4 11 -11q-1 -19 -16 -34.5t-39 -15.5q-25 0 -41 17t-16 43q0 33 25 55.5t61 22.5q15 0 34 -6q29 -10 48.5 -38t19.5 -65q0 -50 -36.5 -85.5
t-89.5 -35.5q-66 0 -108 51t-42 119q0 85 61 143q34 33 80 45t113 12q2 1 6 1h48q12 1 59 1h80q6 0 12 -3q4 -4 4 -6q0 -7 -11 -10q-12 -3 -36 -3z" />
    <glyph glyph-name="uniE014" unicode="&#xe014;" horiz-adv-x="336" 
d="M297 698q12 0 12 -63q1 -25 1 -79q0 -8 -0.5 -29t-1 -61t-0.5 -78v-80q0 -170 -17 -234q-23 -79 -100 -79q-83 0 -117.5 57.5t-38.5 157.5q-2 90 -2 173q0 106 1 181v76q0 68 -26 110q-33 46 -100 46q-37 0 -62.5 -23t-25.5 -57q0 -29 19 -49t46 -20q24 0 42.5 15
t18.5 38q0 1 -0.5 3.5t-0.5 4.5q-2 13 -12 22t-23 9q-14 0 -23.5 -10.5t-8.5 -22.5q1 -6 -2.5 -9.5t-8.5 -3.5q-11 0 -11 16q0 21 15.5 37t38.5 16q24 0 41 -18t17 -44q0 -13 -4 -24q-8 -22 -29.5 -36.5t-49.5 -14.5q-36 0 -62.5 26.5t-26.5 64.5q0 43 32.5 72.5t79.5 29.5
q84 0 120 -54q29 -46 29 -131v-170q-1 -39 -1 -87q0 -104 3 -162q0 -58 23 -122q14 -35 47 -58q31 -17 62 -17q21 0 36.5 8.5t24 19.5t15 31.5t8.5 35.5t5 40q4 54 6 181l1 45v280q0 40 10 40z" />
    <glyph glyph-name="uniE015" unicode="&#xe015;" horiz-adv-x="309" 
d="M182 20q-1 -6 -6 -17q-2 -3 -5 -5q-6 -2 -8 -2h-3q-5 2 -6 10q-6 12 -13 57q0 1 -2.5 14.5t-7 39t-9.5 55.5q-7 40 -16 90l-10 51q-3 10 -49 274q-1 9 -10 52l-10 45q-8 29 -27 58q-47 67 -112 67h-2q-47 -1 -77 -33.5t-30 -80.5q0 -39 18.5 -69t46.5 -45q23 -13 50 -13
q37 0 61.5 24t24.5 60q0 32 -19 52.5t-46 20.5q-7 0 -8 -1q-38 -5 -38 -39q0 -1 0.5 -3.5t0.5 -3.5q0 -4 2 -8q10 -22 29 -22q6 0 12 3q12 4 15 -6q4 -9 -6 -14q-9 -4 -20 -4q-36 0 -52 33q-3 10 -4 14q0 2 -0.5 5t-0.5 4q0 24 16.5 41t42.5 21q2 1 12 1q38 0 62.5 -27
t24.5 -66q0 -44 -32 -75t-79 -31q-34 0 -60 15q-33 19 -55 53.5t-22 78.5q0 56 36.5 95.5t95.5 40.5h1q41 0 77 -22t60 -58q16 -24 25 -64q6 -26 13 -65q15 -79 19 -104q16 -84 17 -88t3 -16.5t4 -19.5q2 -10 8 -37l36 -201q4 -20 7.5 -43.5t5.5 -34.5t3 -15l8 48
q1 7 2.5 16.5t3 16t1.5 10.5l12 66l13 69l12 66l3.5 17.5t3.5 19.5q2 7 4 19.5t3 16.5l17 88q5 35 18 99q3 16 7 34l6 27t2 13q2 8 7 10q6 3 9 -1q6 -6 4 -17l-18 -95q-5 -22 -26 -143q-23 -127 -24 -131q-9 -47 -28 -157z" />
    <glyph glyph-name="uniE016" unicode="&#xe016;" horiz-adv-x="449" 
d="M150 18l-13 79l-18 103l-19 94q0 5 -3 21t-9.5 52.5t-11.5 68.5l-26 134q-2 3 -9 45q-3 16 -7.5 37.5t-5.5 26.5v3q0 16 11 16q8 0 11 -11q0 -2 1 -7.5t2.5 -14t3.5 -16.5q2 -9 5.5 -25.5t4.5 -22.5q22 -102 33 -173q1 -7 3.5 -21t5.5 -30.5t4 -21.5q36 -198 37 -201
q4 -15 6 -37q2 -11 5 -28t4 -21q1 2 2.5 7t2.5 7q0 2 1 4t1.5 3.5t1 4.5t1.5 5l5 15q2 8 23 72q14 39 19 57q2 8 9 29t9 31q7 32 15 34q4 1 9 -5q2 -3 4 -11q3 -26 19 -131q8 -45 23 -113q6 35 18 84l48 274l16 88l14 75l17 91q3 9 11 9h4l2 -1q2 -1 2 -2q5 -5 3 -14
q-7 -40 -21 -109q-6 -25 -46 -253l-18 -102l-19 -106l-15 -82q-2 -10 -7 -19q-4 -9 -9 -9t-12 16q-4 9 -11 49q-19 88 -29 148v2q-1 1 -1.5 3.5t-0.5 5.5q-2 20 -5 32l-13 -46l-20 -61l-17 -52l-17 -55q-14 -35 -18 -43q-41 -86 -66 -116q-51 -61 -126 -61q-83 0 -133 71
q-32 45 -32 98q0 74 55 108q28 19 61 19q47 0 79 -33t32 -77q0 -37 -25 -65t-61 -28q-32 0 -53 21t-21 50q0 25 14 43q7 8 17 3q10 -7 3 -16q-11 -13 -11 -29q0 -21 14.5 -35.5t36.5 -14.5q25 0 43 20.5t18 50.5q0 36 -25 62.5t-61 26.5q-27 0 -48 -14q-45 -28 -45 -92
q0 -44 29 -86q46 -63 114 -63q32 0 57.5 11.5t47 40t31 45.5t28.5 58q3 7 5 10z" />
    <glyph glyph-name="uniE017" unicode="&#xe017;" horiz-adv-x="290" 
d="M47 52l1 2q1 3 2 7.5t2 8.5l10 35l11 36l45 151q-35 -33 -79 -47q-36 -12 -70 -12q-39 0 -81 15q-58 22 -97 71t-39 115q0 68 46 116t112 48q53 0 91.5 -30.5t52.5 -73.5q7 -22 7 -47q0 -48 -28 -82t-74 -34q-39 0 -63.5 25.5t-24.5 61.5q0 34 20.5 58t49.5 32
q11 4 14 -7q1 -2 -0.5 -7t-7.5 -7q-22 -6 -37 -23.5t-15 -44.5q0 -28 18 -47.5t47 -19.5q34 0 56 27t22 68q0 22 -6 39q-12 37 -45.5 64t-77.5 27q-56 0 -94.5 -41t-38.5 -102q0 -59 35.5 -103t87.5 -63q36 -13 71 -13q31 0 62 10q71 23 104 89l3 10l-19 70q-2 5 -11 46
q-3 11 -29 100q-2 8 -15 51q-16 52 -17 56q-1 3 -1 10q1 4 11 4t14 -13q2 -9 18 -62q7 -26 22 -74l41 -143l40 148q2 5 6.5 21.5l7.5 27.5q2 8 4 15.5t3.5 12.5t1.5 6q5 13 13 47q2 7 9 11q8 2 9 2q10 0 5 -17q-2 -6 -2 -9q-1 -1 -3 -9q-3 -12 -11 -42l-12 -38
q-18 -66 -28 -105q-7 -31 -12 -46l-12 -44v-4q-4 -16 -7 -24l66 -221l11 -36l10 -35q1 -4 2 -8.5t2 -7.5l1 -2l11 -45q0 -11 -8 -11h-4q-8 0 -12 16q-30 100 -33 109l-30 102l-28 96l-30 -96l-30 -102q-3 -9 -33 -109q-4 -16 -12 -16h-4q-8 0 -8 11z" />
    <glyph glyph-name="uniE018" unicode="&#xe018;" horiz-adv-x="277" 
d="M-169 299q-86 0 -144 64t-58 154q0 74 38 136t96 96q59 36 126 36q54 0 98 -25.5t59 -65.5l89 -231q99 195 111 224q4 13 18 13q5 0 5 -7q0 -4 -1 -6q-17 -45 -63 -134.5t-59 -117.5l-1 -287v-81q0 -30 1 -39v-6q0 -21 -9 -24h-2q-7 0 -12 24v330v85q-10 25 -29.5 78
t-35 93t-31.5 76q-15 34 -53 56t-85 22q-67 0 -120.5 -37t-82.5 -90q-33 -55 -33 -118q0 -80 51 -137t127 -57q59 0 101.5 37.5t42.5 94.5q0 37 -19 64t-48 37q-18 7 -38 7q-34 0 -58.5 -18t-33.5 -45q-4 -12 -4 -24q0 -24 14 -40t36 -16q18 0 29.5 11.5t11.5 28.5q0 4 -1 8
t-1 6q0 11 12 11q8 0 11 -9q2 -6 2 -16q0 -27 -17.5 -45.5t-46.5 -18.5q-32 0 -53 23t-21 57q0 35 20 61.5t51 39.5q23 10 49 10q56 0 92.5 -37.5t36.5 -94.5q0 -67 -49.5 -111.5t-118.5 -44.5z" />
    <glyph glyph-name="uniE019" unicode="&#xe019;" horiz-adv-x="272" 
d="M212 435q11 0 11 -11t-11 -11h-17h-24l-54 -180q-8 -28 -16.5 -56t-13 -43t-5.5 -21q-8 -41 -16 -86q20 -1 63 -1h30h34h12h12h12q27 -2 27 -16q0 -9 -12 -9h-3h-41h-73h-83q-6 0 -6 12q0 4 11 59q4 15 5 22q4 18 4 19q36 137 83 288l4 12h-171h-24q-49 0 -85 -7
q-42 -7 -78 -30q-76 -49 -86 -135q-1 -6 -1 -18q0 -35 13 -68q16 -43 51 -70q35 -29 78 -37q14 -3 29 -3q28 0 56 10q33 13 56 39q21 25 28 60q2 12 2 19q0 23 -10 46q-15 32 -44 47q-23 13 -45 13q-2 0 -17 -3q-35 -6 -53 -32q-5 -7 -8 -21q-1 -10 1 -22q4 -11 11 -18
q7 -6 19 -8q11 -1 21 5q10 9 12 18q3 8 14 8q10 -5 8 -15q-6 -19 -21 -29q-14 -9 -32 -9h-4q-18 2 -31 14q-13 11 -18 28q-3 18 -3 21q0 6 1 10q4 19 12 30q22 35 66 43q12 2 21 2q28 0 56 -14q37 -20 55 -59q11 -25 11 -53q0 -8 -2 -24q-6 -39 -34 -71q-24 -30 -64 -45
q-29 -12 -65 -12q-17 0 -32 3q-50 10 -89 42q-38 30 -57 78q-15 40 -15 77q0 14 1 20q10 95 97 152q41 25 85 33q41 7 90 7h24h180q2 6 2 8l24 74q2 6 8 22.5t9 24.5q8 20 19 53l7 23q7 17 9 30l-43 -1h-141q-7 2 -8 5q-3 4 -3 8q0 7 23 9q9 1 50 1h23h17h27h48h8h10
q17 0 17 -3q0 -17 -4 -30q-4 -18 -10 -30q-7 -18 -9 -26q0 -1 -2 -5.5t-5 -12.5l-6 -16l-23 -65q-21 -61 -23 -67l-1 -2h18h17z" />
    <glyph glyph-name="uniE01A" unicode="&#xe01a;" horiz-adv-x="329" 
d="M193 478l-12 67q-3 14 -6.5 33t-5.5 31.5t-4 20.5q-4 18 -6 20l-24 -143q-3 -33 -9 -75l-18 -104q-3 -19 -10 -55.5t-9 -45.5l-9 -53l-1 -7l-2 -14l13 -2q12 -1 60 -1h35h27q3 0 14.5 -1t16.5 -2q19 0 27 -1l-42 171q-26 107 -35 161zM120 561q8 52 12 70l6 31q3 22 6 33
q5 12 12 12h1q10 -1 16 -24q16 -69 49 -234q2 -8 7 -26.5t7 -29.5q3 -12 6.5 -27.5t4.5 -19.5q1 -7 6 -28.5t8 -36.5l19 -76q4 -21 15 -64l9 -35q7 -33 10 -41q3 -13 7.5 -27.5t5.5 -19.5q39 -102 114 -154q53 -36 115 -36q72 0 123.5 49.5t51.5 118.5q0 50 -28 89.5
t-68 53.5q-24 9 -46 9q-40 0 -69 -20.5t-40 -51.5q-7 -18 -7 -36q0 -32 15.5 -54t38.5 -31q15 -7 30 -7q30 0 48.5 17.5t18.5 44.5q0 25 -17 41.5t-39 17.5q-6 1 -8.5 5t-1.5 7q0 11 12 10q31 -1 54 -23.5t23 -56.5q0 -36 -25.5 -61t-64.5 -25q-21 0 -40 8q-29 12 -48 40
t-19 66q0 24 8 44q14 38 49 63t83 25q27 0 54 -10q47 -18 79 -63t32 -101q0 -79 -58.5 -135.5t-140.5 -56.5q-69 0 -129 40q-83 58 -123 168q-11 34 -18 69q-8 33 -11 40q-47 3 -87 3h-73h-26q-10 1 -18 1q-1 -2 -4 -14t-4 -19l-9 -43q-4 -20 -5 -24q-1 -5 -6 -23
q-1 -4 -5 -4t-5 1q-3 1 -4 4q-1 2 -4 9v14q0 5 2 15q1 2 1 5t1 4q0 1 2.5 11.5t4.5 19.5q24 117 39 199q1 3 10 57q2 26 7 50z" />
    <glyph glyph-name="uniE01B" unicode="&#xe01b;" horiz-adv-x="273" 
d="M67 22v-5q0 -3 1 -4q8 -2 11 -2q2 -1 5 -1h4q32 0 66 14q52 19 69 80q1 3 7 43q2 34 2 40q0 29 -3 58q-12 70 -17 85q-10 36 -38 56q-19 16 -42 16q-3 0 -13 -2q-18 -5 -49 -26v-46v-99v-10q0 -50 -2 -105v-45.5t-0.5 -33.5t-0.5 -13zM88 687q-6 0 -11 -1h-11v-26v-14v-7
v-13v-26q0 -142 4 -199q24 18 46 49l3 3q0 1 2 3t24 29q7 7 18 20t15 17q17 28 21 39q11 21 11 44q0 25 -5 42q-7 16 -23 26q-23 14 -56 14h-30h-8zM129 427q-1 0 -1 -1l-2 -2q31 0 54 -13q26 -12 38 -38q27 -49 34 -111q4 -48 4 -76q0 -70 -22 -119q-26 -53 -70 -68
q-4 -2 -7 -2q29 -8 81 -32q21 -10 95 -56.5t118 -59.5q34 -11 69 -11q80 0 133.5 51.5t63.5 123.5q2 11 2 29q0 86 -57 148t-135 62q-58 0 -99 -38t-41 -92q0 -68 55 -104q32 -19 67 -19q40 0 68 23.5t28 59.5q0 26 -16 43t-39 17q-27 0 -42 -21q-8 -10 -18 -3q-9 5 -3 15
q22 32 63 32q34 0 57 -23.5t23 -58.5q0 -46 -35.5 -76.5t-86.5 -30.5q-42 0 -80 24q-66 45 -66 121q0 64 49 108.5t117 44.5q90 0 152.5 -68.5t62.5 -162.5q0 -8 -2 -32q-10 -79 -70.5 -137t-151.5 -58q-35 0 -77 11q-48 15 -124 62t-93 56q-66 35 -138 42q-4 1 -11 1t-12 1
t-9 3q-3 0 -6 6q-3 3 -3 12q-1 29 -1 131v67q0 110 -2 198q0 89 -1 152t-1 145v3h1q1 0 1 1q8 2 18 2h9h9h13q64 0 103 -18q21 -9 32 -35q6 -15 7 -36v-17q0 -59 -105 -176z" />
    <glyph glyph-name="uniE01C" unicode="&#xe01c;" horiz-adv-x="237" 
d="M129 14q33 0 52 19l9 8q27 32 32 40q20 27 52 78t43 67q61 87 134 119q38 16 79 16q14 0 21 -1q51 -6 94 -39q40 -33 58 -83q10 -33 10 -62q0 -24 -4 -41q-15 -60 -67 -96q-39 -25 -81 -25q-18 0 -36 5q-30 9 -53 30.5t-33 49.5q-9 23 -9 46q0 2 0.5 7t0.5 7q3 28 21 56
q20 32 57 40q11 3 21 3q28 0 48 -15q27 -20 31 -54v-6q0 -31 -20 -53q-9 -8 -17 0q-5 10 0 16q15 15 15 37v3q-4 24 -22 38q-15 12 -36 12l-15 -3q-28 -7 -44 -30q-15 -22 -16 -46q-1 -4 -1 -13q0 -19 7 -36q21 -53 71 -66q13 -4 31 -4q39 0 68 19q44 29 56 84q5 20 5 37
q0 26 -9 52q-15 46 -51 73q-37 29 -83 35q-6 1 -19 1q-33 0 -70 -14q-63 -26 -122 -112q-13 -19 -44.5 -69t-51.5 -77q-1 -1 -8.5 -11.5t-10 -13t-10.5 -12t-12.5 -13t-12.5 -10.5t-15 -9.5t-16 -5t-18 -2.5h-3q-42 0 -60 23t-26 76q-5 38 -6 81q-2 68 -2 82v59q1 27 1 61
q0 52 -1 67v34q0 5 2 87q4 52 11 77q18 67 71 69q61 0 88 -19q6 -4 7 -9q-1 -10 -8 -12h-3q-8 2 -25 6.5t-26 6.5q-16 2 -23 2q-21 0 -33 -9q-18 -12 -28 -55q-11 -44 -11 -127v-22q2 -52 2 -103q0 -131 3 -197q5 -74 10 -97q12 -57 49 -57h2z" />
    <glyph glyph-name="uniE01D" unicode="&#xe01d;" horiz-adv-x="274" 
d="M238 551q1 -9 4 -193q0 -47 2 -88q0 -24 0.5 -53t0.5 -34q0 -16 -1 -23q0 -13 -2 -19q0 -7 -2 -13q0 -5 -4 -13q-2 -5 -5 -11q-2 -5 -6 -12l-6 -14q-23 -35 -69 -60q-49 -29 -92 -29q-2 0 -5 1h-5q-5 0 -5 249v156q1 60 1 92v25q0 45 -1 57v25v26v25v17v17v16q0 2 3.5 4
t6.5 3l3 1q38 3 73 13t82.5 28.5t63.5 24.5q51 16 94 16q104 0 152 -88q18 -37 18 -73q0 -83 -65 -126q-34 -22 -71 -22q-51 0 -85 35.5t-34 85.5q0 61 45 92q26 20 56 20q33 0 56 -22t23 -53q0 -29 -20 -48.5t-48 -19.5q-19 0 -31 7q-13 7 -5 16q1 3 6 5t11 0q8 -5 20 -5
q18 0 30 12.5t12 32.5q0 22 -15.5 36.5t-39.5 14.5q-22 0 -41 -13q-35 -26 -35 -74q0 -41 28 -70t68 -29q32 0 57 17q53 35 53 107q0 34 -15 64q-40 76 -131 76q-36 0 -84 -15q-16 -5 -70 -26t-87 -30q26 -9 46 -23q25 -18 42 -51q22 -36 23 -67zM221 317q0 7 -0.5 17.5
t-1 27t-0.5 29.5q0 58 -1 74l-1 48q-2 41 -6 53q-2 13 -18 48q-18 26 -46 42q-48 25 -79 26h-2v-10v-10v-12v-42q1 -19 1 -41v-356v-102q0 -18 1 -33q1 -14 1 -34v-13v-9l1 -8q22 6 43 14q33 12 64 42q29 29 39 63q7 18 7 57q0 15 -2 129z" />
    <glyph glyph-name="uniE01E" unicode="&#xe01e;" horiz-adv-x="271" 
d="M138 -10q-33 0 -56 27.5t-31 70.5q-7 38 -7 113v10q0 53 1 80v26q0 41 -1 150t-1 114q0 46 25.5 85t66.5 39h3q65 0 86 -76q8 -32 8 -191v-26q0 -75 -6 -81q-7 -6 -51 -6q-13 0 -36 0.5t-31 0.5q-17 0 -21.5 -0.5t-16.5 -0.5v-30q0 -13 -0.5 -26t-0.5 -36v-47
q0 -52 6 -90q6 -36 23.5 -60t40.5 -24q63 0 98 63q23 41 37 107q1 6 5.5 31t9 41t10.5 31q34 82 105 105q22 7 46 7q76 0 107 -62q11 -22 11 -47q0 -43 -28.5 -71.5t-69.5 -28.5q-39 0 -66.5 25t-27.5 62q0 29 18 48.5t45 19.5q26 0 42 -16.5t16 -39.5q0 -4 -1 -9.5t-1 -6.5
q-3 -9 -12 -9q-13 0 -13 12q0 2 1 6t1 7q0 14 -9.5 23t-23.5 9q-16 0 -27.5 -12t-11.5 -32q0 -27 20 -45t50 -18q31 0 52.5 21t21.5 55q0 18 -9 37q-24 49 -85 49q-21 0 -37 -6q-61 -19 -91 -92q-11 -26 -26.5 -101t-38.5 -113q-17 -30 -47.5 -51t-71.5 -21zM66 565
q1 -17 2 -106t1 -111h36q9 0 27.5 -0.5t26.5 -0.5q40 0 48 6q3 4 3 47v38q0 135 -3 162q-12 80 -72 80h-3q-32 0 -49 -36t-17 -79z" />
    <glyph glyph-name="uniE01F" unicode="&#xe01f;" horiz-adv-x="226" 
d="M43 25v16v18q0 15 2 123q2 54 2 99v47v33v86q0 59 1 83v10v41v64v10v14q0 29 4 30h29q13 0 48 0.5t51 0.5q3 1 7 1v21q0 62 36 99.5t96 37.5q68 0 113 -47t45 -112q0 -39 -15.5 -75t-35 -59.5t-41 -52.5t-29.5 -52q-7 -21 -7 -43q0 -52 34.5 -84t86.5 -32q46 0 80.5 23.5
t50.5 59.5q11 25 11 48q0 39 -24 65t-58 26q-30 0 -49.5 -19.5t-19.5 -48.5q0 -26 14.5 -43t34.5 -21q10 -2 10 -14q-5 -10 -14 -8q-29 6 -49.5 30t-20.5 57q0 37 26.5 63.5t66.5 26.5q46 0 76.5 -34t30.5 -81q0 -31 -12 -56q-20 -41 -59.5 -68.5t-93.5 -27.5
q-61 0 -103.5 38.5t-42.5 100.5q0 23 9 50q11 33 42 72t54 78t23 82q0 57 -37.5 96t-94.5 39q-51 0 -80 -30.5t-29 -84.5v-24q0 -20 -16 -20q-82 0 -123 -3q-1 -10 -1 -47v-22v-24v-65v-26v-15q16 1 89 1q15 0 15 -8q0 -9 -4 -12q-6 -2 -22 -2h-40h-21q-15 0 -18 -1
q-1 -20 -1 -97v-98v-10q-1 -4 -1 -10v-26q0 -17 -0.5 -38.5t-1 -32.5t-0.5 -17v-21q0 -17 -1 -33q0 -41 -1 -63q-2 -12 -12 -12q-4 0 -6.5 2.5t-2.5 5.5l-1 3v19z" />
    <glyph glyph-name="uniE020" unicode="&#xe020;" horiz-adv-x="285" 
d="M165 703h4q41 0 63 -25q14 -14 26 -41q1 -1 1 -7t-3 -9q-3 -8 -7 -6q-1 1 -10 14q-2 3 -5.5 8t-6 9t-4.5 7l-7 10q-2 1 -5.5 4t-5.5 5q-4 3 -16 7q-9 3 -19 3h-3q-25 0 -46 -16q-30 -24 -41 -89q-8 -54 -13 -162q-4 -78 -4 -143q0 -44 2 -72t12 -91q17 -86 71 -97
q73 0 84 74q2 18 2 46v127q0 27 -1 33h-43l-22 1q-9 3 -9 7v4q3 11 16 11h21h19q3 1 31 1q19 0 60 3t62 3q36 0 74 -9q62 -17 94 -63q23 -34 23 -75q0 -50 -33 -86t-82 -36q-42 0 -72.5 29.5t-30.5 68.5q0 20 10 40q10 21 31 35.5t45 14.5q14 0 32 -9q31 -16 31 -50
q0 -13 -7 -24q-14 -25 -42 -25q-7 0 -15 3t-16.5 12t-8.5 16q0 6 7 9q12 4 16 -5q6 -11 18 -11q9 0 16.5 6.5t7.5 17.5q0 16 -12 26t-30 10q-11 0 -20 -4q-15 -6 -26 -23t-11 -38q0 -10 1 -14q5 -26 26 -44t51 -18q39 0 64.5 28.5t25.5 68.5q0 35 -21 65q-43 61 -155 61h-17
q-13 0 -40.5 -2t-43.5 -3v-42v-24v-29v-31v-60q-4 -117 -104 -117q-40 0 -65 33q-32 41 -43 124q-6 62 -6 145q0 61 3 109q3 81 3 82q10 113 29 161q10 27 33 43q22 15 57 15z" />
    <glyph glyph-name="uniE021" unicode="&#xe021;" horiz-adv-x="286" 
d="M244 705q13 0 13 -16v-9v-240q14 0 52.5 2t58.5 2q59 0 103 -12q54 -15 93 -52.5t50 -88.5q4 -16 4 -35q0 -45 -23.5 -81t-58.5 -54q-35 -16 -64 -16q-40 0 -74.5 22t-50.5 53q-15 28 -15 62q0 30 12 54q27 55 85 55h9q33 -3 53 -26.5t20 -52.5q0 -34 -27 -57
q-4 -3 -8 -3q-11 0 -11 11q0 5 5 8q18 17 18 41q0 33 -25 49q-15 9 -32 9q-21 0 -39 -12.5t-27 -31.5q-11 -20 -11 -44q0 -27 13 -51q14 -27 42.5 -45t62.5 -18q28 0 54 13q29 14 49 45t20 69q0 16 -3 31q-9 45 -44 78t-83 47q-36 10 -92 10q-21 0 -61 -2t-55 -2v-302v-61
v-24q0 -7 -0.5 -19.5t-0.5 -18.5q0 -48 14 -79q10 -24 33.5 -40t52.5 -16q18 0 35 7q22 9 37 29t15 45q0 10 -3 20q-5 19 -19.5 32t-33.5 13q-11 0 -19 -4q-25 -11 -25 -41q0 -24 17 -35q6 -5 6 -9q0 -11 -11 -11q-5 0 -7 2q-27 18 -27 55q0 22 12 37q22 28 55 28q5 0 15 -2
q26 -6 44.5 -28.5t18.5 -54.5q0 -6 -2 -18q-6 -35 -38 -62t-71 -27q-28 0 -55 15q-63 37 -66 126v53v68v79v63v99v81h-47h-3q-25 -1 -64 -1q-48 -2 -58 -2v-407q0 -17 -9 -17h-1q-11 0 -11 41q-1 7 -1 34q-1 15 -1 33v242q1 17 1 80v233q1 13 1 34q0 18 9 18q12 0 12 -15
v-154q-1 -28 -1 -65q0 -34 1 -34q80 0 139 3q3 0 9 -0.5t9 -0.5t8 0.5t7 0.5v23v49v13v23v116q0 4 -0.5 11t-0.5 11q0 19 9 19h2z" />
    <glyph glyph-name="uniE022" unicode="&#xe022;" horiz-adv-x="96" 
d="M43 372q1 16 1 88t-1 89v59q-1 24 -1 44v18q0 22 3 26q3 5 8 5q3 0 5 -3q5 -5 5 -42q0 -15 2 -93q1 -40 1 -108q1 -33 1 -96v-217v-27v-26v-29v-50q0 -53 8 -82q9 -35 35 -53q24 -17 54 -17h5q48 3 77 42q21 26 21 62q0 14 -3 24q-9 38 -42 55q-14 7 -36 7q-16 0 -32 -9
q-21 -13 -26 -37q-2 -8 -2 -13q0 -19 11 -30q9 -13 26 -17q17 -3 31 4q10 4 16 -5q5 -10 -6 -16q-14 -7 -31 -7q-6 0 -16 2q-23 5 -40 25q-15 20 -15 44q0 5 2 17q7 33 37 51q22 14 45 14h5q19 0 41 -10q45 -22 57 -69q3 -14 3 -28q0 -42 -27 -77q-36 -48 -96 -51h-5
q-41 0 -70 22q-31 21 -44 64q-6 26 -6 68v20v5q0 287 -1 357z" />
    <glyph glyph-name="uniE023" unicode="&#xe023;" horiz-adv-x="301" 
d="M242 496v25v44v29q-1 30 -1 63v23q0 41 19 56t53 15q29 0 48.5 -22t24.5 -47q4 -17 4 -40q0 -12 -1.5 -34t-1.5 -31q0 -23 5 -37q3 -10 8 -16q22 -35 67 -35q21 0 44 13q48 28 48 79q0 10 -3 22q-5 22 -21.5 36t-37.5 15h-14q-18 -3 -29.5 -15.5t-11.5 -29.5q0 -5 1 -8
l7 -14q12 -15 25 -15q5 0 15 6q11 6 13 17q2 9 14 9q11 -4 9 -13q-4 -21 -22 -32q-14 -9 -29 -9q-30 0 -46 23q-8 12 -9 23q-1 4 -1 13q0 26 17 44t43 23q10 2 21 2q29 -2 51 -21.5t29 -47.5q4 -13 4 -28q0 -31 -17 -57.5t-43 -40.5q-28 -16 -58 -16q-56 0 -87 45
q-8 13 -10 19q-9 23 -9 48q0 12 2.5 35.5t2.5 34.5q0 15 -3 27q-5 22 -18.5 36.5t-32.5 14.5q-23 0 -35 -8.5t-12 -34.5v-115v-60q2 -138 2 -159q0 -16 -2 -100q-2 -51 -13 -118q-6 -33 -26 -77q-15 -35 -42 -50q-5 -4 -18 -7q-17 -5 -32 -5q-16 0 -25 4q-27 11 -45 35
q-22 32 -25 87v18v13v12v7v3v2q0 25 11 25h2q9 -1 9 -31v-14v-14q0 -21 1 -30q4 -44 25 -69q17 -25 49 -25q2 0 16 2q55 16 72 101q17 76 20 161q1 10 1 50q0 43 -1 77t-1 71v18z" />
    <glyph glyph-name="uniE024" unicode="&#xe024;" horiz-adv-x="384" 
d="M68 425q45 9 84 41q40 34 61 73l17 31q27 58 30 69q11 33 20 52q14 35 35 54q30 27 75 27q46 0 78 -30q31 -31 31 -74q0 -39 -25 -66q-26 -28 -63 -28q-22 0 -42 13q-31 20 -31 57q0 25 14.5 42t35.5 23q11 2 15 -9q0 -11 -9 -14q-13 -3 -22.5 -13.5t-9.5 -27.5
q0 -22 17 -36q13 -10 33 -10q26 0 43 17q19 17 19 51q0 32 -19 54q-26 29 -66 29q-34 0 -57 -20q-8 -7 -14 -15t-12 -21t-8.5 -20t-9 -25.5t-7.5 -22.5l-11 -24l-8 -21q-6 -18 -9 -23l-10 -19q-7 -13 -14 -22q-4 -6 -14 -18q-54 -64 -104 -83q2 -1 6 -3.5t6 -3.5l13 -7
q19 -11 36 -40q9 -15 16 -32q10 -24 16 -48q13 -48 18 -103q3 -35 3 -67q0 -40 -1 -59q-4 -43 -4 -76q0 -15 1 -22q3 -30 21 -55q17 -25 42 -25q45 0 55 38q2 10 2 21q0 5 -2 25q0 4 -0.5 9t-1 8t-0.5 4q-1 5 -1 19q0 7 3 10q1 3 5 3t5 -4l2 -5q1 -1 2 -3l1 -1q5 -13 7 -29
q0 -5 1.5 -14.5t1.5 -13.5q0 -3 -1.5 -13t-1.5 -15q-6 -32 -27 -49q-22 -15 -51 -15q-22 0 -45 20q-19 16 -30 45q-10 27 -10 70q0 11 4 71q2 30 2 48q0 32 -3 65q-1 22 -7 57q-3 18 -10 42q-6 29 -21 62q-12 25 -28 42q-17 20 -39 22h-5q-7 0 -22 -5q-2 -206 -2 -216v-40
q0 -31 1 -42v-35q0 -46 -2 -56q-2 -6 -8 -6h-2q-5 2 -8 9q-5 12 -5 48v32q0 125 1 236t1 232v32q0 76 1 93q2 21 9 21q3 0 4 -1q10 -8 10 -22v-65v-29v-79q0 -20 -1 -37v-39z" />
    <glyph glyph-name="uniE025" unicode="&#xe025;" horiz-adv-x="221" 
d="M44 669q0 31 9 31q11 0 13 -15v-147q1 -39 1 -96v-182q0 -130 -1 -170v-65q8 -1 46 -1h62q11 0 41.5 0.5t42.5 1t37 1.5t38.5 3.5t31.5 6t31.5 9.5t25.5 14q66 45 66 134q0 87 -59 139q-41 34 -86 34q-49 0 -81.5 -33t-32.5 -81q0 -44 29.5 -76t68.5 -32q31 0 51.5 19.5
t20.5 48.5q0 25 -16 41t-39 16q-17 0 -29 -7q-10 -6 -16 3t4 16q16 11 41 11q33 0 56 -23t23 -56q0 -38 -27.5 -64t-68.5 -26q-49 0 -84 38t-35 90q0 57 38 97t98 40q58 0 103 -40q65 -59 65 -155q0 -101 -78 -152q-29 -20 -77.5 -29.5t-83 -11t-98.5 -1.5h-128q-5 0 -6 6
v25q1 10 1 27v16q2 116 2 276v319z" />
    <glyph glyph-name="uniE026" unicode="&#xe026;" horiz-adv-x="354" 
d="M66 669v-29v-50q-1 -24 -1 -58v-137v-72q0 -169 1 -213v-44v-29v-15q0 -16 -4 -22q-4 -4 -10 -4h-1q-9 3 -9 12v3q1 42 1 196v79v94v50q0 117 1 152v8v51q0 61 9 62l2 2h2l5 -3q7 -2 12 -9l14 -15l6 -8l117 -176l20 51l25 61l23 59q0 1 1 3t1.5 4.5t1.5 4.5q2 5 5 11
l5 10q5 8 6 8l9 3h3q12 0 17 -21v-79v-83v-83q0 -250 -2 -368v-17q0 -72 6 -99q9 -39 41.5 -61.5t78.5 -22.5q91 0 141 76q23 38 23 77q0 50 -31.5 84t-78.5 34q-63 0 -87 -54q-8 -16 -8 -37q0 -28 15 -45.5t38 -17.5h2q11 2 15 4q23 10 23 34q0 9 -4 16q-5 9 -13 13
q-9 6 -2 17q1 3 5.5 4t11.5 -2q10 -7 18 -22q7 -13 7 -26q0 -38 -35 -54q-11 -6 -25 -7h-3q-34 0 -55.5 25.5t-21.5 60.5q0 24 10 45q13 29 42 49.5t67 20.5q58 0 95.5 -41.5t37.5 -99.5q0 -47 -27 -89q-56 -87 -160 -87q-54 0 -93 27t-49 74q-6 28 -6 71v37v46v16
q0 28 2 364q0 16 1 28v28v14v110q-10 -31 -28 -70q-7 -19 -16.5 -42t-11.5 -28q-1 -3 -3.5 -9.5t-3.5 -9.5q-2 -4 -4 -11.5t-3 -9.5q-3 -8 -8 -16q-1 -2 -4 -6.5t-4 -6.5q-8 -4 -10 -4q-10 0 -18 17q-25 44 -88 142q-21 32 -39 55z" />
    <glyph glyph-name="uniE027" unicode="&#xe027;" horiz-adv-x="321" 
d="M44 618q0 6 -0.5 18t-0.5 17q0 45 17 45q8 0 8 -16v-35h1q1 0 2 1q13 22 38 38q31 21 66 21h2q31 -2 56 -17q26 -13 37 -37q21 -36 21 -111q0 -4 -6 -232q-1 -28 -3.5 -80.5t-3.5 -82.5v-18q0 -43 10 -72q14 -45 45 -68.5t70 -23.5q42 0 87 28q37 23 63 62.5t26 86.5
q0 36 -17.5 64t-44.5 40q-19 9 -40 9q-43 0 -70 -33q-26 -28 -26 -64q0 -31 17.5 -52t44.5 -21q23 0 38 15t15 36t-15 35t-35 14q-7 0 -9.5 4.5t-1.5 7.5q0 11 11 11q30 0 51.5 -20t21.5 -52q0 -31 -21.5 -52.5t-54.5 -21.5q-38 0 -62 27.5t-24 67.5t23.5 71t58.5 43
q26 7 38 7q54 0 89.5 -38.5t35.5 -96.5q0 -81 -64.5 -141t-136.5 -60h-4q-44 2 -78.5 27t-51.5 74q-13 41 -13 89v15q1 26 3 75t3 77l3 120q0 20 2 56t2 54q0 33 -4 64q-7 66 -59 83q-12 5 -33 5q-30 -2 -48 -14q-17 -10 -36.5 -30.5t-19.5 -33.5v-35q0 -12 -1 -23v-520
q0 -39 -11 -39h-1q-12 2 -13 47v234q0 23 0.5 67.5t1.5 64.5v109q1 48 1 110z" />
    <glyph glyph-name="uniE028" unicode="&#xe028;" horiz-adv-x="307" 
d="M236 606q-9 33 -30 57q-12 14 -35 20q-14 2 -15 2q-17 0 -29 -6q-7 -4 -12 -8t-9 -9t-6 -8t-5 -9.5t-4 -7.5q-3 -7 -12 -36q-9 -32 -9 -49q0 -36 33 -48q9 -3 20 -3q59 0 113 105zM262 605q1 -5 3 -17q4 -29 6 -62q3 -68 3 -173v-31q0 -57 -4 -94q-5 -45 -11 -84
q-12 -49 -19 -68q-17 -46 -40 -69q-23 -20 -53 -20q-46 2 -71 84q-15 44 -23 101q-10 66 -10 117q-3 54 -3 118q0 58 1 74q5 75 11 107q6 40 23 71q14 25 37 36q24 13 45 13h6q60 0 88 -69q4 7 13 33q17 45 31 69q23 40 62 62q39 23 85 24q76 0 125 -57q45 -53 45 -125
q0 -66 -41 -117q-42 -52 -105 -58q-3 -1 -13 -1q-42 0 -78 26q-42 32 -45 82v7q0 44 30 74q16 18 38 25q16 6 32 6l14 -2q27 -4 45 -22q21 -21 21 -50q0 -18 -11 -36q-11 -17 -32 -25q-11 -4 -15 7q-5 12 7 16t19 15q7 10 7 23q0 18 -13 33q-13 13 -32 17h-10q-14 0 -23 -3
q-17 -7 -29 -19q-24 -24 -24 -59v-5q3 -42 36 -66q27 -20 64 -20h10q56 6 88 50q34 41 36 98v5q0 64 -39 109q-42 48 -107 48q-37 0 -72 -21q-32 -18 -55 -53q-18 -30 -34 -80q-12 -30 -19 -44zM65 500v-6v-31l-2 -57v-14v-23q0 -31 4 -105q6 -96 19 -146q21 -81 44 -95
q7 -7 14 -8q10 -2 13 -2q29 0 47 41q16 33 27 78q16 83 17 99q4 48 4 131q0 37 -1 66t-1 67q-2 6 -2 31q-1 7 -2.5 22t-2.5 22q-56 -93 -117 -93q-18 0 -30 5q-11 3 -31 18z" />
    <glyph glyph-name="uniE029" unicode="&#xe029;" horiz-adv-x="238" 
d="M181 498l1 58q-2 60 -12 79q-16 28 -41 34q-27 6 -45 6t-21 -1h-1q1 -10 1 -43q2 -36 2 -43q1 -22 1 -74q1 -13 1 -44v-50q0 -42 1 -47q3 0 27 8q29 13 50 29q36 28 36 88zM42 80v165q0 144 -1 196q0 43 -0.5 86.5t-1 66t-0.5 29.5v25v18v8v11v7q0 6 5 6h19q11 1 25 1
q24 0 43 -3q17 -2 33 -16q15 -11 26 -31q16 -32 16 -90q0 -21 -1 -36v-44q0 -28 -17 -57q-16 -30 -37 -43q-14 -9 -32 -17q-7 -2 -18.5 -6.5t-16.5 -5.5q-14 -4 -16 -6v-26v-67l-1 -124v-99v-15q4 -84 47 -133.5t117 -61.5q21 -3 38 -3q139 0 184 147q12 40 12 75
q0 64 -38 102q-6 -19 -19 -42q-48 -82 -123 -82q-34 0 -58.5 22t-24.5 58q0 12 4 27q11 35 47.5 57.5t80.5 22.5q40 0 79 -22q0 4 0.5 9.5t0.5 7.5q0 71 -56 96q-13 6 -31 6q-28 0 -48 -17q-9 -7 -17 1q-6 10 1 16q29 23 64 23q19 0 42 -9q30 -13 49 -43.5t19 -71.5
q0 -15 -3 -33q54 -47 54 -128q0 -41 -13 -81q-23 -72 -73.5 -118t-132.5 -46q-19 0 -42 3q-86 14 -135 74t-49 158v1q-1 14 -1 52zM409 156q-2 2 -5 4l-3 1q-35 18 -67 18q-38 0 -68 -18.5t-38 -45.5q-3 -11 -3 -20q0 -26 17.5 -41.5t43.5 -15.5q59 0 101 71q14 22 22 47z
" />
    <glyph glyph-name="uniE02A" unicode="&#xe02a;" horiz-adv-x="286" 
d="M147 682q-24 0 -39 -20q-4 -6 -8 -13q-13 -21 -21 -87q-14 -95 -14 -238v-15q0 -104 9 -170q9 -67 41 -99q16 -16 41 -16q5 0 7 1q-1 3 -8 10q-1 2 -4 5.5t-4 5.5q-8 11 -8 17q0 4 2 6q1 1 4 1q12 0 27 -23q1 -1 4.5 -5t6.5 -7q20 18 31 52q11 37 16 116q0 6 0.5 14.5
t1 21.5t0.5 23t0.5 31t1.5 28q2 26 2 51q0 96 -2 114q0 72 -6 101q-9 46 -28 69q-20 26 -53 26zM209 31q-7 -11 -13 -17l6 -9l4 -4l1 -2q51 -65 133 -93q37 -12 82 -12q31 0 51 4q71 16 118 61q67 62 67 153q0 55 -26 96t-66 61q-36 17 -67 17q-48 0 -80.5 -26t-41.5 -65
q-2 -9 -2 -24q0 -39 23.5 -65.5t58.5 -26.5q28 0 45.5 16.5t17.5 41.5q0 23 -14 37t-35 14q-9 0 -15 -2q-11 -4 -16 7q-4 11 7 14q12 4 24 4q30 0 51.5 -21t21.5 -52q0 -35 -25 -58.5t-62 -23.5q-45 0 -75.5 34t-30.5 80q0 18 3 29q11 47 50.5 78t95.5 31q38 0 77 -18
q46 -23 75.5 -69.5t29.5 -107.5q0 -98 -75 -170q-55 -52 -130 -67q-32 -6 -55 -6q-44 0 -90 15q-87 27 -142 101l-2 2l-10 14q-4 -1 -17 -1q-28 0 -45 10q-21 10 -33 32q-17 31 -21 43q-7 23 -11 55q-5 40 -5 58q-1 7 -3 59q-1 12 -1 27q-1 12 -1 54q0 36 2 62v11q2 38 3 55
q5 73 10 98q1 4 3 16.5t2.5 16t2.5 13.5t3 14t4 12t5.5 13t6 12.5t8.5 14.5q16 26 53 26h6q44 -2 71 -36q25 -33 33 -98q2 -29 5 -140q0 -7 -2 -99q-3 -103 -11 -185q-4 -40 -13 -67q-11 -28 -24 -47z" />
    <glyph glyph-name="uniE02B" unicode="&#xe02b;" horiz-adv-x="291" 
d="M225 495q13 45 13 78q0 59 -32 91q-10 12 -78 18h-11q-5 1 -15 1q-19 0 -37 -2q-2 -18 -2 -39v-19v-56v-20v-32v-61v-30v-60h21q40 5 94 59q37 37 47 72zM130 251v3q0 36 -6 49q-12 33 -48 36q-8 0 -13 -3v-139v-72q0 -55 2 -87q0 -28 1 -40q0 -6 -4 -12q-4 -4 -7 -4h-2
q-4 0 -7 5q-3 9 -3 14q-1 9 -1 29q-1 22 -1 103v71q0 54 -1 71v25v71v73v26q2 112 2 126v27v32q0 31 2 47q3 3 16 3h23h28q6 0 12 -0.5t9.5 -1t4.5 -0.5q49 -3 52 -4q41 -8 58 -54q14 -37 14 -83q0 -30 -4 -47q-11 -63 -67 -115q-30 -33 -79 -52q14 -2 29 -26q15 -25 15 -70
v-10v-14v-5v-42q0 -130 79 -225q75 -91 185 -91q24 0 46 5q61 13 105.5 57.5t56.5 103.5q4 20 4 42q0 111 -92 168q-43 24 -89 24q-44 0 -77 -20.5t-49 -53.5q-13 -26 -13 -49q0 -41 25.5 -67t62.5 -26q51 0 74 44q7 15 7 31q0 23 -12.5 37t-31.5 14q-16 0 -26 -11t-10 -26
v-5q2 -9 -9 -13q-12 0 -13 9q-1 2 -1 9q0 24 16.5 42t43.5 18q29 0 48 -21.5t19 -51.5q0 -22 -10 -42q-11 -23 -36.5 -39.5t-58.5 -16.5q-47 0 -78.5 32.5t-31.5 81.5q0 33 14 61q19 38 57.5 62t90.5 24q51 0 100 -29q46 -28 75 -75.5t29 -109.5q0 -26 -5 -46
q-14 -66 -63.5 -116.5t-117.5 -64.5q-23 -5 -50 -5q-121 0 -203 100q-85 104 -85 237q0 6 -1 20.5t-1 22.5q0 16 1 26v3z" />
    <glyph glyph-name="uniE02C" unicode="&#xe02c;" horiz-adv-x="287" 
d="M218 662q-16 21 -50 21h-2h-3q-28 -28 -28 -63q0 -27 14.5 -45t39.5 -18q22 0 33.5 16t11.5 39q0 33 -16 50zM189 703q25 -5 40 -18q19 -16 24 -38q5 -20 5 -35q0 -8 -1 -12q-4 -29 -21.5 -47t-46.5 -18q-36 0 -56.5 25t-20.5 58q0 36 17 61q-20 -7 -26 -11
q-16 -10 -26 -30q-11 -24 -11 -70q0 -43 57 -124l54 -75q55 -81 71 -129q16 -34 17 -95q0 -95 -37 -132q-27 -27 -70 -27q-13 0 -16 1q-50 6 -77 39q-27 35 -27 87q0 53 16 91q8 18 19 18q4 0 5 -1q6 -1 6 -8q0 -1 -2 -11t-6 -18q-2 -4 -3.5 -8.5t-1.5 -5.5q-9 -40 -9 -53
v-5q3 -46 25 -73q24 -26 60 -27q46 0 69 26q25 28 25 93v14q-1 56 -29 119q-20 40 -53 86l-57 80q-53 73 -58 122q-2 24 -2 31q0 21 6 44q12 42 40 60q25 18 67 20q47 42 126 42q89 0 167.5 -49.5t111.5 -118.5q19 -41 19 -79q0 -43 -21 -76.5t-54 -48.5q-23 -11 -49 -11
q-48 0 -78.5 31t-30.5 76q0 40 26 69t64 29q31 0 52 -19.5t21 -48.5q0 -37 -33 -56q-7 -5 -16 4q-4 11 4 15q21 13 21 37q0 20 -13.5 33t-35.5 13q-28 0 -47 -21.5t-19 -54.5q0 -36 24 -60.5t62 -24.5q21 0 38 8q27 12 44 40t17 66q0 34 -16 69q-30 62 -103.5 108t-154.5 46
q-54 0 -92 -22z" />
    <glyph glyph-name="uniE02D" unicode="&#xe02d;" horiz-adv-x="231" 
d="M218 706v-13q-2 -12 -7 -14q-9 -3 -41 -3h-28q-7 0 -9 -1v-663q0 -13 -8 -13h-3q-12 1 -12 19v657q-2 1 -35 1h-10.5t-10.5 0.5t-9.5 0.5t-9 1t-6.5 3t-4.5 4.5t-1.5 6.5q0 2 3 5t6 3q5 0 74 -1t90 -1v8v7v41q0 65 14 96q18 39 55 62.5t86 23.5q24 0 48 -6
q66 -15 114 -66.5t48 -118.5q0 -35 -14 -70q-18 -42 -55 -81.5t-78.5 -78t-61.5 -68.5q-35 -55 -35 -109q0 -18 7 -46q11 -40 41 -68.5t69 -35.5q14 -2 22 -2q34 0 60.5 17.5t38.5 43.5q9 21 9 41q0 27 -14.5 48.5t-35.5 30.5q-15 7 -32 7q-32 0 -54.5 -23t-24.5 -52
q0 -11 -11 -11t-11 12q0 23 13.5 45.5t34.5 35.5q23 14 53 14q19 0 40 -8q27 -11 46 -38.5t19 -60.5q0 -24 -12 -50q-14 -32 -46.5 -53t-73.5 -21q-9 0 -25 2q-45 7 -80.5 40.5t-48.5 79.5q-7 24 -7 51q0 64 40 123q21 33 76 85.5t60 57.5q69 69 69 140q0 19 -4 34
q-10 48 -49.5 83t-92.5 47q-19 5 -44 5q-41 0 -73.5 -19t-45.5 -52q-12 -29 -12 -97v-31v-7z" />
    <glyph glyph-name="uniE02E" unicode="&#xe02e;" horiz-adv-x="292" 
d="M238 572l-2 106q0 1 0.5 4.5t0.5 5.5t1 5t2.5 4.5t4.5 1.5q13 0 14 -60v-9l1 -45v-58q0 -43 0.5 -111t0.5 -97l1 -34v-36q0 -52 -3 -97q0 -4 -0.5 -13t-0.5 -12q0 -48 7 -75t32 -38q13 -5 24 -5q30 0 53 27q7 7 12 15.5t8.5 20.5t6 20t4 24t2 22t2 26t1.5 24q5 71 27 117
q27 56 79 91q59 40 127 40q60 0 112.5 -29.5t79.5 -78.5q24 -45 24 -94q0 -72 -50.5 -124t-120.5 -54h-2q-57 0 -103 35.5t-60 86.5q-6 22 -6 44q0 38 18.5 68.5t47.5 45.5q23 13 50 13q39 0 67 -27.5t29 -65.5q0 -49 -41 -75q-2 -2 -7 -2q-11 0 -11 11q0 7 6 10
q30 21 30 57q0 16 -8 32q-21 38 -67 38q-19 0 -38 -11q-23 -12 -38 -37.5t-15 -57.5q0 -22 5 -37q13 -45 53 -75t89 -30q40 0 77 22q31 20 51.5 54.5t20.5 77.5v6q-2 76 -59 125.5t-133 49.5q-63 0 -116 -36q-46 -30 -70 -83q-21 -45 -26 -109q-5 -85 -13 -112
q-9 -31 -30 -55t-52 -30q-5 -1 -15 -1q-47 0 -70 39q-8 13 -11 25l-17 -28q-22 -28 -59 -30q-50 0 -79 36q-36 54 -39 185q-2 90 -3 219.5t-2 171.5v15q0 62 9 70q12 0 12 -16v-18v-12v-32q1 -20 2 -106t2 -106l1 -55l5 -191q14 -132 84 -136h5q31 0 51 27q27 40 27 147
q0 4 0.5 17t0.5 21q0 7 -0.5 26t-0.5 30l-1 47q0 12 -0.5 47.5t-0.5 59.5v101v30z" />
    <glyph glyph-name="uniE02F" unicode="&#xe02f;" horiz-adv-x="335" 
d="M296 650q6 37 10 47q1 4 5 4q3 0 4 -1q9 -6 10 -13q0 -10 -1 -18l-11 -51q-27 -146 -34 -198l-18 -108l-28 -173q-2 -15 -6 -35q-5 -22 -6 -34l-10 -58v-1q21 -48 61.5 -80.5t91.5 -42.5q20 -5 45 -5q118 0 205 104q81 95 81 224q0 19 -2 43q-9 70 -51 123t-104 64
q-20 2 -26 2q-58 0 -97 -34.5t-49 -86.5q-5 -22 -5 -35q0 -62 39 -106q36 -39 81 -39q40 0 65.5 27.5t25.5 67.5q0 55 -41 79q-19 11 -34 11q-13 0 -23 -5q-25 -11 -25 -37q0 -12 4 -20q9 -18 31 -20q6 0 9 -5t2 -8q0 -1 -1 -3.5t-4 -4.5t-8 -2q-34 2 -50 33q-7 13 -7 29
q0 40 40 58q14 7 33 7q24 0 46 -13q52 -32 52 -99q0 -48 -32 -82.5t-83 -34.5q-55 0 -99 47q-44 49 -44 119q0 20 4 40q12 59 57.5 99.5t112.5 40.5q13 0 31 -3q71 -12 117 -71t56 -134q3 -21 3 -47q0 -135 -86 -239q-93 -111 -224 -111q-22 0 -52 5q-53 11 -99 48t-70 88
l-47 193l-35 159q-1 7 -6 29t-8 37l-18 76q-1 6 -16 63l-18 77q-2 12 -7 28q-4 16 -6 26q0 11 10 12h1q4 0 8 -5.5t7 -15t5 -17.5t4 -18.5t3 -13.5l58 -249l36 -161q4 -18 14 -65.5t17 -76.5q5 -20 6 -21l23 135l45 278q5 37 32 178z" />
    <glyph glyph-name="uniE030" unicode="&#xe030;" horiz-adv-x="545" 
d="M43 589v8v37q0 66 13 66t13 -34v-11q-1 -4 -1 -8q0 -32 -1 -61q-1 -27 -1 -63v-20q0 -171 3 -318q0 -59 22 -115q21 -59 56 -59q22 0 42 18q17 21 23 42q25 71 26 96q1 44 14 46h3q5 0 9 -9q3 -6 3 -21v-7q0 -62 8 -105q5 -19 9 -28t15 -20t28 -11h1q54 1 59 102
q2 30 2 48l-2 78q0 42 -0.5 89.5t-1 73t-0.5 37.5v45v20v44v21v11q0 90 8 124q13 43 40 63q30 25 78 25q67 0 107.5 -49.5t40.5 -113.5q0 -41 -15.5 -81.5t-34.5 -67.5t-39 -61t-26 -61q-4 -16 -4 -33q0 -39 19 -67t48 -39q17 -7 36 -7q36 0 61.5 20.5t35.5 50.5q5 18 5 31
q0 35 -19.5 59t-47.5 27q-2 0 -5 0.5t-4 0.5q-39 0 -46 -35q-1 -5 -1 -10q0 -14 10 -23.5t23 -9.5q10 0 20 6q8 6 16 -2q5 -11 -3 -16q-15 -11 -34 -11q-22 0 -39 16t-17 40q0 7 1 14q4 23 23.5 38.5t46.5 15.5q8 0 12 -1q38 -5 63 -35.5t25 -73.5q0 -19 -7 -39
q-11 -35 -43 -60.5t-76 -25.5q-21 0 -45 9q-36 13 -59 47t-23 79q0 20 4 40q9 39 39.5 84t54.5 89t24 91q0 57 -35.5 99t-91.5 42q-28 0 -50 -10q-32 -14 -43 -53q-11 -35 -11 -118v-42v-41q-1 -20 -1 -41v-31q0 -53 1 -72q1 -119 3 -136q2 -66 2 -70q0 -73 -16 -118
q-11 -27 -32 -37q-24 -11 -33 -11h-4q-54 2 -69 60q-1 3 -9 71q0 -3 -2 -8q0 -2 -1.5 -8t-1.5 -9q-1 -8 -5 -17q-19 -58 -44 -75q-24 -15 -50 -15h-6q-31 3 -55 40q-25 41 -32 82q-1 3 -6 49q0 13 -2 65q-1 27 -1 50q-1 40 -1 182q0 103 1 132z" />
    <glyph glyph-name="uniE031" unicode="&#xe031;" horiz-adv-x="244" 
d="M134 467l30 124q4 17 13 54.5t15 58t17.5 47.5t29 45.5t41.5 29.5q31 15 65 15q69 0 119.5 -46.5t62.5 -108.5q3 -13 3 -35q0 -64 -40.5 -109.5t-100.5 -45.5q-75 0 -106 60q-15 26 -15 53q0 38 23.5 64.5t58.5 26.5q12 0 22 -4q19 -5 31 -20t12 -34q0 -6 -4 -20
q-7 -15 -19 -25q-8 -6 -16 2t2 16q6 3 10 14q3 6 3 13q0 26 -27 34q-6 2 -14 2q-24 0 -41 -19.5t-17 -49.5q0 -24 11 -43q26 -48 86 -48q50 0 84.5 38t34.5 94q0 16 -4 32q-10 54 -55 95t-105 41q-29 0 -54 -11q-39 -20 -60 -66.5t-36 -120.5q-7 -33 -36 -150l-11 -40
l-6 -23l18 -67q27 -106 27 -114l16 -58q9 -43 14 -58q18 -74 21 -90q1 -3 1 -9q0 -11 -7 -11h-2q-3 1 -4 4q-11 22 -34 114l-23 94l-5 18l-17 66q-2 6 -6 26q-5 20 -6 28q-2 10 -4 10v-2q-3 -10 -4 -14q-2 -8 -3 -11t-3 -14l-4 -16q-5 -15 -40 -166q-7 -40 -31 -123
q-3 -12 -12 -14h-2q-4 0 -5 4q-1 2 -1 6q0 5 1 8q7 23 13 54.5t6 32.5l13 59l9 35q5 20 6 23q1 2 6 24l8 35l12 55l19 71q-7 30 -10 42l-7 25l-24 96l-25 102q-1 3 -1 13q0 15 7 15q10 0 11 -9l11 -44l8 -33q3 -9 6 -26q19 -68 30 -117l3.5 -7t2.5 -6q0 2 2 4.5t2 4.5z" />
    <glyph glyph-name="uniE032" unicode="&#xe032;" horiz-adv-x="337" 
d="M57 125q0 -44 32 -78.5t71 -34.5q18 0 41 14q45 31 55 177q0 7 3 98l1 95l-29 -30q-15 -15 -55.5 -55t-62.5 -65q-56 -70 -56 -121zM142 -14q-44 8 -75.5 48.5t-31.5 91.5q0 46 22 83t62 80l57 54q72 72 84 86v13q0 22 -1 41q-36 -59 -97 -63h-14q-23 0 -46.5 13
t-33.5 29q-9 11 -14 29t-7 32.5t-3.5 41t-2.5 37.5q0 29 -2 49v12q-1 6 -1 14q0 22 8 22h1q11 0 12 -7q0 -3 0.5 -6t1 -4.5t0.5 -2.5q5 -95 9 -137q5 -48 18 -67t39 -28q12 -3 26 -3h9q18 1 44 16q42 25 50 65q3 10 5 36v36v86q0 20 10 20q14 0 14 -24v-105q-2 -80 -2 -91
v-18q1 -8 1 -18q41 59 84 93.5t111 48.5q24 4 50 4q116 0 182 -79q38 -49 38 -106q0 -73 -56 -119t-131 -46q-59 0 -101 28.5t-55 74.5q-6 18 -6 33q0 71 62 103q26 12 49 12q38 0 64.5 -23.5t26.5 -59.5q0 -29 -18.5 -48.5t-45.5 -19.5q-26 0 -42.5 16.5t-16.5 38.5
q0 11 5 23q3 7 9.5 7.5t11 -4t2.5 -11.5q-4 -10 -4 -16q0 -12 10 -21.5t25 -9.5q17 0 29 12.5t12 32.5q0 26 -19.5 43t-49.5 17q-20 0 -37 -9q-49 -24 -49 -82q0 -15 4 -28q11 -39 46.5 -62.5t87.5 -23.5q68 0 115.5 39.5t47.5 102.5q0 50 -33 92q-58 70 -163 70
q-46 0 -83 -12t-68.5 -39.5t-48 -46.5t-45.5 -57q-2 -88 -2 -94q0 -71 -1 -107.5t-8.5 -85.5t-22.5 -83q-29 -50 -70 -59q-2 0 -6 -1t-6 -1h-7q-7 0 -10 1q-1 0 -4 0.5t-5 0.5z" />
    <glyph glyph-name="uniE033" unicode="&#xe033;" horiz-adv-x="250" 
d="M214 671q-9 0 -16 1h-16h-52q-24 -1 -51 -1h-27q-4 0 -7 4q-3 5 -3 9v1q0 9 12 9h75q62 0 72 1h36q10 0 10 -6v-2l-18 -57q-7 -26 -14 -51q-61 -236 -71 -262q-4 -21 -67 -250q-10 -36 -10 -41q58 -2 111 -2h35q194 0 270 124q32 49 32 108q0 60 -34.5 104t-86.5 53
q-9 2 -22 2q-67 0 -102 -53q-20 -27 -20 -65q0 -45 30 -77.5t72 -32.5q32 0 52 18.5t20 46.5q0 24 -15 39t-37 15q-12 0 -24 -6q-11 -6 -16 3q-6 10 4 15q16 11 37 11q32 0 54 -21.5t22 -54.5q0 -38 -28.5 -63t-69.5 -25q-53 0 -89.5 38.5t-36.5 92.5q0 42 25 79
q42 62 123 62q16 0 26 -2q61 -10 101 -60.5t40 -117.5q0 -63 -35 -119q-38 -63 -109.5 -101.5t-161.5 -38.5q-7 0 -33 2h-7h-71h-41h-21q-7 1 -20 1q-4 0 -4 11q0 6 4 18l37 129l53 201l19 73q6 29 32 119z" />
    <glyph glyph-name="uniE035" unicode="&#xe035;" horiz-adv-x="226" 
d="M211 689q0 -12 -16 -12q-83 0 -123 -3q-1 -10 -1 -47v-22v-24v-65v-26v-15q16 1 89 1q15 0 15 -8q0 -9 -4 -12q-6 -2 -23 -2h-39h-9q-5 0 -13 -1q-3 0 -7 -0.5t-6.5 -1t-3.5 -0.5v-25v-70v-98v-188v-19v-18v-24q0 -53 -4 -84q-8 -69 -37 -104q-35 -43 -88 -43
q-42 0 -72 27.5t-30 67.5q0 36 23.5 61.5t57.5 25.5q25 0 43 -15t18 -38q0 -30 -30 -41q-5 -2 -14 -2q-28 0 -36 25q-4 12 7 16t15 -7q6 -15 20 -10q13 4 13 20q0 11 -10.5 20t-25.5 9q-24 0 -40 -18t-16 -45q0 -31 22.5 -53t54.5 -22q40 0 69 36q23 28 29.5 72.5t6.5 115.5
v36q0 69 1 123v47v52q0 42 -1 80v86q0 59 1 83v10v41v64v10v14q0 29 4 30h29q27 0 46 1h42h11h9q23 0 23 -11z" />
    <glyph glyph-name="uniE036" unicode="&#xe036;" horiz-adv-x="287" 
d="M50 705q12 0 12 -15v-110v-44q-1 -28 -1 -65q0 -34 1 -34q113 0 168 5v21v18v31q-1 13 -1 36v61v30v9v16q0 40 10 42h2q4 0 6 -8q2 -12 3 -21t1 -26q1 -9 1 -28v-20q0 -32 3 -173q4 -128 4 -220v-95v-77v-34q2 -79 15 -123t48 -65q20 -12 38 -12q31 0 53 20.5t22 49.5
q0 23 -14.5 38t-34.5 15q-7 0 -15 -4q-23 -11 -23 -32q0 -8 4 -15q6 -12 20 -12q2 0 8 2q5 3 9 10q2 8 13 8q12 -4 9 -14q-4 -15 -19 -24q-10 -6 -21 -6q-28 0 -41 26q-6 12 -6 24q0 38 36 54q14 6 27 6q30 0 50 -22t20 -53q0 -38 -28.5 -65.5t-69.5 -27.5q-27 0 -52 15
q-42 26 -55 77.5t-14 135.5v3v20v19v43l-2 142q0 13 -1 73t-2 110q-61 -4 -113 -4q-48 -2 -58 -2v-20v-20v-20v-18v-107v-222q0 -17 -9 -17h-1q-11 0 -11 41q-1 7 -1 34q-1 15 -1 33v114v104v24q1 17 1 80v109v34v61v29q1 13 1 34q0 18 9 18z" />
    <glyph glyph-name="uniE037" unicode="&#xe037;" horiz-adv-x="99" 
d="M43 372q1 16 1 88t-1 89v59q-1 24 -1 44v18q0 22 3 26q3 5 8 5q3 0 5 -3q5 -5 5 -42q0 -15 2 -93q1 -40 1 -108q1 -33 1 -96v-217v-27v-26v-29v-55q0 -62 1 -88q3 -52 19 -76t57 -24q31 0 53 19.5t22 49.5q0 23 -15 38t-34 15q-5 0 -15 -5q-23 -11 -23 -31q0 -9 4 -16
q6 -12 20 -12q2 0 8 2q6 3 8 10q4 12 14 9q13 -4 9 -15q-4 -13 -19 -23q-10 -6 -21 -6q-29 0 -41 25q-5 10 -5 25q0 37 35 53q14 6 27 6q30 0 50 -22t20 -53q0 -38 -28.5 -65t-69.5 -27q-54 0 -74.5 32.5t-24.5 90.5v31v60v7q0 287 -1 357z" />
    <glyph glyph-name="uniE038" unicode="&#xe038;" horiz-adv-x="301" 
d="M242 496v25q0 42 -1 73q-1 30 -1 63v17v28q0 42 1.5 66t8 55.5t21.5 53t40 36.5t53 15q41 0 69 -27t28 -66q0 -31 -20 -52.5t-50 -21.5q-12 0 -26 6q-37 17 -37 53q0 13 6 25q12 25 41 25q11 0 21 -6q15 -10 19 -24q4 -10 -8 -14q-11 -4 -15 9q-2 5 -8 10q-6 2 -8 2
q-14 0 -20 -12q-4 -7 -4 -16q0 -21 23 -33q12 -3 15 -3q20 0 35 15.5t15 37.5q0 29 -22 49t-53 20q-21 0 -39 -11q-38 -22 -50 -71.5t-12 -138.5v-115v-60q2 -138 2 -159q0 -16 -2 -100q-2 -51 -13 -118q-6 -33 -26 -77q-15 -35 -42 -50q-5 -4 -18 -7q-17 -5 -32 -5
q-16 0 -25 4q-27 11 -45 35q-22 32 -25 87v18v13v12v7v3v2q0 25 11 25h2q9 -1 9 -31v-14v-14q0 -21 1 -30q4 -44 25 -69q17 -25 49 -25q2 0 16 2q55 16 72 101q17 76 20 161q1 10 1 50q0 43 -1 77t-1 71v18z" />
    <glyph glyph-name="uniE039" unicode="&#xe039;" horiz-adv-x="312" 
d="M68 425q45 9 84 41q40 34 61 73l17 31q24 52 29 69q0 1 2 6t3 8l4 16q0 2 2 6t2 6q2 4 7 9q3 3 7 3h1q8 0 8 -15q0 -14 -6 -29q-1 -3 -8 -23l-11 -24l-8 -21q-6 -18 -9 -23l-10 -19q-7 -13 -14 -22q-4 -6 -14 -18q-54 -64 -104 -83q2 -1 6 -3.5t6 -3.5l13 -7
q19 -11 36 -40q15 -26 15 -65q0 -26 -9 -86q-10 -56 -10 -88q0 -16 1 -23q3 -32 20 -55q17 -25 42 -25q46 0 56 38q2 10 2 22q0 4 -2 24q0 4 -0.5 9t-1 8t-0.5 4q-1 5 -1 19q0 8 3 11q1 3 5 3t5 -4l2 -6l2 -2l1 -2q5 -13 7 -28q2 -24 2 -29q0 -4 -2 -28q-6 -32 -27 -49
q-20 -14 -52 -14q-23 0 -45 19q-40 36 -40 115q0 19 11 83q11 48 11 76q0 20 -4 33q-7 28 -28 50q-17 20 -39 22h-5q-7 0 -22 -5q-2 -206 -2 -216v-40q0 -31 1 -42v-35q0 -52 -1 -61v-38q0 -58 -10 -92q-13 -39 -42.5 -65t-71.5 -26q-11 0 -16 1q-38 4 -65.5 28t-27.5 66
q0 22 8 41q10 25 33.5 42t52.5 17q13 0 25 -3q21 -6 36 -22.5t15 -36.5q0 -13 -6 -25q-12 -23 -39 -23q-15 0 -27.5 8.5t-13.5 24.5v7q0 24 15 24q5 0 7 -1q11 -4 4 -16q-3 -4 -3 -8q0 -7 5.5 -11.5t12.5 -4.5q8 0 14.5 6t6.5 17q0 17 -14.5 28.5t-34.5 11.5q-5 0 -17 -2
q-22 -6 -39 -27t-17 -48q0 -36 25.5 -54t58.5 -18q17 0 32 7q63 26 68 116q1 17 1 57v75v32q0 125 1 236t1 232v32q0 76 1 93q2 21 9 21q3 0 4 -1q10 -8 10 -22v-65v-29v-79q0 -20 -1 -37v-39z" />
    <glyph glyph-name="uniE03A" unicode="&#xe03a;" horiz-adv-x="344" 
d="M55 669v-29v-50q-1 -24 -1 -58v-137v-72q0 -169 1 -213v-44v-29v-82q0 -9 0.5 -26t0.5 -24q0 -94 -60 -118q-14 -6 -33 -6q-37 0 -61 24.5t-24 58.5q0 25 14 44q20 27 51 27q18 0 32 -10q9 -5 13 -11q10 -13 10 -31q0 -26 -22 -40q-13 -7 -25 -7q-6 0 -9 1q-6 1 -8.5 6.5
t-1.5 8.5q0 3 4 6.5t11 2.5q8 -2 16 3q10 6 10 20q0 11 -5 17l-6 6q-9 6 -18 6q-18 0 -31 -19q-10 -12 -10 -30q0 -25 17 -42.5t43 -17.5q8 0 23 5q46 18 46 96v51q1 88 1 251v79v94v50q0 117 1 152v8v51q0 61 9 62l2 2h2l5 -3q5 -2 11 -9l15 -15l6 -8l117 -176l20 51l25 61
l22 59q0 1 1 3t1.5 4.5t1.5 4.5t2 4.5t2.5 4t1.5 2.5l5 10q5 8 6 8l9 3h3q11 0 16 -21v-79v-83v-83q0 -191 -3 -368v-17v-9q1 -10 1 -36q0 -13 -4 -16q-6 -2 -8 -2q-8 0 -8 22t-1 28v17v46v16q0 28 2 364q0 16 1 28v28v14v110q-7 -22 -29 -70q-7 -19 -16 -42t-11 -28
q-1 -2 -3.5 -8t-4.5 -11q-2 -4 -4 -11.5t-3 -9.5q-5 -13 -7 -16q-1 -2 -4 -6.5t-4 -6.5q-8 -4 -10 -4q-11 0 -19 17q-33 58 -87 142q-14 22 -40 55z" />
    <glyph glyph-name="uniE03B" unicode="&#xe03b;" horiz-adv-x="320" 
d="M321 15q7 -1 7 -10v-2q-1 -4 -17 -4q-19 0 -30 13.5t-11 35.5q0 15 -0.5 47t-0.5 49q0 50 1 153.5t1 151.5q2 44 2 65q0 16 -2 40q-3 33 -10 54q-5 20 -20 40q-17 23 -41 31q-11 4 -27 4q-27 0 -50 -16q-27 -16 -38 -37l-1 -2q-1 -2 -3 -5.5t-4 -6.5q-6 -8 -8 -17
q-2 -14 -2 -16l-1 -284v-198v-63v-13v-5q0 -22 -1 -28v-38q0 -58 -10 -92q-13 -39 -42.5 -65t-71.5 -26q-48 0 -78.5 25.5t-30.5 70.5q0 22 8 41q10 25 33.5 42t52.5 17q13 0 25 -3q21 -6 36 -22.5t15 -36.5q0 -13 -6 -25q-12 -23 -39 -23q-15 0 -27.5 8.5t-13.5 24.5v7
q0 24 15 24q5 0 7 -1q11 -4 4 -16q-3 -4 -3 -8q0 -7 5.5 -11.5t12.5 -4.5q8 0 14 6t6 17q0 17 -14 28.5t-34 11.5q-5 0 -17 -2q-22 -6 -39 -27t-17 -48q0 -34 23.5 -53.5t60.5 -19.5q17 0 32 7q63 26 68 116q1 17 1 57v60v32v1v77v76v48q0 23 0.5 67.5t1.5 64.5v109
q1 48 1 110q0 48 1 58q1 22 15 22q8 0 8 -16v-28v-7h1q1 0 2 1q15 24 42 41q29 18 58 18h2q31 -2 56 -17q21 -11 30 -23q16 -21 24 -50q8 -23 11 -60q1 -12 1 -39q0 -36 -1 -54q-3 -387 -3 -410q0 -16 8 -26.5t22 -12.5z" />
    <glyph glyph-name="uniE03C" unicode="&#xe03c;" horiz-adv-x="231" 
d="M181 498l1 58q-2 60 -12 79q-16 28 -41 34q-27 6 -45 6q-20 0 -23 -1h-1q1 -10 1 -43q1 -18 1 -43q1 -22 1 -74q2 -26 2 -44v-50q0 -42 1 -47q5 0 29 8q29 13 50 29q36 28 36 88zM42 80v165q0 144 -1 196q0 43 -0.5 86.5t-1 66t-0.5 29.5v25v18v8v11v7q0 6 5 6h19
q11 1 25 1q24 0 43 -3q17 -2 33 -16q15 -11 26 -31q16 -32 16 -90q0 -21 -1 -36v-44q0 -28 -17 -57q-16 -30 -37 -43q-14 -9 -32 -17q-7 -2 -18.5 -6.5t-16.5 -5.5q-17 -5 -18 -6v-26v-67v-124q0 -27 0.5 -77t0.5 -72q0 -81 43 -101q10 -5 21 -5q21 0 34 14t13 35
q0 19 -10.5 31.5t-25.5 12.5h-4q-3 0 -9 -3q-15 -12 -5 -25q3 -5 11 -8q10 -1 10 -12q-4 -12 -14 -10q-18 2 -28 15q-7 10 -7 23q0 23 20 36q9 7 19 8q1 0 4 0.5t5 0.5q26 0 42.5 -21t16.5 -47q0 -30 -20 -52t-53 -22q-14 0 -32 8q-55 26 -55 121q0 17 -0.5 50t-0.5 53z" />
    <glyph glyph-name="uniE03D" unicode="&#xe03d;" horiz-adv-x="264" 
d="M238 563v10q0 76 -44 95q-30 14 -78 14q-5 1 -15 1q-20 0 -38 -2q-1 -9 -1 -39v-19v-56v-20v-32v-61v-30v-60h21q43 5 94 56q43 43 53 88q7 36 8 55zM62 336v-139v-72q0 -71 1 -87q0 -16 2 -40q0 -6 -4 -12q-4 -4 -7 -4h-2q-4 0 -7 5q-3 9 -3 14q-1 9 -1 29q-1 22 -1 103
v71q0 54 -1 71v25v71v73v26q2 112 2 126v27v32q0 31 2 47q3 3 16 3h23h28q6 0 12 -0.5t9.5 -1t4.5 -0.5q52 -3 72 -14t38 -44q14 -29 14 -83q0 -30 -4 -47q-11 -63 -67 -115q-30 -33 -79 -52q15 -2 29 -26q14 -26 14 -78v-25q0 -30 2 -83t2 -69q1 -54 2 -81.5t8.5 -62
t21.5 -58.5q31 -54 83 -54q30 0 48.5 18t18.5 47q0 25 -15 42.5t-35 19.5q-10 1 -21 -5q-17 -8 -17 -22q0 -6 3 -12q8 -16 24 -11q7 2 11 -1t4 -6q4 -11 -7 -15q-10 -2 -14 -2q-29 0 -41 24q-5 9 -5 22q0 30 31 45q16 6 29 6h5q31 -3 52 -27t21 -58q0 -37 -26.5 -63
t-65.5 -26q-64 0 -103 66q-16 27 -24.5 65t-10 66t-2.5 82q0 24 -2 75t-2 78q0 72 -5 84q-12 33 -48 36q-9 0 -13 -3z" />
    <glyph glyph-name="uniE03E" unicode="&#xe03e;" horiz-adv-x="716" 
 />
    <glyph glyph-name="uniE06D" unicode="&#xe06d;" horiz-adv-x="271" 
d="M323 455q-7 -25 -7 -55q0 -56 24.5 -96.5t63.5 -55.5q18 -7 37 -7q46 0 70 37q9 16 9 33q0 25 -14 41t-35 16q-3 0 -18 -6q-16 -10 -16 -25q0 -8 4 -15q9 -12 21 -12q8 0 13 4q6 4 11 2.5t6 -3.5q8 -8 -3 -15q-13 -10 -29 -10q-26 0 -39 21q-8 12 -8 27q0 31 27 45
q14 9 32 9q32 0 52.5 -23t20.5 -55q0 -22 -14 -45q-26 -49 -91 -49q-25 0 -47 9q-46 19 -73.5 65t-27.5 107q0 40 10 74l1 2l-1 1q-12 15 -30 50l-22 47q-17 34 -34 58q-20 26 -41 39q-18 10 -39 10h-3q-53 0 -77 -45q-15 -29 -15 -70q5 -80 48 -90l13 -2l22 -2q7 -1 13 -1
h6q7 0 9 -1q4 0 6 -1q5 -2 6 -3q3 0 3 -4q0 -13 -6 -14q-1 0 -7.5 -1t-10.5 -2q-8 0 -17 -3q-23 -9 -37 -23q-21 -25 -30 -58q-10 -39 -10 -93v-14q0 -25 3 -108q4 -66 28 -96q27 -37 67 -37q63 0 74 66q3 15 13 15h2q9 0 9 -13v-6q-4 -31 -18 -51q-8 -15 -32 -25
q-23 -10 -49 -10q-51 0 -84 42q-37 48 -37 171v25q-1 13 -1 26q0 76 8 114q9 41 35 64l24 23q-27 3 -40 15q-11 10 -23 39q-11 35 -11 58q0 4 1 7v9q3 40 24 76q30 46 94 48h3q28 0 51 -15q22 -13 36 -32q18 -22 35 -56l25 -50q18 -38 28 -51q9 17 27 39q40 44 90 44
q37 0 63 -23.5t26 -60.5q0 -38 -29 -64t-69 -26q-34 0 -69 20q-13 8 -30 25zM331 480l1 -1q12 -14 36 -30q28 -17 55 -17q30 0 51.5 19.5t21.5 47.5t-19.5 45t-46.5 17q-39 0 -71 -36q-16 -19 -28 -44v-1z" />
    <glyph glyph-name="uniE070" unicode="&#xe070;" horiz-adv-x="779" 
d="M444 301q5 20 5 24q0 30 -23 55q-16 16 -42 27q-9 3 -46 13t-55 19q-27 13 -44.5 39t-17.5 56q0 25 9 43q22 44 79 56q9 2 27 2q35 0 70 -14q37 -14 83 -57q15 -14 28.5 -32t22 -31t21.5 -35.5t20 -33.5q35 -57 88 -57q13 0 20 2q32 10 53 39.5t21 67.5q0 33 -13.5 63
t-33.5 44q-17 13 -41 13q-22 0 -37.5 -13t-15.5 -35v-7q3 -14 11 -24q7 -7 -1 -16q-13 -4 -18 2q-17 17 -17 46q0 16 5 27q19 38 62 44h9q32 0 57.5 -21t37.5 -50q16 -35 16 -73q0 -47 -24 -82.5t-64 -46.5q-12 -3 -26 -3q-34 0 -62 18q-14 9 -26.5 23t-19 23.5t-19.5 32
t-17 29.5q-24 45 -55 73q-31 31 -76 49q-25 11 -57 11q-66 0 -86 -45q-8 -16 -8 -30q0 -28 17 -50q23 -30 77 -43q5 -2 19 -6t20 -5.5t17.5 -6t18.5 -8.5t15.5 -10t15.5 -13q28 -32 28 -72q0 -24 -10 -44l2 -3q20 -33 20 -72q0 -56 -35.5 -99.5t-87.5 -59.5q-22 -5 -40 -5
q-36 0 -60 12q-44 21 -66 74q-2 4 -11 27t-14 32t-17.5 21t-28.5 15q-2 0 -5 0.5t-4 0.5q-31 0 -49.5 -28.5t-18.5 -67.5v-11q0 -43 34 -63q7 -5 18 -5q15 0 26.5 10t11.5 25t10 16q8 1 11 -3.5t3 -10.5q0 -26 -18 -42.5t-43 -16.5q-19 0 -32 8q-46 25 -46 92q0 19 4 34
q15 62 64 81q12 4 26 4q24 0 49 -17q8 -7 14.5 -15t12.5 -20t8.5 -17.5t9 -22t7.5 -18.5q24 -49 55 -63q22 -11 47 -11q14 0 34 6q48 12 76 52q31 40 31 86q0 24 -11 50l-16 -19q-17 -18 -45 -34q-38 -21 -72 -21t-59 22q-27 23 -27 59q0 12 7 30q11 26 37.5 43t60.5 17
q21 0 40 -6q44 -11 69 -43zM434 276q-27 37 -66 47q-15 4 -31 4q-29 0 -55 -17q-27 -21 -27 -52q0 -7 1 -11q5 -21 22 -33t39 -12h6q61 3 111 72v2z" />
    </font>
</defs>
</svg>
